<svg width="137" height="200" viewBox="0 0 137 200" fill="none" xmlns="http://www.w3.org/2000/svg">
<path d="M25.974 12.4675L2.5974 38.961L0 58.1818L7.27273 76.3636L10.9091 98.1818L5.71429 99.2208L3.63636 115.325L14.5455 141.818L22.8571 147.532L29.0909 165.714L42.0779 184.935L60.7792 197.922L77.4026 200L96.1039 194.805L109.091 181.818L121.039 155.325L123.636 141.818L128.831 138.701L130.39 130.39L132.468 126.234L136.623 115.325L135.065 98.1818L132.468 92.987L128.831 91.4286L135.065 56.6234L134.026 41.039L124.675 28.0519L112.208 17.6623L80 0H59.2208L25.974 12.4675Z" fill="#DEE0C8"/>
<path d="M65.092 152.31L62.0636 151.099L59.0352 148.071L84.4741 147.465L88.1082 148.676L84.4741 151.099L82.0513 152.31L77.8115 154.127H73.5717H70.5432L69.9375 153.522H68.1205L66.3034 152.31H65.092Z" fill="#DEE0C8"/>
<path d="M57.2196 140.802H55.4026V141.408L54.7969 143.83L60.2481 145.647L64.4879 146.253L67.5163 146.859L68.7277 147.464L72.9675 148.07L73.5732 144.436V147.464H77.2073L79.6301 146.859H82.6585L86.8983 145.647L91.7439 142.619L90.5325 140.196L88.1097 138.985H86.2927L83.8699 137.773L81.4472 138.379H79.0244L75.3903 138.985L73.5732 140.196L71.1505 138.985H68.7277L66.9106 138.379H61.4594L59.0367 139.591L57.2196 140.802Z" fill="#F1F3D9"/>
<path d="M22.6949 56.6115L49.9509 40.2578L102.04 45.1033L114.154 62.6684L119.605 104.461L123.239 99.6155L126.268 99.0098L128.69 102.644L129.902 114.152L128.085 123.237L125.056 128.083L123.845 134.746L120.816 136.563L117.182 135.351V143.225L115.365 149.888L101.434 177.144L91.2535 185.054L77.4892 189.258L63.2151 187.441L48.7395 178.355L42.6826 169.27L31.7802 148.071L29.3575 139.591L26.9347 140.802L22.6949 138.985L20.2722 134.14L17.8494 129.294L13.0039 114.758L14.2153 104.461L18.4551 103.855L22.6949 110.518L20.2722 79.6277L22.6949 56.6115Z" fill="#DEE0C8" stroke="#282607" stroke-width="2.86501"/>
<path d="M71.1497 130.508L65.0928 127.48L46.9222 135.354L43.288 138.988L37.2312 137.171L30.5686 131.719L25.7231 120.211H24.5117L26.9345 130.508L30.5686 144.439V148.351L34.6667 156.507L41.2939 169.762L47.9212 179.958L64.4871 189.866L79.0236 191.683L90.7434 188.114L102.469 178.428L112.155 159.566L115.971 149.89L117.182 143.228L118.393 119H116.576L114.759 130.508L102.645 137.776L99.0114 134.748L81.4464 127.48L74.7838 130.508H71.1497Z" fill="#282607"/>
<path d="M26.9326 86.896L25.1155 66.9082L38.4407 51.1603L54.1885 44.4977H76.599L91.1355 47.5261L111.123 58.4286V80.2334L115.969 93.5586L117.18 109.307H118.997L119.603 103.25L122.026 101.433L125.66 80.2334L128.083 59.6399L127.477 45.7091L120.209 34.2009L108.7 24.5099L92.3469 15.4245L79.6274 8.15625H62.0625L44.4975 15.4245L31.1724 19.6644L17.2416 37.2294L9.97331 45.1034L8.15625 59.0342L14.8188 77.205L17.2416 100.827L19.8814 108.075L23.9041 115.969H25.7212L26.9326 86.896Z" fill="#282607"/>
<path d="M56.9758 141.893L53.6445 143.891L56.6126 147.223L60.8525 150.493L66.3034 153.219L70.9672 153.885H76.2973L82.0515 153.219L85.6249 151.22L90.2887 147.223L92.9537 144.558L90.9549 143.225L86.2911 139.894L80.2948 137.229L76.2973 136.562L72.2997 137.895L68.9684 136.562L64.3046 137.229L60.9734 138.561L56.9758 141.893Z" fill="#DEE0C8"/>
<path d="M52.9766 142.562L54.3091 143.229L56.3078 143.895L58.1153 144.271L62.3042 144.561H68.3005L70.2992 145.228L72.298 145.894L75.6293 144.561H81.6256L86.9557 145.228L91.6561 144.271L92.952 143.895L89.7222 144.832L83.6047 145.291L80.546 144.832L77.997 144.781L74.9383 145.291L72.8991 146.31H71.3698L67.2915 145.228H60.1544L57.0957 144.781L55.0565 143.761L52.9766 142.562Z" stroke="#282607" stroke-width="1.12154"/>
<path d="M42.9135 93.6723L36.0195 97.2076L38.5623 96.7219L41.1193 95.6292L42.7165 95.2649L42.5805 95.9934L42.9135 96.904L44.2243 98.5431L46.2334 99.6358H50.2516L52.2607 98.1788L52.9912 96.3576L52.8086 95.0828L54.8177 95.8113L57.74 97.0861L59.8529 97.2076L55.7165 94.2615L51.7771 92.8867H45.6711L42.9135 93.6723Z" fill="#282607" stroke="#282607" stroke-width="0.331567"/>
<path d="M89.82 93.9351L85.6836 97.4704L88.058 96.7312L90.0671 95.2742L91.7109 94.7279L91.1629 96.0027L91.5927 97.4704L93.172 98.7345L94.9985 99.463L97.5555 99.2808L99.6685 97.6668L100.113 95.8206L99.7473 95.0921L99.1993 94.5458L101.026 95.2742L103.583 96.367L106.168 96.6848L98.4866 92.9531H92.5775L89.82 93.9351Z" fill="#282607" stroke="#282607" stroke-width="0.331567"/>
<path d="M42.7144 90.7277L37.1992 94.2629L42.9113 91.7097H54.5326L58.472 92.8881H60.2447L55.7144 90.5312L42.7144 90.7277Z" fill="#282607" stroke="#282607" stroke-width="0.331567"/>
<path d="M90.0269 90.7251L83.418 95.3768L88.0831 93.2447L91.7764 91.888H100.718L104.606 94.2138L106.938 94.6015L104.217 92.2756L100.135 90.5312L90.0269 90.7251Z" fill="#282607" stroke="#282607" stroke-width="0.32721"/>
<path d="M69.0289 20.2692H66.4437L61.9195 24.509L53.5174 31.1716L38.0059 34.8057L29.6038 33.5944L23.787 37.2285L18.6165 47.5252L16.0312 48.7366L21.2018 37.2285L32.8354 25.7204L45.7617 14.818L58.0416 10.5781L69.0289 11.7895V20.2692Z" fill="#2C60BD"/>
<path d="M69.0296 20.2692H71.6149L76.1391 24.509L84.5412 31.1716L100.053 34.8057L108.455 33.5944L114.272 37.2285L119.442 47.5252L122.027 48.7366L116.857 37.2285L105.223 25.7204L92.2969 14.818L80.017 10.5781L69.0296 11.7895V20.2692Z" fill="#2C60BD"/>
</svg>
