<svg width="182" height="109" viewBox="0 0 182 109" fill="none" xmlns="http://www.w3.org/2000/svg">
<path d="M23.149 65.3384C23.5904 65.9459 23.6674 67.6053 23.6508 68.3591L23.5345 68.4936C23.1621 68.9242 22.2879 69.8707 21.7693 70.2124C21.2507 70.5541 19.8756 71.0048 19.2529 71.1875L16.8031 70.1507L15.6364 68.4363C15.6797 67.831 15.8606 66.382 16.2382 65.4293C16.7103 64.2385 18.2793 63.7141 18.9076 63.3637C19.4102 63.0834 20.7635 63.3853 21.3773 63.5712C21.784 63.9072 22.7076 64.731 23.149 65.3384Z" fill="#3A0001"/>
<path d="M37.5298 70.2054C37.9713 70.8129 38.0483 72.4723 38.0316 73.2261L37.9153 73.3606C37.543 73.7911 36.6687 74.7376 36.1501 75.0793C35.6316 75.421 34.2565 75.8718 33.6338 76.0544L31.184 75.0176L30.0173 73.3033C30.0605 72.6979 30.2414 71.249 30.6191 70.2963C31.0912 69.1054 32.6601 68.581 33.2885 68.2307C33.7911 67.9504 35.1444 68.2522 35.7582 68.4382C36.1648 68.7741 37.0884 69.5979 37.5298 70.2054Z" fill="#3A0001"/>
<path d="M25.524 29.129C25.9654 29.7364 26.0424 31.3959 26.0258 32.1497L25.9095 32.2842C25.5371 32.7147 24.6629 33.6612 24.1443 34.0029C23.6257 34.3446 22.2506 34.7953 21.6279 34.978L19.1781 33.9412L18.0114 32.2269C18.0547 31.6215 18.2356 30.1726 18.6132 29.2199C19.0853 28.029 20.6543 27.5046 21.2826 27.1542C21.7852 26.874 23.1385 27.1758 23.7523 27.3618C24.159 27.6977 25.0826 28.5215 25.524 29.129Z" fill="#3A0001"/>
<path d="M10.8693 25.9107C11.1266 26.2648 11.1715 27.2319 11.1618 27.6712L11.094 27.7496C10.877 28.0005 10.3674 28.5522 10.0652 28.7513C9.76298 28.9505 8.96157 29.2132 8.59864 29.3196L7.17088 28.7154L6.49094 27.7162C6.51614 27.3634 6.62157 26.519 6.84168 25.9637C7.11681 25.2697 8.03121 24.964 8.3974 24.7599C8.69035 24.5965 9.47905 24.7724 9.83679 24.8808C10.0738 25.0766 10.6121 25.5567 10.8693 25.9107Z" fill="#3A0001"/>
<path d="M5.30486 49.1161C5.56212 49.4701 5.60702 50.4372 5.59731 50.8766L5.52952 50.9549C5.31253 51.2059 4.80299 51.7575 4.50076 51.9566C4.19853 52.1558 3.39712 52.4185 3.03419 52.5249L1.60643 51.9207L0.926485 50.9215C0.951688 50.5687 1.05712 49.7243 1.27723 49.169C1.55236 48.475 2.46676 48.1694 2.83295 47.9652C3.1259 47.8018 3.9146 47.9777 4.27233 48.0861C4.50932 48.2819 5.04761 48.762 5.30486 49.1161Z" fill="#3A0001"/>
<path d="M10.3344 32.0847L0 36.6778L4.01893 40.6967L13.7792 58.4948H26.9842H33.2997L52.8202 69.4033L94.7319 82.6084L134.347 86.6273L170.517 88.3497L182 86.6273L179.129 80.886L140.088 62.5137L97.6025 51.0311L62.0063 49.3087L23.5394 51.0311L10.3344 32.0847Z" fill="#3A0001"/>
<path d="M26.1013 39.9606L28.9648 41.1878L25.2832 42.415L26.1013 44.4603L27.7376 45.2784L30.601 42.824L30.1919 45.2784H32.6463L35.1007 44.4603L33.4644 42.415L32.6463 41.1878L36.3279 39.5515L35.1007 37.0972H33.4644L31.0101 39.9606L30.1919 36.2791L26.1013 37.0972V39.9606Z" fill="#3A0001"/>
<path d="M44.0541 43.9677L45.6105 44.6348L43.6094 45.3018L44.0541 46.4136L44.9435 46.8583L46.4999 45.5242L46.2776 46.8583H47.6117L48.9458 46.4136L48.0564 45.3018L47.6117 44.6348L49.6128 43.7454L48.9458 42.4113H48.0564L46.7223 43.9677L46.2776 41.9666L44.0541 42.4113V43.9677Z" fill="#3A0001"/>
<path d="M31.8082 22.9288L32.6886 25.1684L30.0155 23.8119L29.336 25.3719L29.7749 26.7151L32.678 26.9557L31.1074 28.0636L32.44 29.4121L34.2221 30.3163L34.4574 28.3069L34.6875 27.1911L37.5854 28.3254L38.2675 26.3186L37.3792 25.4196L34.4733 25.6258L36.0519 23.1774L33.3814 21.3742L31.8082 22.9288Z" fill="#3A0001"/>
<path d="M5.26717 62.7413L6.14761 64.9809L3.47449 63.6244L2.79495 65.1844L3.23384 66.5276L6.137 66.7682L4.56642 67.8761L5.899 69.2246L7.68108 70.1288L7.91643 68.1194L8.14648 67.0036L11.0443 68.1379L11.7265 66.1311L10.8381 65.2321L7.93233 65.4383L9.51087 62.9899L6.8404 61.1867L5.26717 62.7413Z" fill="#3A0001"/>
<path d="M22.8027 73.375L22.5934 76.1539L20.4886 73.3934L18.9945 74.6782L18.7759 76.2999L21.6824 78.0125L19.4867 78.3771L20.1975 80.4543L21.6007 82.2946L22.8579 80.3175L23.6595 79.2697L26.1105 81.9117L27.8324 80.1623L27.3585 78.7775L24.2243 77.5295L27.1032 75.7709L25.2262 72.5458L22.8027 73.375Z" fill="#3A0001"/>
</svg>
