<svg width="182" height="109" viewBox="0 0 182 109" fill="none" xmlns="http://www.w3.org/2000/svg">
<path d="M16.444 8.12003L47.3388 1.64209L23.4203 25.5607L19.9321 45.68L25.6533 64.6988L45.1145 77.0832L63.2845 78.8791L83.715 74.3944L71.7557 92.3333L41.8575 98.313L10.4644 84.8588L0 57.4521V32.0386L16.444 8.12003Z" fill="#3A0001"/>
<path d="M146.353 27.8078L150.939 31.631L161.416 28.5666L149.355 60.5094L148.931 64.2877L153.813 67.7822L180.752 68.2184L181.749 63.4704L180.251 58.856L173.697 59.2067L159.62 59.3341L172.434 23.9083L170.473 16.5019L146.843 25.2778L146.353 27.8078Z" fill="#3A0001"/>
<path d="M118.695 61.6995L122.381 63.8503L129.403 60.4468L124.692 84.3955L124.841 87.1092L128.697 88.9932L147.739 86.1038L147.879 82.6384L146.275 79.5635L141.696 80.5884L131.788 82.3488L136.617 55.8555L134.356 50.8673L118.74 59.8578L118.695 61.6995Z" fill="#3A0001"/>
<path d="M101.741 89.3445L103.882 90.7502L108.197 88.9337L104.614 103.133L104.617 104.764L106.868 106.015L118.369 104.888L118.563 102.816L117.699 100.923L114.923 101.392L108.931 102.132L112.665 86.4116L111.468 83.3511L101.827 88.2425L101.741 89.3445Z" fill="#3A0001"/>
</svg>
