<svg width="182" height="109" viewBox="0 0 182 109" fill="none" xmlns="http://www.w3.org/2000/svg">
<path d="M52.8175 39.72C54.5311 32.3819 66.6214 20.9043 72.4524 16.0828H74.2367C79.9487 16.0828 92.8721 16.5061 98.8697 18.1995C104.867 19.893 117.315 27.3722 122.789 30.9002L131 56.3014L125.645 76.4107C120.766 80.0563 108.58 88.1941 98.8697 91.5809C86.7317 95.8145 72.4524 87.3474 65.6688 84.8778C60.2418 82.9022 53.65 70.6484 51.0325 64.7685C50.9135 59.4766 51.1039 47.0582 52.8175 39.72Z" fill="#680100" fill-opacity="0.8"/>
<path d="M64.3311 39.7488L76.0377 26.0825H89.0452L90.9963 32.4157L80.5903 43.0821L65.957 46.082L64.3311 39.7488Z" fill="#DEE0C8"/>
<path d="M50.999 64.9236C55.6726 65.7793 65.3952 67.95 67.7354 69.9558C70.0931 71.9768 77.6994 73.8859 81.208 74.5876L96.3652 72.9031L116.153 71.6404L128.559 65.0242L125.532 76.3914C120.653 80.0369 108.467 88.1744 98.7568 91.5613C86.6189 95.7948 72.3393 87.3277 65.5557 84.8582C60.1821 82.9017 53.6677 70.8681 50.999 64.9236Z" fill="#3A0001"/>
<mask id="mask0_1811_6774" style="mask-type:alpha" maskUnits="userSpaceOnUse" x="51" y="16" width="81" height="77">
<path d="M52.8184 39.72C54.532 32.3819 66.6224 20.9043 72.4534 16.0828H74.2377C79.9497 16.0828 92.873 16.5061 98.8706 18.1995C104.868 19.893 117.316 27.3722 122.79 30.9002L131.001 56.3014L125.646 76.4107C120.767 80.0563 108.581 88.1941 98.8706 91.5809C86.7327 95.8145 72.4534 87.3474 65.6697 84.8778C60.2428 82.9022 53.651 70.6484 51.0335 64.7685C50.9145 59.4766 51.1049 47.0582 52.8184 39.72Z" fill="#680100"/>
<path d="M64.332 39.7488L76.0387 26.0825H89.0461L90.9972 32.4157L80.5913 43.0821L65.958 46.082L64.332 39.7488Z" fill="#DEE0C8"/>
</mask>
<g mask="url(#mask0_1811_6774)">
<mask id="mask1_1811_6774" style="mask-type:alpha" maskUnits="userSpaceOnUse" x="51" y="16" width="81" height="77">
<path d="M52.8194 39.72C54.533 32.3819 66.6234 20.9043 72.4544 16.0828H74.2387C79.9507 16.0828 92.874 16.5061 98.8716 18.1995C104.869 19.893 117.317 27.3722 122.791 30.9002L131.002 56.3014L125.647 76.4107C120.768 80.0563 108.582 88.1941 98.8716 91.5809C86.7336 95.8145 72.4544 87.3474 65.6707 84.8778C60.2438 82.9022 53.652 70.6484 51.0344 64.7685C50.9154 59.4766 51.1058 47.0582 52.8194 39.72Z" fill="#680100"/>
</mask>
<g mask="url(#mask1_1811_6774)">
<path d="M65.74 57.7658C64.0559 56.7553 55.2143 57.6254 51.004 58.1868L47.6357 64.5025L51.004 85.5545L93.107 101.975L131 87.6597L134.789 64.9235L131 56.5027L117.948 60.2921L100.685 61.5552C95.3524 62.678 84.1811 64.9235 82.1602 64.9235C79.634 64.9235 67.8452 59.0289 65.74 57.7658Z" fill="#3A0001" fill-opacity="0.5"/>
</g>
<path d="M67.8454 51.8712L51.4252 52.7132L43.8467 66.1866L53.1093 85.5545L85.9497 98.1857L128.474 85.5545L135.631 53.9764L128.474 48.0818L114.159 48.9239L89.7389 56.9237L67.8454 51.8712Z" fill="#3A0001" fill-opacity="0.3"/>
</g>
</svg>
