<svg width="182" height="109" viewBox="0 0 182 109" fill="none" xmlns="http://www.w3.org/2000/svg">
<path d="M16.0604 31.8465C16.5217 29.8712 19.7763 26.7817 21.3459 25.4839H21.8262C23.3638 25.4839 26.8425 25.5978 28.457 26.0537C30.0714 26.5095 33.4221 28.5227 34.8956 29.4724L37.1059 36.3098L35.6644 41.7227C34.351 42.704 31.0709 44.8945 28.457 45.8061C25.1896 46.9457 21.3459 44.6666 19.5198 44.0018C18.059 43.47 16.2846 40.1716 15.58 38.5889C15.5479 37.1644 15.5992 33.8217 16.0604 31.8465Z" fill="#3A0001"/>
<path d="M19.1582 31.8539L22.3095 28.1753H25.8109L26.3361 29.88L23.5349 32.7512L19.5959 33.5587L19.1582 31.8539Z" fill="#DEE0C8"/>
<path d="M3.07453 75.5903C3.69985 74.6791 5.96351 73.7557 7.01717 73.4079L7.26094 73.503C8.04131 73.8075 9.78431 74.5543 10.5134 75.1054C11.2425 75.6565 12.5443 77.3419 13.1041 78.1157L12.8717 82.0236L11.068 84.4853C10.2071 84.7232 8.10847 85.1853 6.60129 85.1303C4.71732 85.0616 3.21791 83.1436 2.42279 82.4446C1.7867 81.8853 1.53941 79.8599 1.49528 78.9171C1.76115 78.1878 2.44921 76.5014 3.07453 75.5903Z" fill="#3A0001"/>
<path d="M4.64739 76.2073L6.97533 74.9644L8.75238 75.6579L8.6813 76.6271L6.69101 77.5295L4.53189 77.1592L4.64739 76.2073Z" fill="#DEE0C8"/>
<path d="M63.9773 42.3713C65.1697 44.0122 65.3778 48.4948 65.3328 50.5309L65.0186 50.8942C64.0129 52.0573 61.6512 54.614 60.2504 55.537C58.8495 56.4601 55.135 57.6776 53.4529 58.171L46.8353 55.3704L43.6838 50.7395C43.8006 49.1042 44.2893 45.1903 45.3094 42.6169C46.5847 39.4 50.8229 37.9834 52.5201 37.037C53.8779 36.2799 57.5335 37.0953 59.1916 37.5976C60.29 38.5051 62.785 40.7304 63.9773 42.3713Z" fill="#3A0001"/>
<path d="M61.944 44.7107L62.6653 49.5005L60.375 52.149L58.742 51.4312L58.4025 47.4344L60.3683 43.9267L61.944 44.7107Z" fill="#DEE0C8"/>
<path d="M53.1256 24.5716C53.7358 25.4114 53.8423 27.7053 53.8193 28.7473L53.6585 28.9333C53.1438 29.5284 51.9352 30.8369 51.2183 31.3092C50.5015 31.7816 48.6005 32.4047 47.7397 32.6572L44.3531 31.224L42.7403 28.8541C42.8001 28.0172 43.0502 26.0142 43.5723 24.6973C44.2249 23.0511 46.3938 22.3261 47.2624 21.8418C47.9572 21.4543 49.828 21.8716 50.6765 22.1287C51.2386 22.5931 52.5154 23.7319 53.1256 24.5716Z" fill="#3A0001"/>
<path d="M37.8106 9.93926C38.2481 10.5412 38.3244 12.1857 38.3079 12.9327L38.1926 13.0659C37.8237 13.4926 36.9573 14.4306 36.4434 14.7692C35.9295 15.1078 34.5668 15.5544 33.9497 15.7354L31.522 14.7081L30.3658 13.0092C30.4087 12.4093 30.588 10.9734 30.9622 10.0294C31.43 8.84926 32.9849 8.32957 33.6075 7.98238C34.1056 7.70462 35.4467 8.00374 36.055 8.18801C36.4579 8.52094 37.3732 9.33728 37.8106 9.93926Z" fill="#3A0001"/>
<path d="M40.2934 84.4521C40.1215 85.8408 38.1149 88.1982 37.1332 89.2033L36.8037 89.2385C35.7489 89.3509 33.3542 89.5272 32.2134 89.3326C31.0726 89.138 28.6268 88.0021 27.5465 87.4584L25.5302 82.9298L26.123 79.1112C26.9522 78.342 29.0421 76.5994 30.7685 75.7828C32.9265 74.7621 35.7299 76.0444 37.0312 76.3668C38.0722 76.6247 39.5307 78.7576 40.1298 79.7918C40.256 80.7666 40.4654 83.0634 40.2934 84.4521Z" fill="#3A0001"/>
<path d="M38.1665 84.674L36.2738 87.428L33.8719 87.6841L33.387 86.5531L35.0985 84.3787L37.7415 83.5366L38.1665 84.674Z" fill="#DEE0C8"/>
<path d="M23.733 92.1751C24.3432 93.0149 24.4497 95.3088 24.4267 96.3508L24.2659 96.5368C23.7512 97.1319 22.5426 98.4404 21.8257 98.9127C21.1089 99.3851 19.2079 100.008 18.3471 100.261L14.9605 98.8275L13.3477 96.4576C13.4075 95.6207 13.6576 93.6178 14.1797 92.3008C14.8323 90.6546 17.0012 89.9297 17.8698 89.4453C18.5646 89.0579 20.4354 89.4751 21.2839 89.7322C21.846 90.1966 23.1228 91.3354 23.733 92.1751Z" fill="#3A0001"/>
<path d="M11.8837 46.0583L1.64258 50.6099L5.62524 54.5926L15.2974 72.23H28.3833H34.6418L53.9862 83.04L95.5197 96.1258L134.777 100.108L170.621 101.815L182 100.108L179.156 94.419L140.467 76.2126L98.3645 64.8337L63.0894 63.1268L24.9696 64.8337L11.8837 46.0583Z" fill="#3A0001"/>
</svg>
