<svg width="1512" height="356" viewBox="0 0 1512 356" fill="none" xmlns="http://www.w3.org/2000/svg">
<path d="M175.99 216.34L159.633 175.45H53.312L36.9549 216.34H0L89.3582 0H124.799L213.854 216.34H175.99ZM64.8226 147.03H148.123L106.624 43.21L64.8226 147.03Z" fill="#DEE0C8"/>
<path d="M371.052 158.05C371.052 187.34 350.151 216.34 299.262 216.34H229.896V0H292.901C345.002 0 362.571 24.65 362.571 54.81C362.571 73.66 352.575 91.35 334.703 102.37C357.724 113.39 371.052 133.98 371.052 158.05ZM286.843 29H265.64V91.35H285.632C313.196 91.35 329.553 77.43 329.553 58.58C329.553 42.05 319.86 29 286.843 29ZM290.175 118.9H265.64V187.34H291.387C325.01 187.34 334.703 171.39 335.006 154.28C335.006 132.53 318.346 118.9 290.175 118.9Z" fill="#DEE0C8"/>
<path d="M395.55 216.34V0H454.92C514.29 0 570.025 37.41 570.025 107.88C570.025 179.22 514.593 216.34 454.92 216.34H395.55ZM431.293 30.74V185.6H454.92C496.116 185.6 533.979 158.92 533.979 107.88C533.979 57.42 496.116 30.74 454.92 30.74H431.293Z" fill="#DEE0C8"/>
<path d="M594.63 216.34V0H712.461V29.58H630.373V88.74H705.495V118.32H630.373V186.76H714.885V216.34H594.63Z" fill="#DEE0C8"/>
<path d="M743.126 0H778.87V185.6H859.443V216.34H743.126V0Z" fill="#DEE0C8"/>
<path d="M867.357 216.34V184.73C873.718 187.63 880.685 189.37 887.955 189.37C902.797 189.37 914.914 182.41 914.914 145.29V0H950.657V154.86C950.657 200.68 934.603 220.4 892.196 220.69C882.805 220.69 874.627 219.24 867.357 216.34Z" fill="#DEE0C8"/>
<path d="M1139.44 216.34L1123.09 175.45H1016.76L1000.41 216.34H963.453L1052.81 0H1088.25L1177.31 216.34H1139.44ZM1028.28 147.03H1111.58L1070.08 43.21L1028.28 147.03Z" fill="#DEE0C8"/>
<path d="M1193.35 0H1229.09V185.6H1309.67V216.34H1193.35V0Z" fill="#DEE0C8"/>
<path d="M1329.13 216.34V0H1364.88V216.34H1329.13Z" fill="#DEE0C8"/>
<path d="M1395.68 0H1431.43V185.6H1512V216.34H1395.68V0Z" fill="#DEE0C8"/>
<path d="M1094.92 299.986C1094.92 302.546 1095.05 304.85 1095.05 307.41C1095.05 308.69 1095.05 309.97 1094.92 311.506C1094.8 313.81 1094.67 315.218 1094.16 317.522C1093 322.386 1093 324.306 1090.57 329.81C1090.57 330.45 1090.44 331.218 1090.32 331.986C1089.93 332.882 1089.42 333.778 1088.91 334.674C1088.65 335.186 1088.4 335.698 1088.01 336.21C1085.45 339.41 1083.92 342.61 1080.59 346.066C1079.05 347.73 1077.77 348.37 1075.6 349.394C1074.32 350.034 1073.55 349.778 1072.14 350.162C1070.99 350.418 1070.35 350.674 1069.2 350.93C1068.56 351.058 1068.17 351.186 1067.53 351.186C1066.51 351.186 1065.74 351.442 1064.84 351.442C1064.33 351.442 1063.82 351.314 1063.18 351.058C1059.21 349.394 1056.52 347.474 1053.71 345.426C1051.92 344.146 1050.38 342.482 1049.36 340.434C1048.72 339.282 1048.2 338.13 1048.08 336.722C1047.95 334.802 1047.05 333.01 1046.92 331.218C1046.41 330.194 1046.28 329.17 1046.28 328.146C1046.16 326.354 1046.16 324.69 1046.16 322.898C1046.16 320.082 1046.28 317.266 1046.41 314.45C1046.41 313.042 1046.54 311.762 1046.8 310.482C1047.18 308.178 1047.69 306.13 1048.2 303.698C1049.23 299.346 1050 296.274 1051.15 292.69C1052.04 290.13 1053.2 287.698 1054.48 285.394C1055.24 283.986 1056.14 282.706 1056.91 281.298C1057.29 280.786 1057.68 280.274 1058.06 279.89C1060.62 276.818 1063.18 274.13 1067.28 271.698C1067.66 271.442 1068.04 271.314 1068.43 271.314C1069.32 271.314 1070.09 271.698 1070.99 271.698C1071.24 271.698 1071.5 271.698 1071.63 271.698C1073.29 271.442 1074.7 271.186 1075.98 271.186H1076.11C1078.16 271.186 1080.08 271.826 1082.51 273.874C1084.56 275.538 1085.32 277.458 1086.48 279.506C1087.63 281.426 1088.91 283.218 1089.93 285.138C1090.83 286.546 1091.47 287.954 1092.11 289.49C1092.49 290.13 1092.75 290.77 1093 291.538C1093.26 292.434 1093.9 293.33 1094.03 294.354C1094.28 296.274 1094.92 298.066 1094.92 299.986ZM1082 308.946C1082.12 307.026 1082.38 305.746 1082.38 304.082C1082.38 303.826 1082.38 303.442 1082.38 303.186C1082.25 300.754 1082.12 299.346 1081.48 297.042C1080.84 294.738 1080.08 293.33 1079.18 291.41C1078.41 289.49 1077.52 287.57 1076.24 286.034C1074.83 284.498 1074.06 282.45 1072.14 281.426C1071.76 281.554 1071.24 281.682 1070.99 281.938C1069.32 283.986 1067.92 286.162 1066.64 288.466C1064.97 291.41 1063.56 294.482 1062.92 297.938C1062.67 299.474 1062.54 300.754 1062.03 302.546C1061.52 304.594 1061 305.618 1060.49 307.666C1059.98 309.714 1060.11 311.122 1059.6 312.914C1059.47 316.242 1059.34 319.57 1059.34 323.026C1059.34 325.074 1059.34 327.122 1059.47 329.17C1059.47 329.81 1059.47 330.45 1059.72 330.962C1060.49 333.138 1060.11 335.442 1061.77 337.618C1062.92 339.026 1064.2 339.538 1065.87 339.538C1066.12 339.538 1066.25 339.538 1066.51 339.538C1068.04 339.41 1068.43 338.258 1069.45 337.106C1070.99 335.442 1071.76 333.906 1072.91 332.498C1074.06 330.962 1074.96 329.17 1075.85 327.506C1076.62 325.97 1077.13 324.562 1077.9 322.642C1078.8 320.594 1079.44 319.57 1080.33 317.522C1080.59 317.01 1080.72 316.754 1080.84 316.242C1081.23 314.322 1081.48 313.17 1081.74 311.122C1081.87 310.226 1082 309.842 1082 308.946Z" fill="#D9CC46"/>
<path d="M1146.45 340.818C1146.83 341.842 1147.47 342.866 1147.98 344.018C1147.86 344.402 1147.86 344.786 1147.6 345.17C1146.7 346.45 1145.68 347.73 1144.78 349.138C1144.27 350.802 1142.99 351.698 1141.46 352.338C1139.66 353.106 1137.87 353.746 1135.95 354.642C1135.31 354.642 1134.42 354.642 1133.52 354.898C1131.47 355.666 1129.17 355.666 1126.99 355.666H1124.69C1122.77 355.026 1120.59 354.258 1118.54 353.49C1117.39 351.57 1115.09 350.418 1113.94 348.114C1113.81 347.474 1113.68 346.834 1113.68 346.194C1113.68 345.554 1113.81 344.914 1113.81 344.274C1113.81 343.25 1113.81 342.226 1114.19 341.202C1114.45 340.562 1114.45 339.794 1114.45 339.154V332.498C1114.45 324.178 1114.58 315.986 1114.58 307.794C1114.58 306.13 1114.58 304.594 1115.22 302.93C1115.34 302.418 1115.34 301.906 1115.34 301.394C1115.34 300.882 1115.34 300.37 1115.34 299.858C1115.6 297.554 1115.34 295.25 1116.11 292.946C1116.37 291.922 1116.24 290.898 1116.37 289.874C1116.37 287.826 1116.5 285.65 1116.5 283.602C1117.26 280.786 1117.14 277.842 1117.26 274.898C1117.39 274.13 1117.39 273.362 1117.65 272.722C1118.03 271.57 1118.03 270.418 1118.16 269.266C1118.42 268.242 1118.93 267.218 1118.93 266.194C1118.93 266.066 1118.93 265.938 1118.93 265.81C1118.93 265.298 1119.06 264.658 1119.31 264.146C1119.57 263.378 1119.95 262.738 1120.08 262.482C1120.98 261.33 1122 261.074 1122.9 260.69C1124.18 260.946 1125.46 261.202 1126.61 261.458C1127.5 261.97 1128.14 262.61 1128.4 263.506C1128.91 265.042 1129.3 266.578 1129.94 267.986C1130.19 268.882 1130.45 269.65 1130.45 270.418C1130.45 271.058 1130.32 271.698 1130.06 272.338C1129.81 273.234 1129.55 274.002 1129.55 274.898C1129.42 276.05 1129.42 277.202 1128.91 278.354C1128.66 278.994 1128.78 279.89 1128.66 280.53V288.466C1128.53 289.874 1128.53 291.154 1128.14 292.434C1127.89 293.074 1127.89 293.842 1127.89 294.61C1127.76 296.658 1127.76 298.706 1127.76 300.754C1127.63 302.546 1127.76 304.338 1127.12 306.002C1126.99 306.386 1126.99 306.77 1126.99 307.282C1126.99 307.794 1126.99 308.178 1126.99 308.69C1126.86 314.834 1126.74 320.85 1126.74 326.994C1126.74 329.682 1126.74 332.498 1126.86 335.186C1126.86 335.698 1126.86 336.21 1126.86 336.722C1126.86 337.746 1126.86 338.77 1126.86 339.666C1127.25 340.69 1127.63 341.33 1128.4 341.586C1128.66 341.586 1128.91 341.586 1129.04 341.586C1129.68 341.586 1130.45 341.458 1130.96 341.202C1133.39 340.178 1135.95 339.41 1138.13 338.13C1138.9 338.002 1139.54 337.874 1140.18 337.874C1142.1 337.874 1143.89 338.514 1145.55 339.282C1145.94 339.794 1146.19 340.178 1146.45 340.818Z" fill="#D9CC46"/>
<path d="M1184.95 273.234C1185.2 274.002 1185.33 274.642 1185.33 275.282C1185.33 275.666 1185.2 276.178 1185.07 276.818C1184.82 277.842 1183.92 277.842 1183.41 278.738C1183.28 278.994 1183.28 279.122 1183.28 279.25C1183.28 279.506 1183.28 279.762 1183.28 279.89C1183.28 280.018 1183.28 280.146 1183.28 280.274C1183.03 281.17 1182.64 281.554 1182.13 282.194C1182.13 282.322 1182 282.322 1181.87 282.322C1181.75 282.322 1181.75 282.322 1181.75 282.322C1180.72 282.066 1180.21 281.81 1179.31 281.554C1177.39 281.042 1176.11 281.298 1174.32 280.53C1173.3 280.018 1172.66 279.378 1172.15 278.354C1171.89 277.586 1171.63 276.818 1171.63 276.178C1171.63 275.794 1171.76 275.282 1171.89 274.77C1172.53 272.978 1173.04 271.698 1174.83 270.674C1175.6 270.162 1176.37 270.034 1177.27 270.034C1177.91 270.034 1178.67 270.162 1179.57 270.162C1181.11 270.418 1181.87 270.802 1183.28 271.57C1184.05 272.082 1184.69 272.338 1184.95 273.234ZM1176.63 338.898C1176.88 340.562 1177.39 341.458 1177.78 343.122C1177.91 343.89 1177.91 344.402 1177.91 345.042C1177.91 345.298 1177.91 345.682 1177.91 346.066C1177.78 346.706 1177.52 347.218 1177.01 347.474C1176.37 347.73 1175.86 347.73 1175.47 347.73C1174.83 347.73 1174.32 347.73 1173.68 347.602C1171.38 347.474 1169.97 346.834 1168.05 346.834C1167.15 346.45 1166.13 346.066 1165.11 345.682C1164.85 345.042 1164.47 344.402 1164.21 343.89C1163.83 342.354 1163.7 341.202 1163.44 339.41C1163.31 338.77 1163.19 338.386 1163.19 337.746C1162.8 335.186 1162.67 333.778 1162.42 331.218C1162.29 330.578 1162.29 330.194 1162.29 329.426C1162.16 326.866 1162.16 324.946 1162.16 322.898C1162.16 321.49 1162.16 320.082 1162.29 318.418C1162.29 317.394 1162.42 316.882 1162.67 315.858C1162.67 315.346 1162.8 315.09 1162.93 314.578C1163.57 310.866 1163.95 308.818 1164.85 305.106C1164.98 304.082 1165.36 303.57 1165.62 302.546C1165.62 302.418 1165.62 302.162 1165.62 301.906C1165.62 301.522 1165.62 301.266 1165.62 300.882C1165.62 300.498 1165.62 300.114 1166 299.73C1167.03 298.45 1168.05 297.938 1169.71 297.682C1169.97 297.682 1170.35 297.682 1170.61 297.682C1171.76 297.682 1172.79 298.066 1174.07 298.578C1175.35 299.218 1176.24 299.73 1176.88 301.01C1177.01 301.522 1177.14 302.034 1177.14 302.546C1177.14 303.314 1176.88 304.082 1176.88 304.978C1176.75 306.002 1176.37 306.514 1176.24 307.538C1175.86 309.074 1175.86 309.97 1175.73 311.506C1175.47 312.53 1175.47 313.042 1175.35 314.066C1175.09 315.346 1175.09 315.986 1174.96 317.138C1174.83 317.65 1174.71 317.906 1174.71 318.29L1174.83 318.418C1174.83 319.826 1175.09 320.594 1175.22 321.874C1175.22 322.642 1175.22 323.282 1175.22 323.922C1175.22 325.33 1175.09 326.482 1175.09 327.762C1175.09 328.786 1175.22 329.81 1175.35 331.09C1175.6 334.162 1175.99 335.954 1176.63 338.898Z" fill="#D9CC46"/>
<path d="M1240.41 271.954C1241.56 273.106 1241.44 274.002 1242.08 275.41C1242.08 275.41 1242.08 275.538 1242.08 275.666V275.794C1241.18 281.298 1240.92 284.37 1239.77 289.746C1238.88 294.61 1238.11 297.298 1236.83 302.034C1236.32 304.21 1235.93 305.362 1235.16 307.538C1235.04 308.05 1234.78 308.434 1234.65 308.946C1233.24 313.042 1232.48 315.346 1231.2 319.442C1230.56 321.234 1230.3 322.258 1229.79 324.05C1228.76 327.762 1228.51 329.938 1227.36 333.522C1226.59 336.082 1226.2 337.618 1225.05 339.922C1223 343.89 1221.85 346.194 1219.29 349.778C1218.78 350.418 1218.27 350.674 1217.24 350.802C1215.58 350.93 1214.3 351.186 1213.02 351.186C1212 351.186 1211.1 351.186 1209.82 350.802C1208.16 350.29 1207 349.266 1205.98 347.73C1204.83 346.066 1205.08 344.786 1204.57 342.994C1203.55 338.386 1203.16 335.698 1202.14 331.09C1202.01 330.706 1201.88 330.578 1201.88 330.194C1201.88 329.81 1201.88 329.682 1201.88 329.298C1201.63 327.506 1201.63 326.354 1201.37 324.562C1200.86 320.082 1200.48 316.242 1200.22 312.018C1200.22 309.714 1200.22 308.306 1200.22 306.002C1200.22 305.618 1200.22 305.362 1200.22 305.106C1200.22 302.93 1200.22 301.394 1200.22 299.474C1200.22 298.962 1200.22 298.322 1200.22 297.81C1200.22 296.018 1200.09 294.994 1200.09 293.202C1199.96 291.41 1199.96 290.258 1199.96 288.466C1199.96 287.57 1199.96 286.93 1199.96 286.162C1199.96 285.394 1199.96 284.754 1199.96 283.73C1200.35 278.354 1200.35 275.154 1200.99 269.906C1201.24 268.754 1201.63 268.114 1202.4 267.346C1202.91 266.706 1203.55 266.706 1204.32 266.322H1204.44C1204.44 266.322 1204.44 266.322 1204.57 266.322C1205.6 266.578 1206.24 266.45 1207.13 267.09C1208.92 268.498 1209.56 269.522 1210.97 271.314C1211.23 271.57 1211.1 271.826 1211.23 272.21C1211.36 274.13 1211.23 275.026 1211.36 276.946C1211.36 277.33 1211.74 277.586 1211.74 278.098C1211.74 278.354 1211.74 278.482 1211.74 278.738C1211.74 279.378 1211.61 280.018 1211.61 280.786C1211.61 282.834 1211.61 283.858 1211.48 285.906C1211.48 287.57 1211.36 288.594 1211.36 290.258C1211.36 290.258 1211.36 290.386 1211.36 290.514C1211.36 293.074 1211.61 294.482 1211.61 297.042C1211.74 298.834 1211.74 299.986 1211.74 301.778C1211.74 303.442 1211.74 304.338 1211.87 306.002C1211.87 307.538 1211.87 308.306 1212 309.842C1212 310.482 1212 310.994 1212 311.634C1212 311.89 1212 312.274 1212 312.53C1212 313.298 1212 314.066 1212 315.09C1212 316.37 1212.12 317.138 1212.25 318.546C1212.51 320.722 1212.64 322.002 1212.89 324.178C1213.15 325.458 1213.15 326.226 1213.4 327.506C1213.53 328.018 1213.66 328.402 1213.92 328.914C1214.04 329.17 1214.3 329.554 1214.56 329.554H1214.68C1214.94 329.554 1215.07 329.298 1215.2 329.17C1215.32 329.042 1215.45 329.042 1215.45 328.914C1216.22 325.842 1216.73 324.05 1217.5 320.978C1217.63 320.082 1217.76 319.442 1218.01 318.546C1218.78 315.986 1219.29 314.578 1220.06 312.018C1220.83 309.97 1221.21 308.69 1221.85 306.642C1223.13 302.546 1224.03 300.242 1225.18 296.146C1225.82 293.842 1225.95 292.562 1226.46 290.258C1226.97 288.082 1227.48 286.93 1227.87 284.626C1228.38 281.81 1228.38 280.018 1229.02 277.202C1229.53 274.13 1229.28 272.082 1230.81 269.394C1231.32 268.37 1232.09 267.73 1233.24 267.73C1233.5 267.73 1233.76 267.73 1234.14 267.858C1236.83 268.626 1238.24 270.034 1240.41 271.954Z" fill="#D9CC46"/>
<path d="M1303.01 275.538C1303.14 275.794 1303.14 275.922 1303.14 276.178C1303.14 277.074 1302.37 277.714 1301.73 278.482C1300.58 279.762 1299.94 280.53 1298.27 280.914C1297.76 281.042 1297.38 281.042 1296.99 281.042C1295.59 281.042 1294.43 280.53 1292.77 280.402C1292.13 280.402 1291.75 280.274 1291.11 280.274C1289.19 280.146 1288.16 280.274 1286.24 280.146C1285.22 280.018 1284.45 280.018 1283.55 279.762C1282.66 279.506 1281.63 279.378 1280.74 279.378C1279.97 279.378 1279.07 279.506 1278.31 279.506C1277.79 279.506 1277.28 279.89 1276.9 280.402C1276.13 281.682 1275.75 283.09 1275.62 284.626C1275.62 286.162 1274.98 287.698 1274.98 289.362C1274.98 289.49 1274.98 289.618 1274.98 289.746C1274.98 290.13 1274.98 290.514 1274.98 290.77C1274.98 292.306 1274.85 293.714 1274.85 295.122C1274.85 298.194 1274.72 301.266 1274.72 304.338C1274.72 305.234 1274.85 306.13 1274.85 307.026C1275.36 307.282 1275.75 307.538 1276.13 307.538C1276.77 307.538 1277.28 307.666 1277.92 307.666C1279.07 307.666 1280.23 307.538 1281.38 307.154C1282.02 306.898 1282.79 306.898 1283.55 306.77C1284.07 306.77 1284.71 306.77 1285.22 306.642C1286.75 306.13 1288.16 306.002 1289.7 306.002C1290.34 306.002 1290.98 306.002 1291.62 306.002C1292.39 306.002 1292.77 306.386 1293.41 306.77C1294.18 307.154 1294.82 307.154 1295.46 307.794C1296.48 308.818 1297.51 309.458 1297.63 310.866C1297.63 310.994 1297.63 311.122 1297.63 311.25C1297.63 312.53 1296.99 313.426 1295.97 314.322C1294.43 315.73 1292.77 315.858 1291.23 316.626C1290.85 316.882 1290.34 317.138 1289.95 317.138C1287.78 317.138 1285.73 318.29 1283.43 318.29H1283.04C1281.76 318.546 1280.48 318.802 1279.2 318.93C1277.92 319.186 1276.77 319.186 1275.87 319.186C1275.11 319.57 1274.85 320.21 1274.85 320.722C1274.85 321.618 1274.85 322.514 1274.85 323.41C1274.85 323.794 1274.85 324.306 1274.85 324.69C1274.85 326.098 1275.62 327.25 1275.62 328.658C1275.75 330.706 1276.64 332.242 1277.54 334.418C1277.79 334.93 1278.05 335.314 1278.56 335.57C1279.97 336.21 1280.74 336.722 1282.27 336.85C1282.79 336.978 1283.3 336.978 1283.81 336.978C1285.22 336.978 1286.37 336.722 1287.91 336.722C1288.03 336.722 1288.16 336.722 1288.29 336.722C1289.95 336.722 1290.72 336.85 1292.39 336.978C1293.67 337.234 1294.18 337.106 1295.33 337.618C1296.23 338.13 1296.87 338.13 1297.76 338.642C1298.91 339.41 1299.81 339.794 1300.32 340.946C1300.45 341.202 1300.45 341.33 1300.45 341.458C1300.45 342.098 1300.07 342.61 1299.94 343.25C1299.81 344.018 1300.07 344.658 1299.43 345.17C1298.4 346.066 1297.38 346.066 1296.1 346.578C1294.95 347.09 1294.31 347.858 1293.03 347.986C1290.47 348.242 1288.42 348.37 1286.24 348.37C1284.83 348.37 1283.43 348.37 1281.89 348.242C1279.97 348.114 1278.43 347.858 1276.26 347.218C1274.47 346.706 1273.19 346.194 1271.78 345.426C1269.6 344.274 1267.81 342.866 1266.66 340.69C1266.4 340.178 1265.89 339.794 1265.63 339.282C1265.25 338.386 1264.87 337.362 1264.61 336.466C1264.1 334.674 1263.59 333.394 1263.2 331.346C1262.82 329.554 1262.69 328.402 1262.43 326.61C1262.43 326.482 1262.43 326.482 1262.43 326.354C1262.43 326.226 1262.43 326.098 1262.43 325.842V325.714C1262.18 322.642 1261.92 320.85 1261.79 317.778C1261.67 315.474 1261.67 313.682 1261.67 311.762C1261.67 311.378 1261.67 311.122 1261.67 310.738C1261.67 309.074 1261.67 307.538 1262.31 306.002C1262.56 305.362 1262.43 304.466 1262.56 303.826C1262.56 302.162 1262.56 300.498 1262.69 298.962C1262.69 298.578 1262.69 298.066 1262.69 297.682C1262.69 297.554 1262.69 297.298 1262.69 297.17C1263.59 294.354 1263.33 291.538 1263.46 288.85V286.674C1263.59 285.906 1263.71 285.138 1263.84 284.498C1264.1 283.858 1264.1 283.346 1264.23 282.706V280.658C1262.82 280.146 1262.05 279.89 1260.64 279.378C1259.23 278.866 1258.34 278.994 1257.19 278.098C1255.91 277.074 1254.88 276.306 1254.88 274.77C1254.88 274.642 1254.88 274.642 1254.88 274.642C1254.88 273.362 1256.29 273.106 1257.31 272.21C1258.34 271.314 1258.72 270.546 1260 270.034C1261.15 269.522 1262.18 269.522 1263.2 269.522C1263.46 269.522 1263.71 269.522 1263.97 269.522C1265.38 269.522 1266.4 269.01 1267.94 268.754C1269.47 268.498 1270.24 267.986 1271.78 267.986C1271.78 267.986 1271.78 267.986 1271.91 267.986C1272.93 267.986 1273.57 268.498 1274.72 268.626C1275.75 268.754 1276.39 268.754 1277.41 268.754C1277.79 268.754 1278.18 268.754 1278.56 268.754C1279.59 268.754 1280.35 268.754 1281.38 268.754C1281.76 268.754 1282.15 268.754 1282.66 268.754C1283.3 268.754 1283.81 268.754 1284.45 268.882C1285.99 269.138 1286.88 269.394 1288.42 269.522C1289.95 269.65 1290.85 269.522 1292.39 269.778C1293.54 269.906 1294.18 270.29 1295.33 270.418C1295.59 270.418 1295.84 270.418 1295.97 270.418C1296.23 270.418 1296.48 270.418 1296.74 270.418C1297.12 270.418 1297.51 270.546 1297.89 270.674C1299.17 271.186 1299.68 271.954 1300.71 272.85C1301.73 273.746 1302.24 274.642 1303.01 275.538Z" fill="#D9CC46"/>
<path d="M1411.3 299.986C1411.3 302.546 1411.43 304.85 1411.43 307.41C1411.43 308.69 1411.43 309.97 1411.3 311.506C1411.17 313.81 1411.04 315.218 1410.53 317.522C1409.38 322.386 1409.38 324.306 1406.95 329.81C1406.95 330.45 1406.82 331.218 1406.69 331.986C1406.31 332.882 1405.8 333.778 1405.28 334.674C1405.03 335.186 1404.77 335.698 1404.39 336.21C1401.83 339.41 1400.29 342.61 1396.96 346.066C1395.43 347.73 1394.15 348.37 1391.97 349.394C1390.69 350.034 1389.92 349.778 1388.52 350.162C1387.36 350.418 1386.72 350.674 1385.57 350.93C1384.93 351.058 1384.55 351.186 1383.91 351.186C1382.88 351.186 1382.12 351.442 1381.22 351.442C1380.71 351.442 1380.2 351.314 1379.56 351.058C1375.59 349.394 1372.9 347.474 1370.08 345.426C1368.29 344.146 1366.76 342.482 1365.73 340.434C1365.09 339.282 1364.58 338.13 1364.45 336.722C1364.32 334.802 1363.43 333.01 1363.3 331.218C1362.79 330.194 1362.66 329.17 1362.66 328.146C1362.53 326.354 1362.53 324.69 1362.53 322.898C1362.53 320.082 1362.66 317.266 1362.79 314.45C1362.79 313.042 1362.92 311.762 1363.17 310.482C1363.56 308.178 1364.07 306.13 1364.58 303.698C1365.6 299.346 1366.37 296.274 1367.52 292.69C1368.42 290.13 1369.57 287.698 1370.85 285.394C1371.62 283.986 1372.52 282.706 1373.28 281.298C1373.67 280.786 1374.05 280.274 1374.44 279.89C1377 276.818 1379.56 274.13 1383.65 271.698C1384.04 271.442 1384.42 271.314 1384.8 271.314C1385.7 271.314 1386.47 271.698 1387.36 271.698C1387.62 271.698 1387.88 271.698 1388 271.698C1389.67 271.442 1391.08 271.186 1392.36 271.186H1392.48C1394.53 271.186 1396.45 271.826 1398.88 273.874C1400.93 275.538 1401.7 277.458 1402.85 279.506C1404 281.426 1405.28 283.218 1406.31 285.138C1407.2 286.546 1407.84 287.954 1408.48 289.49C1408.87 290.13 1409.12 290.77 1409.38 291.538C1409.64 292.434 1410.28 293.33 1410.4 294.354C1410.66 296.274 1411.3 298.066 1411.3 299.986ZM1398.37 308.946C1398.5 307.026 1398.76 305.746 1398.76 304.082C1398.76 303.826 1398.76 303.442 1398.76 303.186C1398.63 300.754 1398.5 299.346 1397.86 297.042C1397.22 294.738 1396.45 293.33 1395.56 291.41C1394.79 289.49 1393.89 287.57 1392.61 286.034C1391.2 284.498 1390.44 282.45 1388.52 281.426C1388.13 281.554 1387.62 281.682 1387.36 281.938C1385.7 283.986 1384.29 286.162 1383.01 288.466C1381.35 291.41 1379.94 294.482 1379.3 297.938C1379.04 299.474 1378.92 300.754 1378.4 302.546C1377.89 304.594 1377.38 305.618 1376.87 307.666C1376.36 309.714 1376.48 311.122 1375.97 312.914C1375.84 316.242 1375.72 319.57 1375.72 323.026C1375.72 325.074 1375.72 327.122 1375.84 329.17C1375.84 329.81 1375.84 330.45 1376.1 330.962C1376.87 333.138 1376.48 335.442 1378.15 337.618C1379.3 339.026 1380.58 339.538 1382.24 339.538C1382.5 339.538 1382.63 339.538 1382.88 339.538C1384.42 339.41 1384.8 338.258 1385.83 337.106C1387.36 335.442 1388.13 333.906 1389.28 332.498C1390.44 330.962 1391.33 329.17 1392.23 327.506C1393 325.97 1393.51 324.562 1394.28 322.642C1395.17 320.594 1395.81 319.57 1396.71 317.522C1396.96 317.01 1397.09 316.754 1397.22 316.242C1397.6 314.322 1397.86 313.17 1398.12 311.122C1398.24 310.226 1398.37 309.842 1398.37 308.946Z" fill="#D9CC46"/>
<path d="M1448.74 267.09C1449.51 268.114 1450.66 269.522 1450.66 270.802C1450.66 271.058 1450.66 271.442 1450.54 271.698C1449.77 273.618 1447.72 273.746 1445.54 274.258C1445.16 274.258 1444.9 274.386 1444.52 274.386C1443.62 274.386 1442.86 274.13 1441.96 273.618C1440.42 273.106 1439.4 272.594 1438.38 271.314C1438.12 270.93 1438.12 270.546 1438.12 270.29C1438.12 269.778 1438.25 269.266 1438.63 268.882C1439.91 267.09 1441.19 265.938 1442.86 265.17C1443.24 264.786 1443.88 264.658 1444.39 264.658C1444.65 264.658 1445.03 264.658 1445.16 264.786C1446.57 265.554 1447.59 265.682 1448.74 267.09ZM1444.9 296.914C1444.9 297.81 1444.9 298.706 1445.29 299.602C1445.67 300.498 1445.93 301.522 1445.93 302.546C1445.93 303.57 1445.67 304.594 1445.42 305.618C1444.9 307.154 1445.03 308.562 1444.78 310.354C1444.65 311.506 1444.65 312.274 1444.39 313.426C1444.26 314.45 1444.14 314.962 1444.01 315.986C1443.88 317.394 1443.75 318.034 1443.5 319.442C1443.5 319.698 1443.37 319.698 1443.37 319.954C1443.24 322.002 1443.11 323.154 1442.86 325.202C1442.73 327.25 1442.34 328.402 1442.22 330.45C1442.22 333.01 1442.22 335.058 1442.22 337.106C1442.22 341.202 1442.22 344.786 1442.22 349.778C1442.22 350.29 1442.34 350.674 1442.34 351.186C1442.34 351.314 1442.34 351.57 1442.22 351.826C1441.83 353.234 1441.7 354.386 1440.42 355.154C1439.91 355.538 1439.27 355.666 1438.76 355.666C1437.99 355.666 1437.35 355.41 1436.46 355.154C1435.43 354.77 1435.43 353.746 1434.41 353.106C1434.15 352.978 1434.02 352.978 1433.77 352.978C1433.51 352.978 1433.38 352.978 1433.26 352.978C1433 352.978 1432.87 352.978 1432.62 352.85C1431.72 352.466 1431.08 352.338 1430.31 351.698C1429.8 351.186 1429.54 350.674 1429.42 349.906C1429.03 347.986 1429.16 346.834 1429.03 344.914C1429.03 342.994 1429.03 341.458 1429.03 339.922C1429.03 337.106 1429.03 334.674 1429.16 331.218C1429.29 329.298 1429.54 328.274 1429.67 326.482C1429.8 325.586 1429.93 325.202 1429.93 324.306C1430.31 321.618 1430.44 319.954 1430.7 317.266C1430.82 316.37 1430.82 315.986 1430.82 315.09C1431.08 313.682 1431.21 313.042 1431.34 311.634C1431.46 310.994 1431.46 310.61 1431.59 309.97C1431.85 308.562 1431.85 307.538 1432.23 306.514C1432.49 306.13 1432.49 305.618 1432.49 305.106C1433 301.01 1433.9 296.914 1435.05 292.69C1435.69 290.514 1436.71 289.234 1437.86 287.058C1437.99 286.802 1438.12 286.674 1438.38 286.674C1438.5 286.674 1438.63 286.674 1438.76 286.674C1439.53 286.674 1440.3 286.546 1441.06 286.546C1441.96 286.546 1442.73 286.674 1443.62 287.186C1444.78 287.698 1444.65 288.85 1444.9 290.002C1445.03 290.514 1445.16 291.026 1445.16 291.41C1445.16 291.922 1445.03 292.434 1445.03 292.946C1445.03 294.354 1444.9 295.634 1444.9 296.914Z" fill="#D9CC46"/>
<path d="M1510.21 332.754C1510.72 333.778 1511.36 334.034 1511.87 335.058C1512 335.314 1512 335.57 1512 335.826C1512 336.082 1512 336.338 1511.87 336.594C1511.23 337.874 1510.72 338.386 1509.95 339.41C1509.69 339.666 1509.44 339.794 1509.18 339.922C1507.13 340.434 1505.98 340.434 1504.06 340.818C1502.4 341.074 1501.5 341.458 1500.09 341.586C1499.58 341.586 1498.94 341.586 1498.43 341.586C1497.66 341.586 1496.89 341.586 1496.13 341.842C1494.72 342.226 1493.31 342.354 1491.9 342.61C1490.62 342.866 1489.34 343.506 1488.06 343.634C1485.37 344.658 1482.3 344.786 1479.61 345.81C1478.97 346.066 1478.21 346.194 1477.57 346.194C1477.44 346.194 1477.18 346.194 1477.05 346.194C1476.03 346.066 1475.01 346.066 1473.98 346.066L1470.91 346.194C1470.27 346.194 1469.89 345.938 1469.63 345.17C1469.63 344.914 1469.5 344.53 1469.5 344.274C1469.37 344.146 1469.25 344.018 1469.25 343.89C1468.73 343.506 1468.22 343.506 1467.71 343.506C1467.58 343.506 1467.45 343.506 1467.45 343.506C1467.07 343.506 1466.56 343.506 1466.3 343.25C1466.05 342.994 1465.79 342.994 1465.66 342.738C1465.15 342.226 1464.89 341.97 1464.64 341.458C1464.38 341.202 1464.38 340.946 1464.38 340.562V340.434C1464.51 338.258 1464.64 336.978 1465.02 334.802C1465.41 332.242 1466.05 330.578 1466.17 328.402C1466.94 325.074 1467.45 321.746 1468.35 318.546C1468.99 315.986 1469.89 313.426 1470.53 310.866C1471.17 308.306 1474.49 297.042 1475.13 294.482C1475.77 292.05 1476.54 289.746 1477.31 287.442C1477.57 286.546 1477.95 285.778 1478.21 284.882C1478.59 284.242 1479.1 283.73 1479.61 283.218C1480.25 282.834 1480.89 282.45 1481.66 282.45C1482.56 282.45 1483.45 282.45 1484.35 282.706C1485.12 282.834 1485.89 283.218 1486.53 283.474C1488.06 284.626 1489.09 285.65 1489.73 287.698C1489.98 288.466 1489.98 289.106 1489.98 289.746C1489.98 290.77 1489.85 291.794 1489.6 293.074C1489.21 294.994 1488.45 296.274 1487.93 297.81C1487.55 299.218 1484.48 309.33 1484.48 310.866C1484.48 312.274 1483.97 313.682 1483.58 315.09C1483.07 316.37 1482.94 317.394 1482.56 318.93C1482.05 320.594 1481.92 321.746 1481.41 323.154C1481.02 324.434 1480.77 325.714 1480.51 326.994C1480.25 327.762 1480.13 328.658 1480.13 329.554C1480.13 329.938 1480.13 330.45 1480.25 330.962C1480.25 331.346 1480.64 331.602 1481.02 331.858C1481.15 331.858 1481.28 331.858 1481.41 331.858C1481.41 331.858 1481.41 331.858 1481.53 331.858C1483.07 331.346 1484.61 331.09 1486.14 330.706C1486.78 330.578 1487.29 330.322 1487.93 330.322C1489.09 330.194 1490.11 329.554 1491.26 329.426C1492.29 329.426 1493.31 329.426 1494.33 329.298C1494.97 329.298 1495.49 329.17 1496.13 328.914C1497.02 328.53 1498.17 328.658 1499.07 328.402C1499.97 328.274 1500.73 327.89 1501.63 327.762C1502.14 327.634 1502.78 327.634 1503.42 327.634C1503.93 327.634 1504.45 327.634 1504.96 327.762C1506.49 328.146 1507.65 328.402 1508.93 329.554C1509.82 330.45 1509.57 331.602 1510.21 332.754Z" fill="#D9CC46"/>
</svg>
