<svg width="182" height="109" viewBox="0 0 182 109" fill="none" xmlns="http://www.w3.org/2000/svg">
<path d="M111.567 52.1935C112.039 50.175 115.364 47.0179 116.968 45.6917H117.459C119.03 45.6917 122.585 45.8081 124.235 46.2739C125.885 46.7397 129.309 48.797 130.815 49.7674L133.073 56.7545L131.6 62.2859C130.258 63.2886 126.906 65.5271 124.235 66.4587C120.896 67.6232 116.968 65.2942 115.102 64.6149C113.609 64.0715 111.796 60.7009 111.076 59.0835C111.043 57.6278 111.096 54.212 111.567 52.1935Z" fill="#3A0001"/>
<path d="M114.733 52.2018L117.954 48.4426H121.532L122.068 50.1847L119.206 53.1186L115.181 53.9438L114.733 52.2018Z" fill="#DEE0C8"/>
<path d="M132.605 21.498C133.859 20.1068 137.868 19.0603 139.716 18.7109L140.104 18.9251C141.348 19.6108 144.109 21.2543 145.211 22.3428C146.313 23.4313 148.125 26.5532 148.892 27.9781L147.63 34.4917L144.05 38.2252C142.551 38.4329 138.922 38.7411 136.402 38.3125C133.252 37.7768 131.16 34.22 129.98 32.8683C129.036 31.7869 129.073 28.3288 129.209 26.735C129.819 25.569 131.351 22.8893 132.605 21.498Z" fill="#3A0001"/>
<path d="M135.106 22.8855L139.295 21.3167L142.126 22.8781L141.79 24.4906L138.245 25.5627L134.7 24.459L135.106 22.8855Z" fill="#DEE0C8"/>
<path d="M159.851 46.4461C160.941 48.4818 160.479 53.5688 160.112 55.8579L159.702 56.2188C158.387 57.374 155.326 59.8902 153.603 60.7135C151.88 61.5367 147.502 62.3326 145.528 62.6276L138.5 58.4416L135.665 52.7299C136.051 50.9041 137.21 46.5665 138.761 43.823C140.699 40.3937 145.698 39.4547 147.759 38.6512C149.408 38.0083 153.404 39.4957 155.196 40.3197C156.294 41.5137 158.762 44.4105 159.851 46.4461Z" fill="#3A0001"/>
<path d="M157.193 48.7675L157.262 54.2807L154.268 56.9114L152.538 55.8483L152.776 51.2886L155.538 47.6386L157.193 48.7675Z" fill="#DEE0C8"/>
<path d="M16.2061 37.7063L0 50.6712V77.8974L25.9298 96.6965C35.0052 98.8573 53.6746 103.179 55.749 103.179C57.8233 103.179 60.0706 101.882 60.9349 101.234L60.2867 99.9377L58.7619 99.1228L54.5 98.5001L51 96.0001L60.9349 99.9377L75.8445 97.993C75.8445 96.9126 75.5852 94.4925 74.548 93.4553C73.5108 92.4181 65.0405 92.591 60.9349 92.807L50.563 87.6211L58.9902 89.5658L70.0103 90.8623L80.3822 89.5658C81.0305 89.3497 81.938 88.1397 80.3822 85.0281C78.8265 81.9165 70.6586 81.1386 66.7691 81.1386L47.3218 76.6009H57.0455L66.7691 74.008L73.8998 68.822C73.2515 67.3094 71.5661 64.2843 70.0103 64.2843C68.4546 64.2843 61.151 66.0129 57.6937 66.8773L36.9499 64.2843C33.4926 61.2592 26.4483 54.8199 25.9298 53.2642C25.4112 51.7084 27.8745 50.4551 29.171 50.0229H41.4876C44.0806 51.1033 50.0444 52.7456 53.156 50.6712C56.2676 48.5968 56.1811 45.0531 55.749 43.5405L50.563 42.244L40.8394 39.0028L16.2061 37.7063Z" fill="#3A0001"/>
<path d="M86.0421 25.678L80.2012 28.1812L88.5454 75.7433L104.399 86.5908L126.094 87.4252L162.809 75.7433L180.332 61.5581L182.001 33.1878L179.497 13.1616H169.484L164.478 17.3337L167.816 39.0287L162.809 62.3925C149.18 67.1209 121.088 76.4108 117.75 75.7433C113.578 74.9089 111.909 69.0679 107.737 64.0614C104.399 60.0562 100.227 36.8036 98.5585 25.678H86.0421Z" fill="#3A0001"/>
<path d="M122.357 39.6017L125.133 39.9572L124.799 38.5908L125.02 33.5719L122.226 31.876L120.89 31.0649L118.161 26.25L110.99 18.0736L103.125 12.1356L95.6938 7.12583L93.0433 6.01552L92.9133 7.59885L98.8134 16.4998L106.327 24.3855L113.637 29.3215L121.996 33.8974L122.357 39.6017Z" fill="#3A0001"/>
</svg>
