<svg width="169" height="200" viewBox="0 0 169 200" fill="none" xmlns="http://www.w3.org/2000/svg">
<path d="M23.8978 43.7806L35.36 24.6605L54.9324 7.7132L75.0454 0L104.458 3.2591L131.059 18.5769L138.737 35.5242L147.388 39.3265L168.041 135.035V160.13L156.146 180.337H121.868L104.458 195.655L80.4522 200L61.4205 191.852L41.3074 170.559H5.40673L0 160.13L5.40673 151.331L12.5436 100.054L12.5436 73.2211L23.8978 43.7806Z" fill="#DEE0C8"/>
<path d="M148.534 89.4778L144.343 92.0414L140.676 68.4348L125.483 50.2758L110.396 37.2441L95.0993 35.8555L76.2401 40.1282C70.7919 41.7304 58.5335 45.469 53.0853 47.6054C46.275 50.2758 36.8454 63.628 34.2261 68.4348C31.6068 73.2415 34.2261 87.7687 34.2261 92.0414C34.2261 95.4595 35.9723 108.776 36.8454 115.007C35.9723 122.306 31.8047 136.905 31.8047 141.177C31.8047 145.45 40.5125 156.132 43.6557 160.404L66.8105 185.507L81.4788 192.557H87.2413L99.2902 189.779C104.878 186.219 116.997 177.923 120.769 173.223C124.541 168.523 133.167 153.817 137.009 147.052L140.676 133.7C140.676 133.7 148.245 124.963 149.001 121.502C149.757 118.041 148.102 115.855 148.534 112.337C148.965 108.818 153.673 101.353 153.446 97.9163C153.219 94.4799 150.932 89.4778 150.932 89.4778H148.534Z" fill="#DEE0C8" stroke="#282607" stroke-width="2.89691"/>
<path d="M74.1479 42.5516L91.1984 39.7513C94.8059 42.0849 102.695 46.752 105.39 46.752C108.086 46.752 116.383 52.8193 120.194 55.853L137.245 74.5549L142.758 96.3573L147.455 92.7569C149.195 92.1578 151.098 93.0352 151.773 94.7475L153.275 98.5575L147.455 116.359V123.36L138.776 136.061L135.101 148.163L120.194 172.965H153.275C155.248 169.132 159.686 160.924 161.647 158.764C163.607 156.604 162.463 143.929 161.647 137.862L153.275 90.9567L145.311 51.2525L135.101 39.7513C135.305 37.9511 134.835 33.0705 131.323 27.95C126.933 21.5493 115.906 13.7485 105.39 9.24803C94.8875 4.75338 84.0795 5.84484 74.1863 6.8439L74.1479 6.84778C64.2443 7.84789 50.0525 22.2494 43.0077 26.4499C37.3718 29.8102 28.2714 48.6522 24.4257 57.6532L18.606 75.8551V102.758L16.7683 112.159L12.0717 150.863L8.08984 158.764L10.5402 165.365H48.521C45.9685 162.664 42.0888 156.053 40.8636 153.573C39.6384 151.092 37.401 140.383 36.346 137.783C35.291 135.183 37.6985 118.46 37.6985 118.46L34.6356 75.8551C35.7587 72.9215 38.5766 65.774 40.8636 60.6535C43.1506 55.5329 50.8088 50.5258 54.9949 48.0256C57.4793 48.6256 60.6524 51.6305 66.729 49.1912L66.8197 49.1209C69.9268 46.7097 72.7322 44.5325 74.1479 42.5516Z" fill="#282607"/>
<path d="M142.5 126.452C143.132 126.452 143.86 126.821 144.49 127.731C145.116 128.636 145.55 129.965 145.55 131.502C145.55 133.039 145.116 134.368 144.49 135.272C143.86 136.183 143.132 136.552 142.5 136.552C141.868 136.552 141.14 136.183 140.51 135.272C139.884 134.368 139.45 133.039 139.45 131.502C139.45 129.965 139.884 128.636 140.51 127.731C141.14 126.821 141.868 126.452 142.5 126.452Z" stroke="#2C60BD" stroke-width="2.9"/>
<path d="M82.6409 144.521C84.6674 145.47 86.0795 145.876 86.0795 145.876C87.6754 146.411 87.1104 146.391 88.6568 145.876C88.6568 145.876 90.5143 145.049 93.0678 144.521C95.6213 143.993 114.773 144.521 114.773 144.521L111.368 150.271C109.462 152.438 107.364 154.558 105.152 156.185C102.574 158.247 97.0495 160.929 96.3661 161.123C95.3125 161.422 89.1852 161.422 84.0241 161.123C78.863 160.824 74.7676 158.889 71.8948 157.399C69.0221 155.91 62.8511 150.271 59.7656 144.521C59.7656 144.521 80.6144 143.573 82.6409 144.521Z" fill="#282607"/>
<path d="M77.1115 148.357C74.1324 146.974 68.7061 146.974 60.3008 144.846C64.1665 148.002 73.8954 153.788 75.2573 154.64C77.1724 155.836 81.8048 156.508 84.5356 157.217C86.4862 157.43 90.9295 157.212 94.8449 156.701C99.8456 156.049 101.054 154.795 103.608 153.093C105.287 151.974 111.513 147.612 114.138 144.846C104.03 147.186 98.9686 147.938 97.4222 148.454C96.0163 148.923 89.8791 150.91 87.3255 150.91C84.772 150.91 80.0906 149.74 77.1115 148.357Z" fill="#DEE0C8"/>
<path d="M56.9696 141.181L59.3984 139.66L57.6996 141.543L56.7301 143.484L56.1863 145.486L56.182 142.758L56.9696 141.181Z" fill="#282607" stroke="#282607" stroke-width="0.26038"/>
<path d="M119.09 144.862L117.961 147.496L118.284 144.981L117.974 142.833L117.28 140.879L118.838 143.117L119.09 144.862Z" fill="#282607" stroke="#282607" stroke-width="0.26038"/>
<path d="M53.9705 98.3064L46.6198 102.16L49.3389 101.615L52.0674 100.42L53.7749 100.014L53.6362 100.796L54.0016 101.768L55.4216 103.511L57.5842 104.662L61.8885 104.624L64.0266 103.044L64.7917 101.086L64.5838 99.7219L66.7429 100.483L69.8856 101.82L72.1501 101.93L67.6908 98.8142L63.4577 97.3794L56.9169 97.4383L53.9705 98.3064Z" fill="#282607" stroke="#282607" stroke-width="0.284789"/>
<path d="M104.616 98.9047L100.219 102.731L102.756 101.917L104.894 100.337L106.649 99.7356L106.075 101.106L106.549 102.675L108.253 104.013L110.217 104.776L112.954 104.556L115.202 102.807L115.66 100.825L115.261 100.048L114.669 99.4684L116.633 100.231L119.382 101.377L122.155 101.693L113.89 97.7692L107.561 97.8262L104.616 98.9047Z" fill="#282607" stroke="#282607" stroke-width="0.284789"/>
<path d="M73.4295 85.4328L74.8774 90.7948L74.7554 92.1725L63.7559 88.5283C60.508 87.8135 52.8013 86.7894 47.958 88.4114C41.9037 90.439 37.877 98.5206 39.5214 93.2187C41.1657 87.9168 49.0658 84.3438 51.3852 83.481C53.7047 82.6183 57.6166 83.0714 61.7499 83.4374C65.0566 83.7302 70.9141 84.8896 73.4295 85.4328Z" fill="#282607"/>
<path d="M101.154 84.6228L99.4374 89.9049L99.4897 91.287L110.659 88.203C113.939 87.6531 121.688 87.0196 126.443 88.8841C132.387 91.2148 136 99.4895 134.626 94.1113C133.251 88.7332 125.542 84.7657 123.269 83.7869C120.996 82.8081 117.066 83.0631 112.92 83.2199C109.602 83.3453 103.694 84.2074 101.154 84.6228Z" fill="#282607"/>
<path d="M44.505 102.007L42.4062 100.057L44.6677 101.21L46.7983 101.645L48.8771 101.654L46.2362 102.36L44.505 102.007Z" fill="#282607" stroke="#282607" stroke-width="0.26038"/>
<path d="M123.116 102.737L120.625 101.322L123.091 101.924L125.265 101.857L127.29 101.387L124.882 102.682L123.116 102.737Z" fill="#282607" stroke="#282607" stroke-width="0.26038"/>
<path d="M84.6767 116.311L83.7595 113.997L84.256 117.482L84.1306 119.601L83.433 122.484L83.1873 123.665L84.3397 122.006L84.8858 118.716L84.6767 116.311Z" fill="#282607" stroke="#282607" stroke-width="0.351784"/>
<path d="M143.2 125.002L142 129.002L143 128.502L145.5 125.002H143.2Z" fill="#DEE0C8"/>
</svg>
