<svg width="182" height="109" viewBox="0 0 182 109" fill="none" xmlns="http://www.w3.org/2000/svg">
<path d="M48.4377 8.67117C57.8056 11.2137 73.6316 27.3868 80.3736 35.1555C82.5027 29.8586 86.7607 17.57 86.7607 10.7903C86.7607 2.31575 94.2124 -0.862779 96.3415 0.196594C98.0447 1.04409 98.4705 7.61221 98.4705 10.7903L96.3415 30.9184L109.116 19.2649L125.084 0.196594V15.0278L109.116 35.1555C116.922 32.6838 128.24 30.9184 133.563 30.9184C136.118 30.9184 142.471 29.859 147.439 27.7403L143.181 37.2747L135.729 44.6903L109.116 53.1653C115.858 57.4028 129.981 66.5134 132.535 69.0559C135.729 72.234 142.116 72.234 135.729 76.4715C130.619 79.8615 113.019 70.8215 104.858 65.8777C109.116 80.0027 115.929 107.829 109.116 106.134C102.303 104.439 93.5027 82.8277 89.9543 72.234L86.7607 81.7683C81.0832 92.3621 68.6637 112.49 64.4055 108.253C60.1474 104.015 66.1798 97.3058 69.7282 94.4808L72.9218 69.0559C64.7604 75.4121 48.4377 85.794 48.4377 76.4715C48.4377 67.149 59.0829 59.8746 64.4055 57.4028C54.8248 58.4621 35.4504 59.0978 34.5987 53.1653C33.7471 47.2328 47.7279 45.0434 54.8248 44.6903H69.7282L51.6313 19.2649C46.6635 14.6743 39.0699 6.12867 48.4377 8.67117Z" fill="#3A0001"/>
</svg>
