<svg width="50" height="48" viewBox="0 0 50 48" fill="none" xmlns="http://www.w3.org/2000/svg">
<path d="M1.13354 14.7737C2.2046 10.1872 9.76148 3.01354 13.406 0H14.5213C18.0915 0 26.169 0.264603 29.9177 1.32302C33.6664 2.38143 41.4464 7.05609 44.8679 9.26112L50 25.1373L46.653 37.706C43.6034 39.9845 35.987 45.0708 29.9177 47.1876C22.3311 49.8336 13.406 44.5416 9.16603 42.9981C5.77401 41.7632 1.65391 34.1044 0.0178577 30.4294C-0.0565211 27.1219 0.062485 19.3602 1.13354 14.7737Z" fill="#766F23"/>
<path d="M8.33105 14.7917L15.6481 6.25H23.7782L24.9977 10.2083L18.4937 16.875L9.34731 18.75L8.33105 14.7917Z" fill="#580001"/>
</svg>
