<svg width="182" height="109" viewBox="0 0 182 109" fill="none" xmlns="http://www.w3.org/2000/svg">
<path d="M1.54777 50.9346C3.01022 44.6721 13.3286 34.877 18.305 30.7622H19.8278C24.7026 30.7622 35.7319 31.1235 40.8505 32.5687C45.9691 34.0139 56.5921 40.3968 61.2638 43.4076L68.2714 65.0854L63.7013 82.247C59.5373 85.3582 49.1377 92.3031 40.8505 95.1935C30.4915 98.8065 18.305 91.5805 12.5156 89.473C7.884 87.7869 2.25829 77.3294 0.0243834 72.3114C-0.0771755 67.7952 0.0853187 57.1971 1.54777 50.9346Z" fill="#3A0001"/>
<path d="M4.53237 52.6878C5.83631 47.104 15.0364 38.3705 19.4735 34.7017H20.8312C25.1777 34.7017 35.0117 35.0238 39.5755 36.3124C44.1393 37.6009 53.6111 43.2921 57.7765 45.9766L64.0245 65.305L59.9497 80.6066C56.2371 83.3806 46.9645 89.5728 39.5755 92.1499C30.3392 95.3713 19.4735 88.9285 14.3115 87.0494C10.1819 85.5461 5.16588 76.2219 3.17408 71.7477C3.08353 67.721 3.22842 58.2716 4.53237 52.6878Z" fill="#680100"/>
<path d="M46.7477 12.6411L38.6055 16.2599L41.7719 19.4263L49.4618 33.4491H59.8658H64.8416L80.2214 42.0437L113.243 52.4476L144.455 55.6141L172.952 56.9711L181.999 55.6141L179.738 51.0906L148.978 36.6155L115.504 27.5686L87.4589 26.2115L57.1517 27.5686L46.7477 12.6411Z" fill="#3A0001"/>
<path d="M27.1826 52.4295L32.6977 44.1567L40.9705 52.4295L42.1523 60.7022L39.7886 75.278L33.8796 83.1567L30.3341 79.2173L25.2129 70.9446V63.0658L27.1826 52.4295Z" fill="#3A0001"/>
</svg>
