<svg width="50" height="50" viewBox="0 0 50 50" fill="none" xmlns="http://www.w3.org/2000/svg">
<g clip-path="url(#clip0_1675_4199)">
<path d="M14.4639 1C16.2217 1 19.0983 1.06826 21.9941 1.27344C24.9158 1.48045 27.7634 1.82157 29.5156 2.33984C31.252 2.85345 34.0261 4.28861 36.8643 5.93848C39.5162 7.48011 42.1345 9.15686 43.8398 10.2988L48.7627 26.2559L45.583 38.7637C42.4072 41.2137 35.1803 46.2082 29.4561 48.2998C25.9967 49.5637 22.152 48.9557 18.5322 47.7441C16.7342 47.1423 15.0274 46.4049 13.4912 45.708C11.9817 45.0232 10.5804 44.3509 9.48633 43.9336C8.86738 43.6975 8.10731 43.0999 7.25586 42.1475C6.42207 41.2147 5.57477 40.0266 4.76562 38.7344C3.19755 36.23 1.82556 33.4206 1.01465 31.5371C0.949293 27.9903 1.08649 20.2051 2.10547 15.6338C2.33499 14.6041 2.93356 13.3536 3.82031 11.9697C4.69888 10.5986 5.8217 9.1554 7.03711 7.74609C9.34586 5.06906 11.9463 2.56982 13.7314 1H14.4639Z" stroke="#DEE0C8" stroke-width="2"/>
</g>
<defs>
<clipPath id="clip0_1675_4199">
<rect width="50" height="50" fill="white"/>
</clipPath>
</defs>
</svg>
