<svg width="268" height="64" viewBox="0 0 268 64" fill="none" xmlns="http://www.w3.org/2000/svg">
<path d="M31.194 40.4882L28.2948 32.8356H9.44949L6.55021 40.4882H0L15.8386 0H22.1204L37.9053 40.4882H31.194ZM11.4897 27.5168H26.2545L18.899 8.08679L11.4897 27.5168Z" fill="#DEE0C8"/>
<path d="M65.7685 29.5792C65.7685 35.0608 62.0638 40.4882 53.0439 40.4882H40.7488V0H51.9164C61.1511 0 64.2651 4.61327 64.2651 10.2577C64.2651 13.7855 62.4934 17.0962 59.3256 19.1586C63.4061 21.221 65.7685 25.0745 65.7685 29.5792ZM50.8426 5.42737H47.0843V17.0962H50.6278C55.5136 17.0962 58.4129 14.4911 58.4129 10.9633C58.4129 7.86969 56.6948 5.42737 50.8426 5.42737ZM51.4332 22.2522H47.0843V35.0608H51.6479C57.6076 35.0608 59.3256 32.0758 59.3793 28.8736C59.3793 24.8031 56.4264 22.2522 51.4332 22.2522Z" fill="#DEE0C8"/>
<path d="M70.1107 40.4882V0H80.634C91.1573 0 101.036 7.00131 101.036 20.1898C101.036 33.5412 91.2109 40.4882 80.634 40.4882H70.1107ZM76.4461 5.75302V34.7352H80.634C87.9358 34.7352 94.6471 29.742 94.6471 20.1898C94.6471 10.7462 87.9358 5.75302 80.634 5.75302H76.4461Z" fill="#DEE0C8"/>
<path d="M105.397 40.4882V0H126.283V5.53592H111.733V16.6078H125.048V22.1437H111.733V34.9523H126.712V40.4882H105.397Z" fill="#DEE0C8"/>
<path d="M131.718 0H138.054V34.7352H152.335V40.4882H131.718V0Z" fill="#DEE0C8"/>
<path d="M153.738 40.4882V34.5724C154.865 35.1151 156.1 35.4407 157.389 35.4407C160.02 35.4407 162.167 34.1382 162.167 27.1911V0H168.503V28.9822C168.503 37.5574 165.657 41.248 158.14 41.3023C156.476 41.3023 155.026 41.0309 153.738 40.4882Z" fill="#DEE0C8"/>
<path d="M201.965 40.4882L199.065 32.8356H180.22L177.321 40.4882H170.771L186.609 0H192.891L208.676 40.4882H201.965ZM182.26 27.5168H197.025L189.67 8.08679L182.26 27.5168Z" fill="#DEE0C8"/>
<path d="M211.519 0H217.855V34.7352H232.137V40.4882H211.519V0Z" fill="#DEE0C8"/>
<path d="M235.587 40.4882V0H241.922V40.4882H235.587Z" fill="#DEE0C8"/>
<path d="M247.383 0H253.718V34.7352H268V40.4882H247.383V0Z" fill="#DEE0C8"/>
<path d="M189.943 52.9617C189.943 53.4408 189.967 53.872 189.967 54.3511C189.967 54.5907 189.967 54.8302 189.943 55.1177C189.919 55.5489 189.895 55.8124 189.8 56.2436C189.584 57.1539 189.584 57.5132 189.129 58.5433C189.129 58.6631 189.105 58.8068 189.081 58.9505C189.009 59.1182 188.913 59.2859 188.817 59.4536C188.77 59.5494 188.722 59.6452 188.65 59.7411C188.171 60.3399 187.883 60.9388 187.26 61.5856C186.973 61.897 186.733 62.0168 186.326 62.2084C186.087 62.3282 185.943 62.2803 185.679 62.3522C185.464 62.4001 185.344 62.448 185.128 62.4959C185.009 62.5199 184.937 62.5438 184.817 62.5438C184.625 62.5438 184.482 62.5917 184.314 62.5917C184.218 62.5917 184.122 62.5678 184.002 62.5199C183.26 62.2084 182.757 61.8491 182.23 61.4658C181.894 61.2263 181.607 60.9149 181.415 60.5316C181.296 60.316 181.2 60.1004 181.176 59.8369C181.152 59.4775 180.984 59.1422 180.96 58.8068C180.864 58.6152 180.84 58.4235 180.84 58.2319C180.816 57.8965 180.816 57.5851 180.816 57.2497C180.816 56.7227 180.84 56.1957 180.864 55.6687C180.864 55.4051 180.888 55.1656 180.936 54.926C181.008 54.4948 181.104 54.1116 181.2 53.6564C181.391 52.8419 181.535 52.267 181.751 51.5962C181.918 51.1171 182.134 50.662 182.374 50.2308C182.517 49.9673 182.685 49.7277 182.829 49.4642C182.901 49.3684 182.972 49.2726 183.044 49.2007C183.523 48.6258 184.002 48.1227 184.769 47.6676C184.841 47.6197 184.913 47.5957 184.985 47.5957C185.152 47.5957 185.296 47.6676 185.464 47.6676C185.512 47.6676 185.56 47.6676 185.584 47.6676C185.895 47.6197 186.158 47.5718 186.398 47.5718H186.422C186.805 47.5718 187.165 47.6915 187.62 48.0748C188.003 48.3862 188.147 48.7456 188.362 49.1289C188.578 49.4882 188.817 49.8236 189.009 50.1829C189.177 50.4464 189.297 50.7099 189.416 50.9974C189.488 51.1171 189.536 51.2369 189.584 51.3807C189.632 51.5483 189.752 51.716 189.776 51.9077C189.824 52.267 189.943 52.6024 189.943 52.9617ZM187.524 54.6386C187.548 54.2792 187.596 54.0397 187.596 53.7283C187.596 53.6804 187.596 53.6085 187.596 53.5606C187.572 53.1054 187.548 52.8419 187.428 52.4107C187.308 51.9795 187.165 51.716 186.997 51.3567C186.853 50.9974 186.685 50.638 186.446 50.3506C186.182 50.0631 186.039 49.6798 185.679 49.4882C185.607 49.5121 185.512 49.5361 185.464 49.584C185.152 49.9673 184.889 50.3745 184.649 50.8057C184.338 51.3567 184.074 51.9316 183.955 52.5784C183.907 52.8659 183.883 53.1054 183.787 53.4408C183.691 53.8241 183.595 54.0157 183.499 54.399C183.404 54.7823 183.428 55.0458 183.332 55.3812C183.308 56.004 183.284 56.6269 183.284 57.2737C183.284 57.6569 183.284 58.0402 183.308 58.4235C183.308 58.5433 183.308 58.6631 183.356 58.7589C183.499 59.1661 183.428 59.5973 183.739 60.0046C183.955 60.2681 184.194 60.3639 184.506 60.3639C184.553 60.3639 184.577 60.3639 184.625 60.3639C184.913 60.3399 184.985 60.1243 185.176 59.9087C185.464 59.5973 185.607 59.3099 185.823 59.0463C186.039 58.7589 186.206 58.4235 186.374 58.1121C186.518 57.8246 186.614 57.5611 186.757 57.2018C186.925 56.8185 187.045 56.6269 187.212 56.2436C187.26 56.1478 187.284 56.0998 187.308 56.004C187.38 55.6447 187.428 55.4291 187.476 55.0458C187.5 54.8781 187.524 54.8063 187.524 54.6386Z" fill="#DEE0C8"/>
<path d="M199.586 60.6034C199.658 60.7951 199.778 60.9867 199.874 61.2023C199.85 61.2742 199.85 61.3461 199.802 61.4179C199.634 61.6575 199.442 61.897 199.275 62.1605C199.179 62.472 198.939 62.6396 198.652 62.7594C198.317 62.9032 197.981 63.0229 197.622 63.1906C197.502 63.1906 197.334 63.1906 197.167 63.2385C196.783 63.3823 196.352 63.3823 195.945 63.3823H195.514C195.154 63.2625 194.747 63.1188 194.364 62.975C194.148 62.6157 193.717 62.4001 193.501 61.9689C193.478 61.8491 193.454 61.7293 193.454 61.6096C193.454 61.4898 193.478 61.37 193.478 61.2502C193.478 61.0586 193.478 60.867 193.549 60.6753C193.597 60.5555 193.597 60.4118 193.597 60.292V59.0463C193.597 57.4893 193.621 55.9561 193.621 54.423C193.621 54.1116 193.621 53.8241 193.741 53.5127C193.765 53.4169 193.765 53.321 193.765 53.2252C193.765 53.1294 193.765 53.0336 193.765 52.9377C193.813 52.5066 193.765 52.0754 193.909 51.6442C193.957 51.4525 193.933 51.2609 193.957 51.0692C193.957 50.6859 193.981 50.2787 193.981 49.8954C194.124 49.3684 194.1 48.8174 194.124 48.2665C194.148 48.1227 194.148 47.979 194.196 47.8592C194.268 47.6436 194.268 47.428 194.292 47.2124C194.34 47.0208 194.436 46.8291 194.436 46.6375C194.436 46.6135 194.436 46.5896 194.436 46.5656C194.436 46.4698 194.46 46.35 194.508 46.2542C194.556 46.1105 194.627 45.9907 194.651 45.9428C194.819 45.7272 195.011 45.6793 195.178 45.6074C195.418 45.6553 195.657 45.7032 195.873 45.7512C196.041 45.847 196.161 45.9668 196.208 46.1344C196.304 46.4219 196.376 46.7094 196.496 46.9729C196.544 47.1406 196.592 47.2843 196.592 47.428C196.592 47.5478 196.568 47.6676 196.52 47.7874C196.472 47.955 196.424 48.0988 196.424 48.2665C196.4 48.4821 196.4 48.6977 196.304 48.9133C196.256 49.033 196.28 49.2007 196.256 49.3205V50.8057C196.232 51.0692 196.232 51.3088 196.161 51.5483C196.113 51.6681 196.113 51.8118 196.113 51.9556C196.089 52.3389 196.089 52.7221 196.089 53.1054C196.065 53.4408 196.089 53.7762 195.969 54.0876C195.945 54.1595 195.945 54.2313 195.945 54.3272C195.945 54.423 195.945 54.4948 195.945 54.5907C195.921 55.7405 195.897 56.8664 195.897 58.0163C195.897 58.5193 195.897 59.0463 195.921 59.5494C195.921 59.6452 195.921 59.7411 195.921 59.8369C195.921 60.0285 195.921 60.2202 195.921 60.3878C195.993 60.5795 196.065 60.6993 196.208 60.7472C196.256 60.7472 196.304 60.7472 196.328 60.7472C196.448 60.7472 196.592 60.7232 196.688 60.6753C197.143 60.4837 197.622 60.3399 198.029 60.1004C198.173 60.0764 198.293 60.0525 198.412 60.0525C198.772 60.0525 199.107 60.1722 199.418 60.316C199.49 60.4118 199.538 60.4837 199.586 60.6034Z" fill="#DEE0C8"/>
<path d="M206.791 47.955C206.839 48.0988 206.863 48.2185 206.863 48.3383C206.863 48.4102 206.839 48.506 206.815 48.6258C206.767 48.8174 206.599 48.8174 206.504 48.9851C206.48 49.033 206.48 49.057 206.48 49.0809C206.48 49.1289 206.48 49.1768 206.48 49.2007C206.48 49.2247 206.48 49.2486 206.48 49.2726C206.432 49.4403 206.36 49.5121 206.264 49.6319C206.264 49.6559 206.24 49.6559 206.216 49.6559C206.192 49.6559 206.192 49.6559 206.192 49.6559C206.001 49.608 205.905 49.56 205.737 49.5121C205.378 49.4163 205.138 49.4642 204.803 49.3205C204.611 49.2247 204.491 49.1049 204.396 48.9133C204.348 48.7695 204.3 48.6258 204.3 48.506C204.3 48.4341 204.324 48.3383 204.348 48.2425C204.467 47.9071 204.563 47.6676 204.899 47.4759C205.042 47.3801 205.186 47.3562 205.354 47.3562C205.474 47.3562 205.617 47.3801 205.785 47.3801C206.072 47.428 206.216 47.4999 206.48 47.6436C206.623 47.7394 206.743 47.7874 206.791 47.955ZM205.234 60.2441C205.282 60.5555 205.378 60.7232 205.45 61.0346C205.474 61.1784 205.474 61.2742 205.474 61.394C205.474 61.4419 205.474 61.5137 205.474 61.5856C205.45 61.7054 205.402 61.8012 205.306 61.8491C205.186 61.897 205.09 61.897 205.018 61.897C204.899 61.897 204.803 61.897 204.683 61.8731C204.252 61.8491 203.988 61.7293 203.629 61.7293C203.461 61.6575 203.27 61.5856 203.078 61.5137C203.03 61.394 202.958 61.2742 202.91 61.1784C202.838 60.8909 202.814 60.6753 202.767 60.3399C202.743 60.2202 202.719 60.1483 202.719 60.0285C202.647 59.5494 202.623 59.2859 202.575 58.8068C202.551 58.687 202.551 58.6152 202.551 58.4714C202.527 57.9923 202.527 57.633 202.527 57.2497C202.527 56.9862 202.527 56.7227 202.551 56.4113C202.551 56.2196 202.575 56.1238 202.623 55.9322C202.623 55.8363 202.647 55.7884 202.671 55.6926C202.791 54.9979 202.862 54.6146 203.03 53.9199C203.054 53.7283 203.126 53.6324 203.174 53.4408C203.174 53.4169 203.174 53.3689 203.174 53.321C203.174 53.2492 203.174 53.2013 203.174 53.1294C203.174 53.0575 203.174 52.9857 203.246 52.9138C203.437 52.6742 203.629 52.5784 203.94 52.5305C203.988 52.5305 204.06 52.5305 204.108 52.5305C204.324 52.5305 204.515 52.6024 204.755 52.6982C204.994 52.818 205.162 52.9138 205.282 53.1533C205.306 53.2492 205.33 53.345 205.33 53.4408C205.33 53.5845 205.282 53.7283 205.282 53.896C205.258 54.0876 205.186 54.1834 205.162 54.3751C205.09 54.6625 205.09 54.8302 205.066 55.1177C205.018 55.3093 205.018 55.4051 204.994 55.5968C204.947 55.8363 204.947 55.9561 204.923 56.1717C204.899 56.2675 204.875 56.3154 204.875 56.3873L204.899 56.4113C204.899 56.6748 204.947 56.8185 204.97 57.0581C204.97 57.2018 204.97 57.3216 204.97 57.4413C204.97 57.7049 204.947 57.9204 204.947 58.16C204.947 58.3516 204.97 58.5433 204.994 58.7828C205.042 59.3578 205.114 59.6931 205.234 60.2441Z" fill="#DEE0C8"/>
<path d="M217.171 47.7155C217.387 47.9311 217.363 48.0988 217.483 48.3623C217.483 48.3623 217.483 48.3862 217.483 48.4102V48.4341C217.315 49.4642 217.267 50.0392 217.052 51.0453C216.884 51.9556 216.74 52.4586 216.501 53.345C216.405 53.7522 216.333 53.9678 216.189 54.3751C216.165 54.4709 216.117 54.5428 216.093 54.6386C215.83 55.4051 215.686 55.8363 215.447 56.6029C215.327 56.9383 215.279 57.1299 215.183 57.4653C214.991 58.16 214.944 58.5672 214.728 59.238C214.584 59.7171 214.512 60.0046 214.297 60.4358C213.913 61.1784 213.698 61.6096 213.219 62.2803C213.123 62.4001 213.027 62.448 212.835 62.472C212.524 62.4959 212.285 62.5438 212.045 62.5438C211.853 62.5438 211.686 62.5438 211.446 62.472C211.135 62.3761 210.919 62.1845 210.727 61.897C210.512 61.5856 210.56 61.3461 210.464 61.0107C210.272 60.1483 210.2 59.6452 210.009 58.7828C209.985 58.711 209.961 58.687 209.961 58.6152C209.961 58.5433 209.961 58.5193 209.961 58.4475C209.913 58.1121 209.913 57.8965 209.865 57.5611C209.769 56.7227 209.697 56.004 209.649 55.2135C209.649 54.7823 209.649 54.5188 209.649 54.0876C209.649 54.0157 209.649 53.9678 209.649 53.9199C209.649 53.5127 209.649 53.2252 209.649 52.8659C209.649 52.7701 209.649 52.6503 209.649 52.5545C209.649 52.2191 209.625 52.0274 209.625 51.6921C209.602 51.3567 209.602 51.1411 209.602 50.8057C209.602 50.638 209.602 50.5183 209.602 50.3745C209.602 50.2308 209.602 50.111 209.602 49.9194C209.673 48.9133 209.673 48.3144 209.793 47.3322C209.841 47.1166 209.913 46.9968 210.057 46.8531C210.152 46.7333 210.272 46.7333 210.416 46.6615H210.44C210.44 46.6615 210.44 46.6615 210.464 46.6615C210.656 46.7094 210.775 46.6854 210.943 46.8052C211.278 47.0687 211.398 47.2603 211.662 47.5957C211.71 47.6436 211.686 47.6915 211.71 47.7634C211.734 48.1227 211.71 48.2904 211.734 48.6497C211.734 48.7216 211.805 48.7695 211.805 48.8653C211.805 48.9133 211.805 48.9372 211.805 48.9851C211.805 49.1049 211.781 49.2247 211.781 49.3684C211.781 49.7517 211.781 49.9433 211.757 50.3266C211.757 50.638 211.734 50.8297 211.734 51.1411C211.734 51.1411 211.734 51.1651 211.734 51.189C211.734 51.6681 211.781 51.9316 211.781 52.4107C211.805 52.7461 211.805 52.9617 211.805 53.2971C211.805 53.6085 211.805 53.7762 211.829 54.0876C211.829 54.3751 211.829 54.5188 211.853 54.8063C211.853 54.926 211.853 55.0219 211.853 55.1416C211.853 55.1895 211.853 55.2614 211.853 55.3093C211.853 55.4531 211.853 55.5968 211.853 55.7884C211.853 56.028 211.877 56.1717 211.901 56.4352C211.949 56.8425 211.973 57.082 212.021 57.4893C212.069 57.7288 212.069 57.8725 212.117 58.1121C212.141 58.2079 212.165 58.2798 212.213 58.3756C212.237 58.4235 212.285 58.4954 212.332 58.4954H212.356C212.404 58.4954 212.428 58.4475 212.452 58.4235C212.476 58.3996 212.5 58.3996 212.5 58.3756C212.644 57.8007 212.74 57.4653 212.883 56.8904C212.907 56.7227 212.931 56.6029 212.979 56.4352C213.123 55.9561 213.219 55.6926 213.362 55.2135C213.506 54.8302 213.578 54.5907 213.698 54.2074C213.937 53.4408 214.105 53.0096 214.321 52.243C214.44 51.8118 214.464 51.5723 214.56 51.1411C214.656 50.7339 214.752 50.5183 214.824 50.0871C214.92 49.56 214.92 49.2247 215.039 48.6977C215.135 48.1227 215.087 47.7394 215.375 47.2364C215.471 47.0447 215.614 46.925 215.83 46.925C215.878 46.925 215.926 46.925 215.998 46.9489C216.501 47.0927 216.764 47.3562 217.171 47.7155Z" fill="#DEE0C8"/>
<path d="M228.887 48.3862C228.911 48.4341 228.911 48.4581 228.911 48.506C228.911 48.6737 228.767 48.7935 228.647 48.9372C228.432 49.1768 228.312 49.3205 228 49.3924C227.905 49.4163 227.833 49.4163 227.761 49.4163C227.497 49.4163 227.282 49.3205 226.97 49.2965C226.851 49.2965 226.779 49.2726 226.659 49.2726C226.3 49.2486 226.108 49.2726 225.749 49.2486C225.557 49.2247 225.413 49.2247 225.246 49.1768C225.078 49.1289 224.886 49.1049 224.719 49.1049C224.575 49.1049 224.407 49.1289 224.263 49.1289C224.168 49.1289 224.072 49.2007 224 49.2965C223.856 49.5361 223.784 49.7996 223.76 50.0871C223.76 50.3745 223.641 50.662 223.641 50.9734C223.641 50.9974 223.641 51.0213 223.641 51.0453C223.641 51.1171 223.641 51.189 223.641 51.2369C223.641 51.5244 223.617 51.7879 223.617 52.0514C223.617 52.6263 223.593 53.2013 223.593 53.7762C223.593 53.9439 223.617 54.1116 223.617 54.2792C223.712 54.3272 223.784 54.3751 223.856 54.3751C223.976 54.3751 224.072 54.399 224.192 54.399C224.407 54.399 224.623 54.3751 224.838 54.3032C224.958 54.2553 225.102 54.2553 225.246 54.2313C225.341 54.2313 225.461 54.2313 225.557 54.2074C225.845 54.1116 226.108 54.0876 226.395 54.0876C226.515 54.0876 226.635 54.0876 226.755 54.0876C226.899 54.0876 226.97 54.1595 227.09 54.2313C227.234 54.3032 227.354 54.3032 227.473 54.423C227.665 54.6146 227.857 54.7344 227.881 54.9979C227.881 55.0219 227.881 55.0458 227.881 55.0698C227.881 55.3093 227.761 55.477 227.569 55.6447C227.282 55.9082 226.97 55.9322 226.683 56.0759C226.611 56.1238 226.515 56.1717 226.443 56.1717C226.036 56.1717 225.653 56.3873 225.222 56.3873H225.15C224.91 56.4352 224.671 56.4831 224.431 56.5071C224.192 56.555 223.976 56.555 223.808 56.555C223.665 56.6269 223.617 56.7466 223.617 56.8425C223.617 57.0101 223.617 57.1778 223.617 57.3455C223.617 57.4174 223.617 57.5132 223.617 57.5851C223.617 57.8486 223.76 58.0642 223.76 58.3277C223.784 58.711 223.952 58.9984 224.12 59.4057C224.168 59.5015 224.216 59.5734 224.311 59.6213C224.575 59.7411 224.719 59.8369 225.006 59.8608C225.102 59.8848 225.198 59.8848 225.294 59.8848C225.557 59.8848 225.773 59.8369 226.06 59.8369C226.084 59.8369 226.108 59.8369 226.132 59.8369C226.443 59.8369 226.587 59.8608 226.899 59.8848C227.138 59.9327 227.234 59.9087 227.45 60.0046C227.617 60.1004 227.737 60.1004 227.905 60.1962C228.12 60.3399 228.288 60.4118 228.384 60.6274C228.408 60.6753 228.408 60.6993 228.408 60.7232C228.408 60.843 228.336 60.9388 228.312 61.0586C228.288 61.2023 228.336 61.3221 228.216 61.4179C228.024 61.5856 227.833 61.5856 227.593 61.6814C227.378 61.7773 227.258 61.921 227.018 61.9449C226.539 61.9929 226.156 62.0168 225.749 62.0168C225.485 62.0168 225.222 62.0168 224.934 61.9929C224.575 61.9689 224.287 61.921 223.88 61.8012C223.545 61.7054 223.305 61.6096 223.042 61.4658C222.635 61.2502 222.299 60.9867 222.084 60.5795C222.036 60.4837 221.94 60.4118 221.892 60.316C221.82 60.1483 221.748 59.9566 221.7 59.789C221.604 59.4536 221.509 59.214 221.437 58.8308C221.365 58.4954 221.341 58.2798 221.293 57.9444C221.293 57.9204 221.293 57.9204 221.293 57.8965C221.293 57.8725 221.293 57.8486 221.293 57.8007V57.7767C221.245 57.2018 221.197 56.8664 221.173 56.2915C221.149 55.8603 221.149 55.5249 221.149 55.1656C221.149 55.0937 221.149 55.0458 221.149 54.9739C221.149 54.6625 221.149 54.3751 221.269 54.0876C221.317 53.9678 221.293 53.8001 221.317 53.6804C221.317 53.3689 221.317 53.0575 221.341 52.7701C221.341 52.6982 221.341 52.6024 221.341 52.5305C221.341 52.5066 221.341 52.4586 221.341 52.4347C221.509 51.9077 221.461 51.3807 221.485 50.8776V50.4703C221.509 50.3266 221.533 50.1829 221.557 50.0631C221.604 49.9433 221.604 49.8475 221.628 49.7277V49.3444C221.365 49.2486 221.221 49.2007 220.958 49.1049C220.694 49.0091 220.526 49.033 220.311 48.8653C220.071 48.6737 219.88 48.53 219.88 48.2425C219.88 48.2185 219.88 48.2185 219.88 48.2185C219.88 47.979 220.143 47.9311 220.335 47.7634C220.526 47.5957 220.598 47.452 220.838 47.3562C221.053 47.2603 221.245 47.2603 221.437 47.2603C221.485 47.2603 221.533 47.2603 221.58 47.2603C221.844 47.2603 222.036 47.1645 222.323 47.1166C222.611 47.0687 222.754 46.9729 223.042 46.9729C223.042 46.9729 223.042 46.9729 223.066 46.9729C223.257 46.9729 223.377 47.0687 223.593 47.0927C223.784 47.1166 223.904 47.1166 224.096 47.1166C224.168 47.1166 224.24 47.1166 224.311 47.1166C224.503 47.1166 224.647 47.1166 224.838 47.1166C224.91 47.1166 224.982 47.1166 225.078 47.1166C225.198 47.1166 225.294 47.1166 225.413 47.1406C225.701 47.1885 225.868 47.2364 226.156 47.2603C226.443 47.2843 226.611 47.2603 226.899 47.3082C227.114 47.3322 227.234 47.4041 227.45 47.428C227.497 47.428 227.545 47.428 227.569 47.428C227.617 47.428 227.665 47.428 227.713 47.428C227.785 47.428 227.857 47.452 227.929 47.4759C228.168 47.5718 228.264 47.7155 228.456 47.8832C228.647 48.0509 228.743 48.2185 228.887 48.3862Z" fill="#DEE0C8"/>
<path d="M249.153 52.9617C249.153 53.4408 249.177 53.872 249.177 54.3511C249.177 54.5907 249.177 54.8302 249.153 55.1177C249.129 55.5489 249.105 55.8124 249.009 56.2436C248.794 57.1539 248.794 57.5132 248.339 58.5433C248.339 58.6631 248.315 58.8068 248.291 58.9505C248.219 59.1182 248.123 59.2859 248.027 59.4536C247.979 59.5494 247.931 59.6452 247.86 59.7411C247.381 60.3399 247.093 60.9388 246.47 61.5856C246.183 61.897 245.943 62.0168 245.536 62.2084C245.296 62.3282 245.153 62.2803 244.889 62.3522C244.674 62.4001 244.554 62.448 244.338 62.4959C244.218 62.5199 244.147 62.5438 244.027 62.5438C243.835 62.5438 243.691 62.5917 243.524 62.5917C243.428 62.5917 243.332 62.5678 243.212 62.5199C242.47 62.2084 241.967 61.8491 241.44 61.4658C241.104 61.2263 240.817 60.9149 240.625 60.5316C240.505 60.316 240.41 60.1004 240.386 59.8369C240.362 59.4775 240.194 59.1422 240.17 58.8068C240.074 58.6152 240.05 58.4235 240.05 58.2319C240.026 57.8965 240.026 57.5851 240.026 57.2497C240.026 56.7227 240.05 56.1957 240.074 55.6687C240.074 55.4051 240.098 55.1656 240.146 54.926C240.218 54.4948 240.314 54.1116 240.41 53.6564C240.601 52.8419 240.745 52.267 240.961 51.5962C241.128 51.1171 241.344 50.662 241.583 50.2308C241.727 49.9673 241.895 49.7277 242.038 49.4642C242.11 49.3684 242.182 49.2726 242.254 49.2007C242.733 48.6258 243.212 48.1227 243.979 47.6676C244.051 47.6197 244.123 47.5957 244.194 47.5957C244.362 47.5957 244.506 47.6676 244.674 47.6676C244.721 47.6676 244.769 47.6676 244.793 47.6676C245.105 47.6197 245.368 47.5718 245.608 47.5718H245.632C246.015 47.5718 246.374 47.6915 246.83 48.0748C247.213 48.3862 247.357 48.7456 247.572 49.1289C247.788 49.4882 248.027 49.8236 248.219 50.1829C248.387 50.4464 248.506 50.7099 248.626 50.9974C248.698 51.1171 248.746 51.2369 248.794 51.3807C248.842 51.5483 248.962 51.716 248.986 51.9077C249.033 52.267 249.153 52.6024 249.153 52.9617ZM246.734 54.6386C246.758 54.2792 246.806 54.0397 246.806 53.7283C246.806 53.6804 246.806 53.6085 246.806 53.5606C246.782 53.1054 246.758 52.8419 246.638 52.4107C246.518 51.9795 246.374 51.716 246.207 51.3567C246.063 50.9974 245.895 50.638 245.656 50.3506C245.392 50.0631 245.249 49.6798 244.889 49.4882C244.817 49.5121 244.721 49.5361 244.674 49.584C244.362 49.9673 244.099 50.3745 243.859 50.8057C243.548 51.3567 243.284 51.9316 243.164 52.5784C243.116 52.8659 243.093 53.1054 242.997 53.4408C242.901 53.8241 242.805 54.0157 242.709 54.399C242.613 54.7823 242.637 55.0458 242.542 55.3812C242.518 56.004 242.494 56.6269 242.494 57.2737C242.494 57.6569 242.494 58.0402 242.518 58.4235C242.518 58.5433 242.518 58.6631 242.566 58.7589C242.709 59.1661 242.637 59.5973 242.949 60.0046C243.164 60.2681 243.404 60.3639 243.715 60.3639C243.763 60.3639 243.787 60.3639 243.835 60.3639C244.123 60.3399 244.194 60.1243 244.386 59.9087C244.674 59.5973 244.817 59.3099 245.033 59.0463C245.249 58.7589 245.416 58.4235 245.584 58.1121C245.728 57.8246 245.823 57.5611 245.967 57.2018C246.135 56.8185 246.255 56.6269 246.422 56.2436C246.47 56.1478 246.494 56.0998 246.518 56.004C246.59 55.6447 246.638 55.4291 246.686 55.0458C246.71 54.8781 246.734 54.8063 246.734 54.6386Z" fill="#DEE0C8"/>
<path d="M256.161 46.8052C256.305 46.9968 256.52 47.2603 256.52 47.4999C256.52 47.5478 256.52 47.6197 256.496 47.6676C256.353 48.0269 255.969 48.0509 255.562 48.1467C255.49 48.1467 255.442 48.1706 255.37 48.1706C255.203 48.1706 255.059 48.1227 254.891 48.0269C254.604 47.9311 254.412 47.8353 254.221 47.5957C254.173 47.5238 254.173 47.452 254.173 47.4041C254.173 47.3082 254.197 47.2124 254.268 47.1406C254.508 46.8052 254.748 46.5896 255.059 46.4459C255.131 46.374 255.251 46.35 255.346 46.35C255.394 46.35 255.466 46.35 255.49 46.374C255.754 46.5177 255.945 46.5417 256.161 46.8052ZM255.442 52.3868C255.442 52.5545 255.442 52.7221 255.514 52.8898C255.586 53.0575 255.634 53.2492 255.634 53.4408C255.634 53.6324 255.586 53.8241 255.538 54.0157C255.442 54.3032 255.466 54.5667 255.418 54.9021C255.394 55.1177 255.394 55.2614 255.346 55.477C255.322 55.6687 255.299 55.7645 255.275 55.9561C255.251 56.2196 255.227 56.3394 255.179 56.6029C255.179 56.6508 255.155 56.6508 255.155 56.6987C255.131 57.082 255.107 57.2976 255.059 57.6809C255.035 58.0642 254.963 58.2798 254.939 58.6631C254.939 59.1422 254.939 59.5255 254.939 59.9087C254.939 60.6753 254.939 61.3461 254.939 62.2803C254.939 62.3761 254.963 62.448 254.963 62.5438C254.963 62.5678 254.963 62.6157 254.939 62.6636C254.867 62.9271 254.843 63.1427 254.604 63.2864C254.508 63.3583 254.388 63.3823 254.292 63.3823C254.149 63.3823 254.029 63.3343 253.861 63.2864C253.67 63.2146 253.67 63.0229 253.478 62.9032C253.43 62.8792 253.406 62.8792 253.358 62.8792C253.31 62.8792 253.286 62.8792 253.262 62.8792C253.214 62.8792 253.19 62.8792 253.143 62.8552C252.975 62.7834 252.855 62.7594 252.711 62.6396C252.616 62.5438 252.568 62.448 252.544 62.3043C252.472 61.9449 252.496 61.7293 252.472 61.37C252.472 61.0107 252.472 60.7232 252.472 60.4358C252.472 59.9087 252.472 59.4536 252.496 58.8068C252.52 58.4475 252.568 58.2558 252.592 57.9204C252.616 57.7528 252.639 57.6809 252.639 57.5132C252.711 57.0101 252.735 56.6987 252.783 56.1957C252.807 56.028 252.807 55.9561 252.807 55.7884C252.855 55.5249 252.879 55.4051 252.903 55.1416C252.927 55.0219 252.927 54.95 252.951 54.8302C252.999 54.5667 252.999 54.3751 253.071 54.1834C253.119 54.1116 253.119 54.0157 253.119 53.9199C253.214 53.1533 253.382 52.3868 253.598 51.5962C253.717 51.189 253.909 50.9495 254.125 50.5422C254.149 50.4943 254.173 50.4703 254.221 50.4703C254.244 50.4703 254.268 50.4703 254.292 50.4703C254.436 50.4703 254.58 50.4464 254.724 50.4464C254.891 50.4464 255.035 50.4703 255.203 50.5662C255.418 50.662 255.394 50.8776 255.442 51.0932C255.466 51.189 255.49 51.2848 255.49 51.3567C255.49 51.4525 255.466 51.5483 255.466 51.6442C255.466 51.9077 255.442 52.1472 255.442 52.3868Z" fill="#DEE0C8"/>
<path d="M267.664 59.0943C267.76 59.2859 267.879 59.3338 267.975 59.5255C267.999 59.5734 267.999 59.6213 267.999 59.6692C267.999 59.7171 267.999 59.765 267.975 59.8129C267.855 60.0525 267.76 60.1483 267.616 60.3399C267.568 60.3878 267.52 60.4118 267.472 60.4358C267.089 60.5316 266.873 60.5316 266.514 60.6034C266.202 60.6514 266.035 60.7232 265.771 60.7472C265.675 60.7472 265.556 60.7472 265.46 60.7472C265.316 60.7472 265.172 60.7472 265.029 60.7951C264.765 60.867 264.502 60.8909 264.238 60.9388C263.999 60.9867 263.759 61.1065 263.519 61.1305C263.016 61.3221 262.441 61.3461 261.938 61.5377C261.819 61.5856 261.675 61.6096 261.555 61.6096C261.531 61.6096 261.483 61.6096 261.459 61.6096C261.268 61.5856 261.076 61.5856 260.884 61.5856L260.309 61.6096C260.19 61.6096 260.118 61.5617 260.07 61.4179C260.07 61.37 260.046 61.2981 260.046 61.2502C260.022 61.2263 259.998 61.2023 259.998 61.1784C259.902 61.1065 259.806 61.1065 259.711 61.1065C259.687 61.1065 259.663 61.1065 259.663 61.1065C259.591 61.1065 259.495 61.1065 259.447 61.0586C259.399 61.0107 259.351 61.0107 259.327 60.9628C259.231 60.867 259.184 60.819 259.136 60.7232C259.088 60.6753 259.088 60.6274 259.088 60.5555V60.5316C259.112 60.1243 259.136 59.8848 259.208 59.4775C259.279 58.9984 259.399 58.687 259.423 58.2798C259.567 57.6569 259.663 57.0341 259.83 56.4352C259.95 55.9561 260.118 55.477 260.238 54.9979C260.357 54.5188 260.98 52.4107 261.1 51.9316C261.22 51.4765 261.363 51.0453 261.507 50.6141C261.555 50.4464 261.627 50.3027 261.675 50.135C261.747 50.0152 261.843 49.9194 261.938 49.8236C262.058 49.7517 262.178 49.6798 262.322 49.6798C262.489 49.6798 262.657 49.6798 262.825 49.7277C262.969 49.7517 263.112 49.8236 263.232 49.8715C263.519 50.0871 263.711 50.2787 263.831 50.662C263.879 50.8057 263.879 50.9255 263.879 51.0453C263.879 51.2369 263.855 51.4286 263.807 51.6681C263.735 52.0274 263.591 52.267 263.496 52.5545C263.424 52.818 262.849 54.7104 262.849 54.9979C262.849 55.2614 262.753 55.5249 262.681 55.7884C262.585 56.028 262.561 56.2196 262.489 56.5071C262.394 56.8185 262.37 57.0341 262.274 57.2976C262.202 57.5372 262.154 57.7767 262.106 58.0163C262.058 58.16 262.034 58.3277 262.034 58.4954C262.034 58.5672 262.034 58.6631 262.058 58.7589C262.058 58.8308 262.13 58.8787 262.202 58.9266C262.226 58.9266 262.25 58.9266 262.274 58.9266C262.274 58.9266 262.274 58.9266 262.298 58.9266C262.585 58.8308 262.873 58.7828 263.16 58.711C263.28 58.687 263.376 58.6391 263.496 58.6391C263.711 58.6152 263.903 58.4954 264.118 58.4714C264.31 58.4714 264.502 58.4714 264.693 58.4475C264.813 58.4475 264.909 58.4235 265.029 58.3756C265.196 58.3037 265.412 58.3277 265.58 58.2798C265.747 58.2558 265.891 58.184 266.059 58.16C266.155 58.136 266.274 58.136 266.394 58.136C266.49 58.136 266.586 58.136 266.682 58.16C266.969 58.2319 267.185 58.2798 267.424 58.4954C267.592 58.6631 267.544 58.8787 267.664 59.0943Z" fill="#DEE0C8"/>
</svg>
