<svg width="150" height="205" viewBox="0 0 150 205" fill="none" xmlns="http://www.w3.org/2000/svg">
<path d="M7.09892 118.488L12.4111 111.519L7.03161 87.4176L-1.23045e-05 35.6717L23.8557 12.9969L58.723 1.59978L91.801 1.94656e-05L115.171 9.96516L139.802 59.5901L142.315 87.0424L142.428 106.174L147.776 116.367L149.844 139.4L139.732 168.586L125.423 191.118L105.932 196.914L79.5454 192.864L56.746 178.976L44.3143 162.955L39.8383 163.954L31.5704 160.92L9.17845 132.663L7.09892 118.488Z" fill="#DEE0C8"/>
<path d="M25.3073 112.617L36.2404 121.924L35.7919 92.3844L35.311 69.1775L41.8514 66.0911L61.7367 53.1583L95.7094 46.6599L115.84 51.0223L125.627 61.6698L131.746 78.5578L136.203 98.5276L135.579 106.258L140.396 122.171L141.097 135.027L136.641 157.167L129.232 172.556L118.069 184.084L103.436 187.351L85.4694 185.397L62.2704 173.767L45.6255 153.445L44.0024 156.699L40.215 157.544L35.5822 154.602L16.1 128.046L14.1787 119.438L18.8792 112.967L25.3073 112.617Z" stroke="#282607" stroke-width="2.82224"/>
<path d="M16.1539 105.623L13.2184 76.2774L35.4631 69.8664L40.2523 96.9913L37.3349 107.402L40.5242 121.691L37.3331 126.018L35.5317 122.805L29.2313 116.44L23.2382 111.452L19.0866 111.475L16.1539 105.623Z" fill="#282607"/>
<path d="M121.796 59.0908L114.652 50.5646L127.052 52.6766L130.117 56.6915L133.354 60.668L136.279 78.6304L135.539 85.8439L132.404 87.9896L127.496 77.3376L121.796 59.0908Z" fill="#282607"/>
<path d="M16.1539 105.623L13.2184 76.2774L35.4631 69.8664L40.2523 96.9913L37.3349 107.402L40.5242 121.691L37.3331 126.018L35.5317 122.805L29.2313 116.44L23.2382 111.452L19.0866 111.475L16.1539 105.623Z" stroke="#282607" stroke-width="0.352779"/>
<path d="M121.796 59.0908L114.652 50.5646L127.052 52.6766L130.117 56.6915L133.354 60.668L136.279 78.6304L135.539 85.8439L132.404 87.9896L127.496 77.3376L121.796 59.0908Z" stroke="#282607" stroke-width="0.352779"/>
<path d="M11.0418 38.9905L9.03895 45.4017L14.6658 88.4246L30.63 76.5478L47.4565 66.105L57.2448 58.1369L79.2789 51.5922L94.9648 48.9947L111.862 52.6331L119.364 55.4768L130.482 57.5136L110.68 16.5701L104.572 11.0658L96.4762 7.99306L85.0911 6.37748L70.7424 6.8692L49.5675 11.5955L39.0677 15.5657L20.3674 27.3303L11.0418 38.9905Z" fill="#2C60BD"/>
<path d="M80.0291 136.73L87.3334 132.207L93.1866 130.901L99.2534 132.981L104.762 131.751L110.422 127.958L120.485 127.7L127.932 132.724L132.702 138.708L123.175 139.75L115.027 142.111L107.721 145.007L101.007 146.506L89.9493 147.166L81.4001 150.159L71.3552 149.69L74.7353 142.972L80.0291 136.73Z" fill="#282607" stroke="#282607" stroke-width="0.352779"/>
<path d="M128.143 92.5799L124.615 93.3672L126.596 93.5098L129.195 92.9297L131.03 91.5455L128.143 92.5799Z" fill="#282607" stroke="#282607" stroke-width="0.380448"/>
<path d="M103.494 166.554L100.798 168.24L105.12 166.552L107.874 165.937L111.777 165.608L113.365 165.435L110.896 164.901L106.516 165.518L103.494 166.554Z" fill="#282607" stroke="#282607" stroke-width="0.352779"/>
<path d="M111.456 150.408L116.174 147.457L108.61 150.411L103.79 151.487L96.96 152.062L94.1813 152.366L98.5013 153.3L106.168 152.221L111.456 150.408Z" fill="#282607" stroke="#282607" stroke-width="0.617364"/>
<path d="M53.0359 111.488L49.2383 110.192L52.7873 110.374L55.7578 109.711L58.4183 108.532L55.4494 110.949L53.0359 111.488Z" fill="#282607" stroke="#282607" stroke-width="0.380448"/>
<path d="M67.0559 145.837L70.1904 143.331L68.1288 146.226L67.0911 149.087L66.6547 151.964L66.2127 148.161L67.0559 145.837Z" fill="#282607" stroke="#282607" stroke-width="0.380448"/>
<path d="M53.1135 108.715L60.1735 103.326L63.4242 101.754L69.4785 100.403L74.0318 100.87L78.9453 102.951L77.0823 101.248L73.1328 98.7398L70.239 98.1143L66.5831 97.8709L71.5616 97.3955L74.7473 98.3795L78.9453 102.951L72.1488 101.925L67.1252 102.199L63.2908 103.055L59.3229 105.211L53.1135 108.715Z" fill="#282607"/>
<path d="M78.9453 102.951L74.0318 100.87L69.4785 100.403L63.4242 101.754L60.1735 103.326L53.1135 108.715L59.3229 105.211L63.2908 103.055L67.1252 102.199L72.1488 101.925L78.9453 102.951ZM78.9453 102.951L74.7473 98.3795L71.5616 97.3955L66.5831 97.8709L70.239 98.1143L73.1328 98.7398L77.0823 101.248L78.9453 102.951Z" stroke="#282607" stroke-width="0.413549"/>
</svg>
