<svg width="143" height="200" viewBox="0 0 143 200" fill="none" xmlns="http://www.w3.org/2000/svg">
<path d="M1.05535 102.249L7.73924 96.6365V72.0827L12.1365 20.3445L40.2792 3.50768L76.6888 0L109.229 5.61228L129.808 20.3445L143 73.8366L139.482 101.021L135.437 119.612L138.427 130.661L135.437 153.461L119.255 179.593L100.434 198.359L80.2066 199.762L55.4059 190.116L36.2337 171.701L27.615 153.461H23.0418L15.6544 148.725L0 116.455L1.05535 102.249Z" fill="#DEE0C8"/>
<path d="M20.0517 100.495L28.6704 111.895L34.6507 83.132L39.2239 60.5075L46.2596 58.929L68.4219 50.686L102.897 51.7383L121.541 60.3321L128.753 72.7843L131.039 90.4981V110.843L128.753 118.209L129.984 134.695L127.873 147.322L118.727 167.842L108.173 181.172L94.8057 189.941H79.8549L62.7934 184.153L42.7417 167.842L30.957 144.516L28.6704 147.322H24.8008L20.9311 143.464L7.73926 113.473V104.704L13.7196 99.4427L20.0517 100.495Z" stroke="#282607" stroke-width="2.81427"/>
<path d="M12.6641 91.7257L16.1819 62.612L39.2237 61.2089L37.9925 88.5688L32.8916 98.0396V112.596L28.8461 116.104L27.7908 112.596L23.0417 105.055L18.2926 98.9165L14.2471 98.0396L12.6641 91.7257Z" fill="#282607"/>
<path d="M125.587 69.452L120.486 59.6305L132.095 64.3659L134.205 68.9258L136.492 73.4858L135.437 91.5504L133.15 98.3903L129.632 99.7934L127.17 88.3934L125.587 69.452Z" fill="#282607"/>
<path d="M12.6641 91.7257L16.1819 62.612L39.2237 61.2089L37.9925 88.5688L32.8916 98.0396V112.596L28.8461 116.104L27.7908 112.596L23.0417 105.055L18.2926 98.9165L14.2471 98.0396L12.6641 91.7257Z" stroke="#282607" stroke-width="0.351784"/>
<path d="M125.587 69.452L120.486 59.6305L132.095 64.3659L134.205 68.9258L136.492 73.4858L135.437 91.5504L133.15 98.3903L129.632 99.7934L127.17 88.3934L125.587 69.452Z" stroke="#282607" stroke-width="0.351784"/>
<path d="M22.1618 25.9568L18.8198 31.7445L14.9502 74.7135L33.067 66.6459L51.7116 60.1567L62.9686 54.5444L85.8346 52.9659L101.665 53.8429L117.319 61.0336L124.003 65.4182L134.381 69.8028L124.003 25.7815L119.254 19.1169L112.042 14.3815L101.313 10.3477L87.2417 7.71692H65.607L54.5258 9.29537L33.7706 16.6615L22.1618 25.9568Z" fill="#2C60BD"/>
<path d="M68.0696 135.747L76.1606 132.941H82.1409L87.5936 136.273H93.2221L99.5542 133.818L109.404 135.747L115.56 142.236L118.902 149.076L109.404 148.024L100.961 148.55L93.2221 149.778H86.3623L75.457 148.024L66.4865 149.076L56.8125 146.446L61.5616 140.658L68.0696 135.747Z" fill="#282607" stroke="#282607" stroke-width="0.351784"/>
<path d="M124.486 103.325H120.882L122.779 103.892H125.434L127.521 102.947L124.486 103.325Z" fill="#282607" stroke="#282607" stroke-width="0.379374"/>
<path d="M84.4286 169.771L81.4385 170.824L86.0117 170.122H88.8259L92.6955 170.648L94.2786 170.824L91.992 169.771L87.5947 169.421L84.4286 169.771Z" fill="#282607" stroke="#282607" stroke-width="0.351784"/>
<path d="M95.6852 155.829L100.918 153.987L92.9149 155.215L87.9899 155.215L81.2181 154.294L78.4478 153.987L82.4493 155.829L90.1446 156.442L95.6852 155.829Z" fill="#282607" stroke="#282607" stroke-width="0.615621"/>
<path d="M47.2835 105.406L43.8691 103.325L47.2835 104.271H50.3185L53.1638 103.703L49.7494 105.406H47.2835Z" fill="#282607" stroke="#282607" stroke-width="0.379374"/>
<path d="M53.4657 141.775L57.0605 140.022L54.4254 142.385L52.7939 144.937L51.7442 147.634L52.1401 143.848L53.4657 141.775Z" fill="#282607" stroke="#282607" stroke-width="0.379374"/>
<path d="M56.9574 98.7859L50.3184 102.19L52.7671 101.723L55.2296 100.67L56.7677 100.32L56.6367 101.021L56.9574 101.898L58.2197 103.477L60.1546 104.529H64.0242L65.959 103.126L66.6626 101.372L66.4867 100.144L68.4215 100.846L71.2357 102.073L73.2705 102.19L69.2871 99.3533L65.4933 98.0294H59.613L56.9574 98.7859Z" fill="#282607" stroke="#282607" stroke-width="0.379374"/>
<path d="M102.482 99.7314L98.499 103.136L100.786 102.424L102.72 101.021L104.303 100.495L103.776 101.723L104.19 103.136L105.711 104.353L107.47 105.055L109.932 104.879L111.967 103.325L112.394 101.547L112.043 100.846L111.515 100.319L113.274 101.021L115.736 102.073L118.226 102.379L110.829 98.7857H105.138L102.482 99.7314Z" fill="#282607" stroke="#282607" stroke-width="0.379374"/>
<path d="M56.7673 95.9487L51.4561 99.3532L56.957 96.8944H68.1485L71.9423 98.0292H73.6495L69.2866 95.7595L56.7673 95.9487Z" fill="#282607" stroke="#282607" stroke-width="0.379374"/>
<path d="M103.811 95.9486L97.3613 100.488L101.914 98.4074L105.518 97.0834H114.243L118.037 99.3531L120.313 99.7314L117.658 97.4617L113.674 95.7595L103.811 95.9486Z" fill="#282607" stroke="#282607" stroke-width="0.379374"/>
</svg>
