<svg width="136" height="63" viewBox="0 0 136 63" fill="none" xmlns="http://www.w3.org/2000/svg">
<path d="M0 9.45L8.41905 0L114.629 3.78L136 9.45V49.77L123.048 63H25.9048L0 49.77V9.45Z" fill="#DEE0C8"/>
<path d="M9 14.2L16.2429 7L107.614 9.88L126 14.2V44.92L114.857 55H31.2857L9 44.92V14.2Z" stroke="#282607" stroke-width="2.11"/>
<path d="M35.566 43.001C35.695 43.345 35.781 43.603 35.781 43.775C35.781 44.033 35.652 44.162 35.394 44.549C35.265 44.764 34.577 45.022 34.319 45.022C33.158 45.108 32.341 45.194 31.395 45.194C30.879 45.194 30.32 45.151 29.632 45.065C28.6 44.936 28.041 44.592 27.138 44.033C26.708 43.775 26.622 43.431 26.321 43.044C25.762 42.313 25.332 41.797 24.945 41.109C24.601 40.464 24.257 39.819 23.956 39.131C23.612 38.486 23.354 37.755 23.225 37.067C23.139 36.68 23.01 36.293 22.967 35.906C22.924 35.519 22.881 35.132 22.709 34.745C22.666 34.659 22.709 34.53 22.666 34.444C22.666 33.842 22.623 33.326 22.623 32.724C22.623 32.552 22.623 32.423 22.623 32.251C22.666 31.606 22.752 31.262 22.838 30.617C22.881 30.23 22.967 29.972 22.967 29.585C23.096 27.263 24.171 25.199 26.106 23.221C27.224 22.06 27.568 21.673 28.729 20.942C29.933 20.125 31.137 19.91 32.083 19.394C32.169 19.308 32.212 19.308 32.341 19.308C32.427 19.308 32.47 19.308 32.556 19.394C33.072 19.738 33.459 19.824 33.846 20.34C34.061 20.555 33.932 20.813 34.018 21.157C34.061 21.372 34.147 21.458 34.233 21.716C34.233 21.759 34.276 21.802 34.276 21.845C34.276 21.845 34.276 21.845 34.276 21.888C34.233 21.974 34.233 22.017 34.19 22.146C34.061 22.404 34.061 22.576 33.846 22.834C32.04 24.812 30.105 24.296 28.815 26.919C28.17 28.08 27.611 30.402 27.439 32.294C27.439 32.466 27.439 32.638 27.439 32.81C27.439 33.369 27.525 33.842 27.568 34.53C27.611 34.745 27.611 34.874 27.654 35.089C27.826 35.863 27.826 36.336 28.041 37.11C28.256 37.841 28.514 38.185 28.772 38.873C28.858 39.045 28.858 39.174 28.944 39.303C29.374 39.948 29.589 40.378 30.148 40.894C30.406 41.109 30.621 41.152 30.965 41.195C31.739 41.281 31.997 41.41 32.728 41.582C33.416 41.754 33.889 41.668 34.534 42.012C35.05 42.27 35.222 42.657 35.566 43.001ZM51.4256 43.13C52.1136 43.603 52.9736 43.947 53.4466 44.85C53.4036 45.323 53.4036 45.882 53.3606 46.355C53.2746 46.699 53.0596 46.914 52.7156 47.172C52.5006 47.215 52.2856 47.215 52.1136 47.258C51.6836 47.258 51.2966 47.258 50.9526 47.43C50.2646 47.473 49.5766 47.645 48.8886 47.817C48.4156 47.903 47.9426 48.032 47.4696 48.075C46.9966 48.161 46.4806 48.075 46.0076 48.247C45.9646 48.247 45.9216 48.29 45.8786 48.29C45.7926 48.29 45.7496 48.247 45.7066 48.247C45.4486 48.161 45.1906 48.161 44.9326 48.161C44.6746 48.161 44.4166 48.161 44.2016 48.161C43.9866 48.161 43.8146 48.161 43.5996 48.118C43.2126 47.903 42.7396 47.688 42.2236 47.473C42.0086 47.215 41.6646 46.871 41.4066 46.57C41.1916 46.269 41.0196 45.968 40.9766 45.624C40.9336 45.366 40.9336 45.108 40.9336 44.893C40.9336 43.689 40.9766 42.485 41.0196 41.324C41.0196 41.195 41.0196 41.023 41.0196 40.894C41.0196 40.851 41.0196 40.765 41.0196 40.722C41.4496 39.862 41.1486 38.873 41.4926 37.97C41.5356 37.497 41.5356 36.981 41.5786 36.508C41.6216 35.82 41.5786 35.132 41.7936 34.444C41.8796 34.014 41.8796 33.541 41.8796 33.111C41.9226 32.724 41.9226 32.337 42.0516 31.95C42.1376 31.606 42.1376 31.262 42.1376 30.918C42.1376 30.789 42.1376 30.617 42.1376 30.488C42.1376 30.359 42.1376 30.23 42.1376 30.101C42.1376 29.8 42.1806 29.542 42.2236 29.284C42.4386 28.338 42.4386 27.349 42.4816 26.36C42.4816 25.887 42.4816 25.457 42.6536 25.027C42.6966 24.941 42.6966 24.855 42.6966 24.726C42.6966 24.64 42.6966 24.554 42.6966 24.468C42.7396 23.78 42.6966 23.049 42.9546 22.404C42.9976 22.232 42.9976 22.017 42.9976 21.802C43.0406 21.114 43.0836 20.426 43.0836 19.781C43.0836 19.351 43.0406 18.921 42.9976 18.491C43.4706 17.803 43.5566 17.717 44.3736 17.029C44.5886 16.986 44.7606 16.943 44.9756 16.943L45.4056 16.986C46.1796 17.287 46.1796 17.287 46.7816 17.846C46.9966 18.319 47.2546 18.792 47.5126 19.308V20.598C47.5126 21.458 47.4696 22.275 47.4696 23.135C47.4696 23.35 47.4696 23.522 47.4266 23.737C47.1256 24.855 47.2116 25.973 47.1686 27.091C47.1256 27.564 47.1256 27.994 46.9966 28.424C46.9106 28.725 46.9106 29.112 46.9106 29.456C46.8676 30.144 46.9106 30.832 46.6526 31.52C46.6526 31.95 46.6096 32.38 46.5666 32.853C46.5666 32.982 46.5666 33.068 46.5666 33.197C46.5666 33.326 46.5666 33.455 46.5666 33.584C46.5666 33.971 46.5236 34.358 46.3516 34.745C46.3516 35.132 46.3516 35.519 46.3086 35.906C46.2226 36.508 46.3086 37.11 46.0936 37.669C46.0506 37.755 46.0506 37.884 46.0506 38.013C46.0506 38.142 46.0506 38.271 46.0506 38.4C46.0076 39.432 45.9646 40.464 45.9646 41.496C45.9646 41.926 45.9216 42.313 45.7926 42.7C45.7496 42.786 45.7496 42.829 45.7496 42.915C45.7496 43.087 45.7926 43.259 45.7926 43.431C45.8786 43.517 46.0076 43.646 46.1366 43.689C46.2656 43.732 46.3946 43.732 46.5666 43.732L47.2976 43.603C47.7276 43.431 48.1576 43.388 48.5876 43.388C48.8456 43.345 49.1036 43.388 49.3186 43.302C49.7486 43.13 50.1356 43.13 50.5656 43.13C50.8666 43.13 51.1246 43.13 51.4256 43.13ZM72.0723 28.037C72.1153 28.51 72.1153 28.682 72.1153 29.155C72.1153 29.241 72.1153 29.327 72.1153 29.413C72.1153 29.628 72.1153 29.843 72.0723 30.101C72.0723 30.187 72.0293 30.273 72.0293 30.359C72.0293 30.531 72.0723 30.703 72.0723 30.875C72.0723 30.918 72.0723 30.918 72.0723 30.961C72.0293 31.778 72.0293 32.251 71.9863 33.068C71.9003 34.444 71.8143 35.218 71.7283 36.594C71.7283 36.766 71.6853 36.852 71.6853 37.024C71.5563 37.712 71.5133 38.099 71.3843 38.787C71.2123 39.733 71.1693 40.335 70.8683 41.238C70.6103 41.926 70.4383 42.442 69.9653 42.915C69.7073 43.13 69.4923 43.388 69.3203 43.689C69.2343 43.818 69.1483 43.947 69.0193 44.033C68.7183 44.205 68.5033 44.463 68.2883 44.764C68.0733 45.065 67.7723 45.237 67.3853 45.495C66.6973 45.968 66.6543 46.097 65.8803 46.398C65.7083 46.484 65.3213 46.527 64.8913 46.527C64.7623 46.527 64.6333 46.527 64.5473 46.527C63.9453 46.484 63.6013 46.484 62.9993 46.269C62.1393 45.968 61.3653 45.925 60.8493 45.237C60.7633 45.151 60.2043 44.678 60.2043 44.592C60.1183 44.033 59.9463 43.603 59.8173 43.001C59.6883 42.442 59.6453 42.141 59.5163 41.582C59.3873 41.023 59.3873 40.679 59.2583 40.12C59.1723 39.647 59.0863 39.432 59.0003 38.959C58.9143 38.486 58.9573 38.228 58.9143 37.755C58.8283 36.121 58.7423 35.132 58.7423 33.584C58.7423 33.455 58.7423 33.326 58.7423 33.197C58.7423 31.735 58.8713 30.918 59.0003 29.499C59.0433 29.198 59.0863 29.069 59.1293 28.768C59.1723 28.553 59.1723 28.424 59.2153 28.209C59.4303 27.177 59.5593 26.618 59.7743 25.586C59.9033 25.07 59.9893 24.812 60.1183 24.296C60.2473 23.866 60.2903 23.565 60.4193 23.178C60.9783 21.458 61.8383 20.082 62.6123 19.007C62.7413 18.878 62.8703 18.706 62.9993 18.577C63.1283 18.405 63.2143 18.233 63.3433 18.104C64.7193 17.072 64.4613 16.986 65.3643 16.9C65.4073 16.9 65.4503 16.9 65.4933 16.9C66.2243 16.9 67.6863 17.373 68.0733 17.803C68.2883 18.061 68.5033 18.362 68.8043 18.534C69.0623 18.663 69.3633 18.706 69.6213 18.835C69.8793 19.007 70.1373 19.179 70.2233 19.48C70.3523 20.125 70.6963 20.684 70.9543 21.243C71.1693 21.716 71.3843 22.146 71.5563 22.619C71.6423 22.92 71.7283 23.178 71.7283 23.479C71.8143 24.253 71.9863 24.898 72.0723 25.844C72.0723 26.016 72.0723 26.231 72.0723 26.36C72.0723 26.79 72.0723 27.134 72.0723 27.564C72.0723 27.736 72.0723 27.865 72.0723 28.037ZM67.8153 25.242C67.7293 24.554 67.4713 23.35 66.8693 22.404C66.5683 21.931 66.3103 21.759 65.7943 21.759H65.7513C65.5793 21.759 65.0633 22.275 65.0203 22.447C64.7623 23.307 64.4183 24.21 64.3323 24.64C64.0313 25.801 63.9023 26.489 63.6443 27.65C63.4723 28.338 63.6013 28.983 63.4723 29.628C63.3863 30.402 63.4293 30.574 63.3863 31.305C63.3863 31.391 63.3863 31.434 63.3863 31.52C63.3863 31.735 63.3863 31.907 63.3863 32.079C63.3863 32.165 63.3863 32.251 63.3863 32.337C63.3433 32.853 63.2143 33.154 63.2143 33.67C63.2143 33.885 63.2143 34.057 63.2143 34.272C63.2143 35.175 63.2573 35.863 63.3003 36.895C63.3003 37.153 63.3433 37.282 63.3863 37.497C63.5153 38.529 63.5153 39.174 63.7303 40.421C63.7733 40.722 63.8593 41.539 64.8053 41.539C64.8483 41.539 64.8483 41.539 64.8913 41.539C65.2353 41.539 65.9663 41.023 66.0953 40.636C66.2673 40.034 66.4393 39.432 66.5253 39.045C66.6113 38.486 66.6973 38.056 66.8263 37.454C66.9983 36.465 67.0413 35.949 67.2133 34.96C67.2133 34.831 67.2133 34.788 67.2563 34.659C67.3423 34.057 67.4283 33.713 67.4713 33.068C67.5143 32.251 67.5143 31.821 67.5573 31.004C67.5573 30.789 67.5573 30.617 67.6003 30.402C67.6433 29.843 67.6863 29.499 67.7293 28.94C67.7723 27.994 67.8583 27.22 67.8583 26.36C67.8583 26.016 67.8583 25.629 67.8153 25.242ZM90.9937 29.198C91.2517 29.585 91.3377 29.843 91.3807 30.316C91.3807 30.359 91.3807 30.402 91.3807 30.402C91.3807 30.703 91.2517 30.875 91.2087 31.176C91.2087 31.219 91.2087 31.219 91.2087 31.219C91.2087 31.262 91.2087 31.305 91.2087 31.305C91.2087 31.348 91.2087 31.348 91.2087 31.348C91.0367 32.122 90.9507 32.681 90.7357 33.326C90.5207 33.971 90.3057 34.616 90.1337 35.304C89.9617 35.949 89.7037 36.465 89.4457 37.196C89.3167 37.626 89.1877 37.841 89.1017 38.271C88.8437 39.131 88.7577 39.604 88.5427 40.507C88.3707 41.238 88.2847 41.625 88.1127 42.356C88.1127 42.485 88.0697 42.528 88.0267 42.657C87.5537 43.689 87.4247 44.506 86.8227 45.323C86.7367 45.452 86.6937 45.581 86.5647 45.71C86.5647 45.753 86.5217 45.753 86.4357 45.753C86.4357 45.753 86.4357 45.753 86.3927 45.753C85.7907 45.667 85.2317 45.495 84.8017 45.495C84.4577 45.495 84.1997 45.366 83.9417 45.28C83.5117 45.108 83.0817 44.893 82.9097 44.377C82.8667 44.162 82.8237 43.99 82.8237 43.861C82.8237 43.431 82.9957 43.087 83.0387 42.571C83.1677 41.883 83.3397 41.496 83.5117 40.765C83.5547 40.593 83.5547 40.464 83.5977 40.292C84.1137 38.744 84.4147 37.884 84.9737 36.336C85.1887 35.691 85.4037 35.218 85.5757 34.702C85.7477 34.143 85.7047 34.186 85.8767 33.67C85.9197 33.541 85.9627 33.455 85.9627 33.369C85.9627 33.24 85.9197 33.111 85.9197 33.025C85.8767 32.896 85.7907 32.724 85.7047 32.595C85.1027 32.509 84.5867 32.552 83.9847 32.509C83.8127 32.509 83.6837 32.509 83.5117 32.509C83.1677 32.509 82.8667 32.509 82.5657 32.38C82.4797 32.337 82.3937 32.294 82.2647 32.294C81.9207 32.251 81.5767 32.251 81.1897 32.208C81.0607 32.208 80.9747 32.122 80.8887 32.122C80.0717 31.821 79.2547 31.219 78.5237 30.789C78.0077 30.531 77.7927 30.23 77.4917 29.757C77.2337 29.327 77.1477 29.026 77.1047 28.553C77.1047 28.51 77.1047 28.51 77.1047 28.467C77.1047 28.08 77.2767 27.779 77.2767 27.435C77.3197 27.048 77.3197 26.704 77.4487 26.317C77.5347 25.801 77.6637 25.242 77.8357 24.683C78.0937 23.909 78.4377 23.135 78.7387 22.318C78.8247 22.103 78.9537 21.845 79.0827 21.63C79.4267 21.114 79.8137 20.598 80.1577 20.082C80.8457 19.007 82.2647 18.62 83.4257 17.846C83.5547 17.76 83.7267 17.717 83.8557 17.717C83.9847 17.717 84.0707 17.76 84.1997 17.76C84.5007 17.846 84.6727 18.018 84.8877 18.233C85.0167 18.362 85.0597 18.448 85.0597 18.663C85.0597 18.706 85.0597 18.792 85.0597 18.835C85.0597 19.093 85.0167 19.265 84.9737 19.566C84.8877 19.953 84.8447 20.168 84.6727 20.512C84.2857 21.157 83.9417 21.458 83.5977 22.017C83.2967 22.619 82.9097 23.178 82.7807 23.823C82.6517 24.382 82.4367 24.855 82.2647 25.328C82.1357 25.758 82.0067 26.145 81.9207 26.532C81.8347 26.833 81.6627 27.091 81.6627 27.392C81.6627 27.478 81.6627 27.564 81.7057 27.65C81.7917 27.951 82.1357 27.994 82.4367 28.123C82.5657 28.166 82.7377 28.166 82.9097 28.166C83.5977 28.166 84.1137 27.951 84.8877 27.779C85.5757 27.564 86.3067 27.478 86.9947 27.478C87.7687 27.478 88.5857 27.607 89.4027 27.951C90.0477 28.209 90.6497 28.596 90.9937 29.198ZM112.271 19.566C112.486 19.953 112.572 20.168 112.572 20.598C112.572 20.727 112.443 20.813 112.314 20.856C112.013 20.985 111.755 20.899 111.411 21.028C111.11 21.157 111.024 21.458 110.68 21.544C109.863 21.802 109.433 21.845 108.917 21.845C108.487 21.845 107.971 21.802 107.111 21.802C106.638 21.802 106.294 21.888 105.778 21.931C105.219 21.974 104.918 21.931 104.359 22.06C104.187 22.103 104.058 22.275 103.972 22.361C103.929 22.533 103.843 22.619 103.843 22.705V24.167C103.8 25.242 103.8 26.274 103.757 27.306C103.757 27.693 103.714 28.08 103.585 28.467C103.542 28.596 103.542 28.768 103.542 28.897C103.628 29.112 103.714 29.241 103.929 29.37C104.015 29.37 104.101 29.413 104.187 29.413C104.918 29.456 105.391 29.456 106.079 29.456C106.122 29.456 106.165 29.456 106.208 29.456C106.982 29.456 107.455 29.413 108.186 29.413C108.358 29.413 108.53 29.413 108.702 29.413C109.175 29.413 109.433 29.456 109.906 29.585C110.078 29.628 110.164 29.671 110.293 29.8C110.508 30.101 110.594 30.316 110.68 30.66C110.723 30.875 110.723 31.09 110.723 31.262C110.723 31.434 110.723 31.649 110.68 31.864C110.637 31.993 110.551 32.036 110.422 32.079C109.863 32.251 109.562 32.294 109.003 32.423C108.573 32.552 108.272 32.724 107.885 32.724C107.455 32.724 107.068 32.81 106.724 32.939C106.466 32.982 106.251 32.982 105.95 32.982C105.907 32.982 105.821 32.982 105.778 32.982C105.305 32.982 104.961 32.939 104.574 32.939C104.316 32.939 104.058 32.939 103.757 33.025C103.37 33.111 103.155 33.369 103.026 33.713C102.983 33.713 102.94 33.842 102.94 33.928C102.854 34.487 102.768 34.96 102.639 35.648C102.596 35.863 102.639 36.035 102.596 36.25C102.553 36.637 102.51 36.895 102.424 37.282C102.424 37.368 102.338 37.454 102.338 37.54C102.295 38.142 102.295 38.443 102.209 39.045C102.166 39.604 102.123 39.905 101.994 40.464C101.822 41.367 101.392 41.582 101.392 42.528C101.392 42.614 101.435 42.7 101.435 42.743C101.521 43.001 101.65 43.173 101.865 43.173C102.123 43.216 102.338 43.216 102.553 43.216C103.585 43.216 104.316 43.044 105.477 43.044C105.52 43.044 105.563 43.044 105.606 43.044C105.821 43.044 105.95 43.044 106.208 43.044C106.767 43.13 107.111 43.173 107.67 43.345C107.799 43.431 107.885 43.517 107.971 43.646C108.1 43.904 108.229 44.033 108.401 44.248C108.573 44.506 108.745 45.28 108.831 45.581C108.874 45.796 108.917 45.968 108.917 46.183C108.917 46.441 108.831 46.656 108.616 46.871C108.1 47.301 107.627 47.215 106.982 47.258C105.563 47.344 104.402 47.473 103.284 47.473C102.596 47.473 101.908 47.43 101.177 47.258C100.403 47.086 99.4143 47 98.2533 46.527C97.9953 46.441 97.7803 46.054 97.6083 45.839C97.3073 45.495 97.1783 45.28 97.0493 44.893C96.8343 44.377 96.7483 43.947 96.7483 43.474C96.7913 42.872 96.8773 42.399 97.0063 41.711C97.0923 41.195 97.0923 40.937 97.2213 40.421C97.3073 39.905 97.4363 39.647 97.5653 39.131C97.5653 39.002 97.5653 38.959 97.6083 38.83C97.6943 38.142 97.7803 37.755 97.9093 37.067C98.0813 35.863 98.2963 35.046 98.2963 34.014C98.2963 33.799 98.3823 33.627 98.4253 33.412C98.3393 33.326 98.2533 33.154 98.1243 33.111C97.7803 32.939 97.3933 32.896 97.0063 32.681C96.7913 32.552 96.6193 32.509 96.5333 32.294C96.2753 31.778 96.2753 31.434 96.1893 30.875C96.1463 30.746 96.1463 30.66 96.1463 30.574C96.1463 30.488 96.1463 30.402 96.1893 30.273C96.1893 30.187 96.2323 30.101 96.3613 30.058C97.3073 29.843 98.0813 30.101 98.8553 29.671C98.8983 29.585 99.0273 29.499 99.0273 29.413C99.1993 28.854 99.2853 28.381 99.4143 27.693C99.5433 27.005 99.5863 26.661 99.6723 25.973C99.6723 25.93 99.6723 25.887 99.6723 25.887C99.6723 25.801 99.6723 25.758 99.6723 25.715C99.6723 25.672 99.6723 25.672 99.6723 25.672C99.6723 24.597 99.7583 23.737 99.7583 22.877C99.7583 22.705 99.7583 22.49 99.7583 22.318C99.5863 21.931 99.2853 21.845 99.0273 21.501C98.8123 21.2 98.7263 20.985 98.5543 20.641C98.4253 20.383 98.3393 20.254 98.2103 19.996C98.1673 19.91 98.0813 19.867 98.0813 19.781V19.738C98.2533 19.308 98.2963 18.835 98.7693 18.706C99.6293 18.491 100.145 18.448 100.747 18.448C101.349 18.448 102.037 18.491 103.198 18.491C103.8 18.491 104.402 18.491 104.961 18.276C105.09 18.233 105.219 18.233 105.391 18.233C105.52 18.233 105.692 18.233 105.821 18.233C106.079 18.233 106.337 18.233 106.595 18.233C106.853 18.233 107.111 18.233 107.369 18.233C107.713 18.233 108.014 18.233 108.358 18.19C109.347 18.104 109.562 18.061 109.906 18.061C110.035 18.061 110.164 18.061 110.379 18.061C110.852 18.104 111.282 18.276 111.497 18.491C111.884 18.878 112.056 19.093 112.271 19.566Z" fill="#580001"/>
</svg>
