<svg width="136" height="63" viewBox="0 0 136 63" fill="none" xmlns="http://www.w3.org/2000/svg">
<path d="M0 9.45L8.41905 0L114.629 3.78L136 9.45V49.77L123.048 63H25.9048L0 49.77V9.45Z" fill="#DEE0C8"/>
<path d="M9 14.2L16.2429 7L107.614 9.88L126 14.2V44.92L114.857 55H31.2857L9 44.92V14.2Z" stroke="#282607" stroke-width="2.11"/>
<path d="M43.682 24.253C43.725 24.468 43.725 24.64 43.725 24.855C43.725 25.027 43.725 25.199 43.682 25.414C43.682 25.93 43.596 26.231 43.553 26.747C43.467 29.929 43.553 31.735 43.424 34.917C43.424 35.476 43.252 35.777 43.209 36.336C43.209 36.379 43.209 36.379 43.209 36.422C43.209 36.938 43.338 37.239 43.338 37.798C43.338 38.185 43.252 38.443 43.209 38.83C43.209 39.131 43.209 39.389 43.209 39.647C43.209 39.819 43.209 39.991 43.209 40.163C43.209 40.421 43.209 40.722 43.166 41.066C43.166 41.582 43.08 41.84 42.994 42.356C42.994 42.571 42.951 42.743 42.908 42.958C42.822 43.861 42.779 44.377 42.607 45.28C42.521 45.968 42.521 46.398 42.22 47.043C42.134 47.301 41.919 47.344 41.618 47.387C41.403 47.387 41.317 47.215 41.145 47.215C41.145 47.215 41.102 47.215 41.059 47.215C40.758 47.301 40.715 47.559 40.371 47.559H40.328C39.898 47.559 39.812 47.387 39.382 47.258C39.253 47.215 39.124 47.215 38.995 47.215C38.866 47.215 38.78 47.215 38.694 47.215C38.565 47.215 38.479 47.215 38.307 47.172C38.178 47.129 38.135 47.043 38.049 46.957C37.748 46.527 37.447 46.312 37.318 45.796C37.318 45.667 37.318 45.538 37.318 45.409C37.318 44.979 37.447 44.635 37.49 44.119C37.533 43.818 37.576 43.689 37.576 43.388C37.619 43.173 37.619 43.001 37.619 42.786C37.748 41.883 37.791 41.367 37.877 40.464C37.963 39.905 38.049 39.561 38.092 39.002C38.135 38.701 38.135 38.529 38.135 38.228C38.178 37.239 38.135 36.723 38.178 35.734C38.221 35.175 38.307 34.831 38.35 34.272C38.393 34.1 38.393 34.014 38.393 33.842C38.479 31.391 38.479 29.671 38.522 27.607C38.522 27.392 38.479 27.22 38.307 27.048C38.221 27.091 38.135 27.091 38.006 27.134C37.318 28.467 36.329 29.671 35.555 31.004C34.953 31.95 34.394 32.681 33.706 33.842C33.534 34.186 33.577 34.487 33.319 34.831C33.147 35.089 32.975 35.218 32.674 35.347C32.158 35.562 31.814 35.562 31.255 35.648C31.212 35.648 31.126 35.691 31.04 35.691C30.997 35.691 30.954 35.691 30.911 35.648C30.61 35.476 30.524 35.261 30.223 35.089C29.965 34.917 29.707 35.003 29.492 34.745C28.933 34.014 28.761 33.455 28.288 32.638C28.159 32.337 28.116 32.165 27.901 31.864C27.815 31.735 27.815 31.52 27.643 31.52C27.643 31.52 27.643 31.52 27.6 31.52C27.385 31.563 27.299 31.778 27.256 31.993C27.213 32.251 27.213 32.466 27.213 32.724C27.213 33.842 27.17 34.831 27.17 35.992C27.17 36.465 27.17 36.938 27.17 37.497C27.213 38.013 27.299 38.271 27.342 38.787C27.385 38.916 27.385 38.959 27.385 39.088C27.428 39.991 27.557 40.636 27.557 41.324C27.557 41.668 27.514 42.055 27.428 42.442C27.342 42.915 26.998 43.173 26.482 43.302C26.267 43.388 26.009 43.388 25.837 43.388C25.106 43.388 24.59 43.001 23.515 42.7C23.386 42.657 23.3 42.614 23.171 42.485C22.913 42.227 22.655 42.055 22.483 41.711C22.44 41.582 22.44 41.496 22.44 41.41C22.44 41.281 22.44 41.152 22.44 40.98V40.937C22.397 39.862 22.44 39.217 22.354 38.142C22.354 37.669 22.268 37.454 22.225 36.981C22.225 36.809 22.225 36.68 22.225 36.508C22.225 36.379 22.225 36.25 22.225 36.078C22.268 35.691 22.354 35.433 22.354 35.046C22.44 32.853 22.397 31.606 22.44 29.413C22.483 28.725 22.569 28.338 22.612 27.65C22.655 27.177 22.698 26.962 22.698 26.489C22.784 25.285 22.741 24.554 22.784 23.35C22.827 22.748 22.87 22.361 22.913 21.759C22.956 21.415 22.999 21.2 22.999 20.856C23.042 20.641 23.042 20.426 23.042 20.254C23.042 19.652 22.999 19.136 22.999 18.577C22.999 18.19 22.999 17.76 23.042 17.244C23.085 16.943 23.214 16.771 23.386 16.513C23.687 16.169 23.816 15.954 24.203 15.782C24.375 15.696 24.504 15.696 24.633 15.696C24.762 15.696 24.891 15.696 25.02 15.739C25.536 15.825 25.923 15.825 26.267 16.212C26.955 16.986 26.998 17.631 27.514 18.534C27.901 19.136 28.202 19.437 28.503 20.039C28.804 20.598 28.933 20.942 29.148 21.501C29.535 22.404 29.75 22.92 30.051 23.866C30.395 24.812 30.524 25.328 30.782 26.274C30.911 26.575 30.954 26.79 31.04 27.091C31.212 27.521 31.298 27.865 31.427 28.209C31.513 28.295 31.685 28.381 31.771 28.424C32.029 28.295 32.201 28.123 32.33 27.908C33.147 26.618 34.05 25.371 34.652 23.952C35.082 23.049 35.555 22.189 35.985 21.329C36.501 20.297 37.146 19.351 37.791 18.448C38.092 17.975 38.436 17.545 38.78 17.115C39.21 16.814 39.64 16.599 40.07 16.599C40.371 16.599 40.672 16.685 40.973 16.857C41.274 17.029 41.618 17.029 41.962 17.072C42.263 17.287 42.435 17.545 42.564 17.889C42.994 18.878 43.252 19.437 43.467 20.512C43.553 20.856 43.596 21.2 43.596 21.458C43.596 21.759 43.553 22.06 43.553 22.361C43.553 22.49 43.553 22.619 43.553 22.791C43.596 23.35 43.682 23.694 43.682 24.253ZM65.7937 19.566C66.0087 19.953 66.0947 20.168 66.0947 20.598C66.0947 20.727 65.9657 20.813 65.8367 20.856C65.5357 20.985 65.2777 20.899 64.9337 21.028C64.6327 21.157 64.5467 21.458 64.2027 21.544C63.3857 21.802 62.9557 21.845 62.4397 21.845C62.0097 21.845 61.4937 21.802 60.6337 21.802C60.1607 21.802 59.8167 21.888 59.3007 21.931C58.7417 21.974 58.4407 21.931 57.8817 22.06C57.7097 22.103 57.5807 22.275 57.4947 22.361C57.4517 22.533 57.3657 22.619 57.3657 22.705V24.167C57.3227 25.242 57.3227 26.274 57.2797 27.306C57.2797 27.693 57.2367 28.08 57.1077 28.467C57.0647 28.596 57.0647 28.768 57.0647 28.897C57.1507 29.112 57.2367 29.241 57.4517 29.37C57.5377 29.37 57.6237 29.413 57.7097 29.413C58.4407 29.456 58.9137 29.456 59.6017 29.456C59.6447 29.456 59.6877 29.456 59.7307 29.456C60.5047 29.456 60.9777 29.413 61.7087 29.413C61.8807 29.413 62.0527 29.413 62.2247 29.413C62.6977 29.413 62.9557 29.456 63.4287 29.585C63.6007 29.628 63.6867 29.671 63.8157 29.8C64.0307 30.101 64.1167 30.316 64.2027 30.66C64.2457 30.875 64.2457 31.09 64.2457 31.262C64.2457 31.434 64.2457 31.649 64.2027 31.864C64.1597 31.993 64.0737 32.036 63.9447 32.079C63.3857 32.251 63.0847 32.294 62.5257 32.423C62.0957 32.552 61.7947 32.724 61.4077 32.724C60.9777 32.724 60.5907 32.81 60.2467 32.939C59.9887 32.982 59.7737 32.982 59.4727 32.982C59.4297 32.982 59.3437 32.982 59.3007 32.982C58.8277 32.982 58.4837 32.939 58.0967 32.939C57.8387 32.939 57.5807 32.939 57.2797 33.025C56.8927 33.111 56.6777 33.369 56.5487 33.713C56.5057 33.713 56.4627 33.842 56.4627 33.928C56.3767 34.487 56.2907 34.96 56.1617 35.648C56.1187 35.863 56.1617 36.035 56.1187 36.25C56.0757 36.637 56.0327 36.895 55.9467 37.282C55.9467 37.368 55.8607 37.454 55.8607 37.54C55.8177 38.142 55.8177 38.443 55.7317 39.045C55.6887 39.604 55.6457 39.905 55.5167 40.464C55.3447 41.367 54.9147 41.582 54.9147 42.528C54.9147 42.614 54.9577 42.7 54.9577 42.743C55.0437 43.001 55.1727 43.173 55.3877 43.173C55.6457 43.216 55.8607 43.216 56.0757 43.216C57.1077 43.216 57.8387 43.044 58.9997 43.044C59.0427 43.044 59.0857 43.044 59.1287 43.044C59.3437 43.044 59.4727 43.044 59.7307 43.044C60.2897 43.13 60.6337 43.173 61.1927 43.345C61.3217 43.431 61.4077 43.517 61.4937 43.646C61.6227 43.904 61.7517 44.033 61.9237 44.248C62.0957 44.506 62.2677 45.28 62.3537 45.581C62.3967 45.796 62.4397 45.968 62.4397 46.183C62.4397 46.441 62.3537 46.656 62.1387 46.871C61.6227 47.301 61.1497 47.215 60.5047 47.258C59.0857 47.344 57.9247 47.473 56.8067 47.473C56.1187 47.473 55.4307 47.43 54.6997 47.258C53.9257 47.086 52.9367 47 51.7757 46.527C51.5177 46.441 51.3027 46.054 51.1307 45.839C50.8297 45.495 50.7007 45.28 50.5717 44.893C50.3567 44.377 50.2707 43.947 50.2707 43.474C50.3137 42.872 50.3997 42.399 50.5287 41.711C50.6147 41.195 50.6147 40.937 50.7437 40.421C50.8297 39.905 50.9587 39.647 51.0877 39.131C51.0877 39.002 51.0877 38.959 51.1307 38.83C51.2167 38.142 51.3027 37.755 51.4317 37.067C51.6037 35.863 51.8187 35.046 51.8187 34.014C51.8187 33.799 51.9047 33.627 51.9477 33.412C51.8617 33.326 51.7757 33.154 51.6467 33.111C51.3027 32.939 50.9157 32.896 50.5287 32.681C50.3137 32.552 50.1417 32.509 50.0557 32.294C49.7977 31.778 49.7977 31.434 49.7117 30.875C49.6687 30.746 49.6687 30.66 49.6687 30.574C49.6687 30.488 49.6687 30.402 49.7117 30.273C49.7117 30.187 49.7547 30.101 49.8837 30.058C50.8297 29.843 51.6037 30.101 52.3777 29.671C52.4207 29.585 52.5497 29.499 52.5497 29.413C52.7217 28.854 52.8077 28.381 52.9367 27.693C53.0657 27.005 53.1087 26.661 53.1947 25.973C53.1947 25.93 53.1947 25.887 53.1947 25.887C53.1947 25.801 53.1947 25.758 53.1947 25.715C53.1947 25.672 53.1947 25.672 53.1947 25.672C53.1947 24.597 53.2807 23.737 53.2807 22.877C53.2807 22.705 53.2807 22.49 53.2807 22.318C53.1087 21.931 52.8077 21.845 52.5497 21.501C52.3347 21.2 52.2487 20.985 52.0767 20.641C51.9477 20.383 51.8617 20.254 51.7327 19.996C51.6897 19.91 51.6037 19.867 51.6037 19.781V19.738C51.7757 19.308 51.8187 18.835 52.2917 18.706C53.1517 18.491 53.6677 18.448 54.2697 18.448C54.8717 18.448 55.5597 18.491 56.7207 18.491C57.3227 18.491 57.9247 18.491 58.4837 18.276C58.6127 18.233 58.7417 18.233 58.9137 18.233C59.0427 18.233 59.2147 18.233 59.3437 18.233C59.6017 18.233 59.8597 18.233 60.1177 18.233C60.3757 18.233 60.6337 18.233 60.8917 18.233C61.2357 18.233 61.5367 18.233 61.8807 18.19C62.8697 18.104 63.0847 18.061 63.4287 18.061C63.5577 18.061 63.6867 18.061 63.9017 18.061C64.3747 18.104 64.8047 18.276 65.0197 18.491C65.4067 18.878 65.5787 19.093 65.7937 19.566ZM93.0688 16.556V18.147C93.0688 18.276 93.0688 18.448 93.0258 18.577C92.6388 19.179 92.7248 19.824 92.5528 20.598C92.5098 20.942 92.5098 21.114 92.4668 21.458C92.4238 21.845 92.4668 22.103 92.3808 22.49C92.2948 23.178 92.2088 23.522 92.0368 24.21C91.9938 24.468 91.9078 24.554 91.8648 24.812C91.7788 25.371 91.7358 25.672 91.6498 26.231C91.6068 26.618 91.6068 26.876 91.5638 27.263C91.4778 28.037 91.4348 28.424 91.3488 29.198C91.3058 29.585 91.3058 29.843 91.2628 30.23C91.2198 30.531 91.1768 30.66 91.1338 30.961C91.0478 31.52 91.0048 31.821 90.9188 32.38C90.8328 33.025 90.8328 33.369 90.7468 34.014C90.7038 34.358 90.7038 34.53 90.6608 34.874C90.5748 35.433 90.5318 35.777 90.4458 36.336C90.4028 36.637 90.4028 36.766 90.4028 37.067C90.4028 37.669 90.4028 37.97 90.3598 38.572C90.3598 38.916 90.3168 39.088 90.2308 39.432C89.9728 40.507 89.7578 41.238 89.5428 42.141C89.5428 42.872 89.1558 43.517 89.1558 44.205C89.1558 44.248 89.1558 44.291 89.1558 44.334C89.0268 44.807 88.8978 45.28 88.7688 45.753C88.6828 46.097 88.6398 46.441 88.5538 46.742C88.5108 47.172 88.2098 47.387 87.8228 47.387C87.7798 47.387 87.7368 47.387 87.6938 47.387C87.5648 47.344 87.4358 47.301 87.2638 47.215C87.0918 47.258 86.9628 47.43 86.8338 47.559C86.7478 47.688 86.6188 47.774 86.5328 47.86C86.4038 47.946 86.2748 47.989 86.1028 47.989C86.0598 47.989 86.0168 47.989 85.9738 47.989C85.5868 47.86 85.1998 47.731 84.7698 47.559C84.4688 47.301 84.0818 46.957 83.8238 46.656C83.1788 45.624 82.8348 44.549 82.4048 43.474C81.9748 42.485 81.5878 41.453 81.2438 40.421C80.8998 39.475 80.5128 38.529 80.1258 37.54C79.6528 36.207 79.1798 34.874 78.7928 33.498C78.4918 32.294 78.1048 31.133 77.8898 29.929C77.6318 29.37 77.5888 28.768 77.2018 28.252C76.9868 28.252 76.8578 28.381 76.8148 28.553C76.7718 28.725 76.7288 28.854 76.7288 29.026C76.6428 29.585 76.5568 30.058 76.4708 30.746C76.4278 30.961 76.4708 31.133 76.4278 31.348C76.3418 32.036 76.2988 32.423 76.2128 33.111C76.2128 33.326 76.1698 33.498 76.1698 33.713C76.1698 34.272 76.1698 34.616 76.1268 35.175C76.0838 35.906 75.9548 36.336 75.8688 37.067C75.8258 37.798 75.8258 38.228 75.7828 39.002C75.7828 39.131 75.7398 39.174 75.6968 39.303C75.6108 39.819 75.6108 40.077 75.5248 40.593C75.4818 40.937 75.4388 41.152 75.3528 41.496C75.3528 41.582 75.2668 41.668 75.2668 41.754C75.1378 43.001 75.0948 43.732 74.9228 44.979C74.8368 45.71 74.8798 46.183 74.5358 46.785C74.4068 46.914 74.2348 47.043 74.0198 47.215C73.8908 47.473 73.7618 47.731 73.6328 47.946C73.2888 48.247 72.9448 48.462 72.5578 48.505C72.1708 48.462 71.8268 48.29 71.5258 47.989C71.1388 47.43 71.0958 46.785 70.8808 46.183C70.7948 45.968 70.7948 45.753 70.7948 45.495C70.7948 45.366 70.7948 45.237 70.7948 45.065C70.7948 45.022 70.7948 45.022 70.7948 44.979C70.7948 44.721 70.7948 44.506 70.7948 44.291C70.7948 43.818 70.7948 43.474 70.8378 42.915C70.8808 42.528 70.9668 42.313 71.0098 41.926C71.0528 41.539 71.0528 41.281 71.0958 40.894C71.1818 40.206 71.2248 39.819 71.3108 39.131C71.3538 38.83 71.3968 38.701 71.3968 38.4C71.4398 38.099 71.4398 37.97 71.4398 37.669C71.5258 36.852 71.5688 36.422 71.6548 35.605C71.8268 34.358 71.9128 33.627 72.0848 32.38C72.1708 31.907 72.2138 31.692 72.2568 31.219C72.2998 30.617 72.2998 30.316 72.3428 29.714C72.3858 29.198 72.4718 28.94 72.5578 28.424C72.6438 27.951 72.7298 27.736 72.7728 27.263C72.8158 26.919 72.8158 26.747 72.8588 26.403C72.9448 25.715 72.9878 25.328 73.0738 24.64C73.1168 24.425 73.1168 24.253 73.1168 24.038C73.1598 22.49 73.1598 21.587 73.1598 20.039C73.1598 19.738 73.0738 19.48 73.0738 19.222C73.0738 19.093 73.1168 18.964 73.1598 18.835C73.4178 18.276 73.8908 17.975 74.2778 17.76C74.4498 17.674 74.6218 17.674 74.8368 17.674C75.0948 17.674 75.3958 17.717 75.6538 17.76C76.0408 17.803 76.4278 17.975 76.8148 18.061C76.9438 18.276 77.1158 18.448 77.2448 18.663C77.3738 18.878 77.5028 19.093 77.6318 19.265C77.7178 19.394 77.8038 19.523 77.8898 19.652C79.0078 21.114 79.8248 22.748 80.6418 24.382C80.8568 24.855 81.0718 25.371 81.2438 25.887C81.8028 27.306 82.3188 28.725 82.8348 30.187C83.1788 31.305 83.4368 32.466 83.8238 33.584C83.9098 33.928 83.9958 34.272 84.1248 34.573C84.2538 34.917 84.3828 35.304 84.4688 35.691C84.5978 36.25 84.8558 36.809 85.1998 37.282C85.3718 37.282 85.5438 37.239 85.5868 37.067C85.6298 36.809 85.6298 36.594 85.6728 36.336C85.6728 36.035 85.6728 35.734 85.8018 35.433C85.8448 35.218 85.8878 35.003 85.8878 34.745C85.9308 34.315 85.9308 34.1 85.9308 33.67C85.9738 32.939 85.9738 32.509 86.0598 31.778C86.1458 31.09 86.3178 30.703 86.4038 30.015C86.4898 29.628 86.4898 29.413 86.4898 29.026C86.5328 28.424 86.5328 28.123 86.5758 27.521C86.6618 26.747 86.7478 26.274 86.8338 25.5C86.8768 25.156 86.9198 24.941 86.9628 24.597C87.0058 24.21 87.0488 23.995 87.0918 23.608C87.1778 23.092 87.2638 22.791 87.3498 22.275C87.3928 22.103 87.3928 22.017 87.3928 21.845C87.5218 20.942 87.6508 20.297 87.6938 19.48C87.7368 19.093 87.9948 18.749 87.9948 18.362C87.9948 18.018 88.0378 17.674 88.0378 17.33C88.2528 16.943 88.3818 16.599 88.5968 16.255C89.0698 15.438 89.8438 15.051 90.7898 15.008C91.1768 15.008 91.5638 15.094 91.9078 15.094C92.5528 15.438 92.8108 15.954 93.0688 16.556ZM113.916 24.124C113.916 24.167 113.916 24.167 113.916 24.21C113.916 24.511 113.873 24.683 113.83 24.984C113.744 25.973 113.701 26.489 113.615 27.478C113.615 27.779 113.572 27.908 113.572 28.209C113.529 29.241 113.572 29.843 113.529 30.875C113.529 31.434 113.529 31.778 113.443 32.337C113.357 32.896 113.228 33.24 113.099 33.799C112.97 34.401 112.841 34.745 112.712 35.347C112.54 36.078 112.497 36.508 112.368 37.239C112.239 37.927 112.196 38.314 112.024 38.959C111.68 40.163 111.121 41.797 110.992 42.055C110.39 43.13 109.788 44.205 109.057 45.194C108.756 45.538 108.498 45.882 108.154 46.312C107.982 46.398 107.724 46.57 107.509 46.699C107.294 46.742 107.122 46.785 106.907 46.785C106.649 46.785 106.391 46.742 106.133 46.742C106.047 46.699 105.961 46.699 105.875 46.656C105.703 46.613 105.574 46.527 105.445 46.484C104.628 46.097 103.897 45.624 103.252 44.979C103.037 44.721 102.779 44.463 102.521 44.248C101.79 43.603 101.446 42.915 100.887 41.969C100.457 41.281 100.285 40.851 99.9838 40.077C99.8118 39.561 99.7688 39.217 99.6828 38.658C99.5108 37.755 99.4248 37.239 99.2958 36.336C99.1668 35.433 99.1668 34.874 99.0808 33.971C99.0378 33.67 99.0378 33.541 99.0378 33.24C98.9948 32.466 99.0378 32.079 98.9948 31.305C98.9948 31.09 98.9948 30.918 98.9518 30.703C98.8658 29.972 98.6938 29.542 98.6938 28.811C98.6938 27.908 98.6508 27.134 98.6508 26.403C98.6508 24.984 98.6938 23.737 98.7368 21.974C98.7368 21.673 98.8228 21.544 98.8658 21.243C98.9088 21.028 98.9088 20.899 98.9518 20.684C99.0808 20.082 99.1668 19.738 99.2528 19.093C99.2958 18.749 99.2528 18.577 99.3388 18.233C99.4678 17.889 99.5108 17.631 99.7688 17.373C100.027 17.115 100.242 16.943 100.586 16.857C100.844 16.814 101.016 16.771 101.231 16.771C101.403 16.771 101.575 16.771 101.79 16.857C102.048 16.943 102.134 17.158 102.177 17.416C102.263 17.717 102.263 17.975 102.263 18.233C102.263 18.405 102.263 18.534 102.263 18.706C102.263 18.835 102.263 18.964 102.263 19.136C102.306 19.996 102.435 20.512 102.435 21.372C102.435 21.888 102.263 22.189 102.263 22.705C102.263 23.393 102.22 23.909 102.22 24.468C102.22 25.285 102.263 26.059 102.263 27.134C102.263 27.263 102.306 27.306 102.306 27.435C102.392 28.295 102.478 28.768 102.564 29.628C102.607 29.843 102.607 30.015 102.65 30.23C102.736 30.832 102.779 31.219 102.822 31.821C102.865 32.294 102.822 32.552 102.865 33.025C102.908 33.713 102.994 34.1 103.037 34.788C103.08 35.476 103.08 35.863 103.166 36.551C103.295 37.368 103.381 37.798 103.639 38.572C104.284 40.507 104.886 40.722 105.488 40.765C105.488 40.765 105.531 40.765 105.574 40.765C106.391 40.765 107.251 39.776 108.111 37.712C108.326 37.153 108.326 36.809 108.455 36.25C108.541 35.82 108.584 35.562 108.67 35.089C108.756 34.616 108.756 34.401 108.842 33.928C108.885 33.756 108.885 33.67 108.928 33.498C109.014 33.111 109.014 32.853 109.1 32.466C109.186 31.95 109.229 31.692 109.315 31.176C109.358 30.832 109.401 30.617 109.401 30.273C109.444 29.413 109.401 28.94 109.444 28.08C109.487 27.693 109.53 27.435 109.573 27.048C109.616 26.747 109.659 26.618 109.659 26.317C109.659 26.016 109.659 25.715 109.659 25.457C109.659 25.07 109.659 24.683 109.659 24.296C109.659 23.823 109.702 23.35 109.745 22.748C109.831 21.974 110.046 21.544 110.261 20.77C110.39 20.297 110.433 19.953 110.691 19.523C110.992 19.093 111.207 18.835 111.68 18.577C112.153 18.276 112.497 18.19 112.798 18.19C113.142 18.19 113.357 18.319 113.529 18.534C113.916 19.05 114.002 19.781 114.002 20.641C114.002 21.544 113.916 22.533 113.916 23.522C113.916 23.737 113.916 23.909 113.916 24.124Z" fill="#580001"/>
</svg>
