<svg width="420" height="17" viewBox="0 0 420 17" fill="none" xmlns="http://www.w3.org/2000/svg">
<path d="M32.4034 16.7479C32.6576 16.7316 33.7067 16.7474 34.1738 16.7353C33.6362 16.8772 31.4769 16.8073 32.4034 16.7479ZM78.4917 6.34148C78.1195 6.38003 77.7487 6.41856 77.3794 6.45707C78.4293 6.46343 79.8598 6.41838 80.8603 6.43538C81.0237 6.4383 80.6012 6.54045 80.9879 6.53913C81.3754 6.53778 81.2982 6.40767 81.8636 6.38544C82.5093 6.36074 85.2975 6.41177 86.302 6.39498C90.0761 6.33139 93.6943 6.20391 97.4427 6.2039C93.6252 6.3565 97.4868 6.39917 98.5337 6.34186C98.7745 6.32861 98.7078 6.08563 102.569 6.09083C105.033 6.09392 102.778 6.47558 106.816 6.24197C103.71 6.04326 106.748 6.01608 109.213 5.97198C109.642 5.96429 113.066 5.95096 114.555 5.91836C115.069 5.90709 115.852 5.76784 116.538 5.75445C117.01 5.74533 117.369 5.80996 118.073 5.79609C121.355 5.73229 124.506 5.68067 127.814 5.6557C125.904 6.01216 129.307 5.77373 129.454 5.78727C130.226 5.86508 126.737 5.94173 128.117 5.97722C130.044 5.93874 131.984 5.90003 133.937 5.86111C132.329 5.84446 136.069 5.55317 136.738 5.65077C136.41 5.36546 145.622 5.77225 146.986 5.65508C147.278 5.63029 145.371 5.51511 149.783 5.51539C150.262 5.51559 150.082 5.6058 150.333 5.59392C150.483 5.58679 151.389 5.29508 152.364 5.43439C152.713 5.48534 150.477 5.70131 155.417 5.55451C153.427 5.30086 162.317 5.29856 163.928 5.34544C163.603 5.31225 163.277 5.27905 162.952 5.24584C164.56 5.32452 164.85 5.22389 165.213 5.22373C166.675 5.223 168.69 5.28994 170.057 5.26064C171.65 5.22662 171.651 5.05048 173.509 5.09116C173.068 5.05891 172.627 5.02665 172.186 4.99438C173.467 4.98456 174.751 4.97469 176.036 4.96478C173.065 5.24248 176.677 4.96629 176.916 4.95767C177.296 4.94348 176.751 5.04712 177.387 5.02569C177.453 5.02274 177.356 4.93431 178.337 4.90949C180.384 4.85795 180.059 4.97584 180.918 4.96166C180.997 4.95989 180.72 4.88307 182.202 4.84162C186.914 4.70968 182.179 4.90403 181.999 4.91793C181.762 4.93625 183.381 5.25035 179.38 5.1905C180.723 5.20852 180.86 5.3562 181.012 5.35765C181.145 5.3587 183.473 5.30257 183.602 5.29547C184.746 5.22737 183.737 5.14024 183.96 5.11854C184.142 5.10102 186.952 5.19203 187.606 4.87433C188.954 5.1379 186.836 5.14389 184.584 5.22146C184.256 5.28467 186.731 5.30401 186.862 5.30188C190.053 5.2532 188.282 5.04638 188.977 4.88659C189.342 4.80296 190.644 4.94263 189.441 4.75139C192.336 4.68554 190.582 4.83339 190.769 4.84852C191.052 4.87064 192.064 4.79531 192.191 4.80138C192.377 4.8104 191.731 4.89268 192.465 4.90711C192.587 4.90898 193.768 4.76634 192.242 4.72979C194.279 4.7167 194.11 4.61286 194.804 4.81675C196.201 4.38995 195.826 5.04102 196.378 5.05537C197.849 5.09297 197.418 4.78104 197.495 4.76433C198.029 4.65673 202.098 4.70427 203.103 4.64304C202.71 4.87842 199.88 4.6946 199.248 4.74869C197.143 4.92874 202.221 4.81819 200.694 5.1296C201.335 5.04071 201.975 4.95181 202.615 4.86291C203.794 5.03026 202.128 5.13647 205.289 5.02055C205.804 4.85275 203.054 5.07989 203.604 4.94552C203.929 4.86663 205.761 4.82281 205.798 4.78325C205.832 4.73581 204.177 4.81667 204.437 4.74053C205 4.57622 211.066 4.63184 206.454 4.78729C207.741 4.76498 208.408 5.06457 209.521 4.95102C210.24 4.87736 206.182 4.51163 212.261 4.49701C212.393 4.64128 209.833 4.57741 209.766 4.58955C209.673 4.60718 210.141 4.93012 210.222 4.94519C210.506 4.99453 216.711 4.7226 218.03 4.8681C217.51 4.68534 222.716 4.76186 223.281 4.69495C223.433 4.67656 222.864 4.56848 223.026 4.55361C224.038 4.46437 226.773 4.63066 228.036 4.61647C229.45 4.60067 229.269 4.50254 229.348 4.5015C229.969 4.49749 229.474 4.5736 229.853 4.56751C230.419 4.55843 234.385 4.51071 234.583 4.49332C234.641 4.48796 233.993 4.38276 234.855 4.34744C235.004 4.34132 234.915 4.47945 237.462 4.38061C240.526 4.26168 235.33 4.24393 236.602 4.08089C238.576 4.25388 238.507 4.05295 239.04 4.06046C239.224 4.06336 240.6 4.21357 242.109 4.17902C241.029 4.22385 239.948 4.26866 238.882 4.31322C239.926 4.327 241.996 4.25727 242.868 4.27759C243.294 4.28745 242.946 4.43401 243.87 4.41568C244.065 4.41102 244.84 4.05513 242.419 4.2474C242.223 4.12774 243.379 4.18952 243.912 4.14642C243.993 4.13974 244.308 3.92974 244.991 4.04642C245.153 4.0752 243.393 4.70111 247.96 4.19618C248.107 4.17991 247.594 4.1131 247.738 4.0953C247.836 4.08323 249 4.09516 249.136 4.08238C249.269 4.06887 248.697 3.99614 248.856 3.97754C249.67 3.88176 250.743 4.18911 249.063 4.19096C249.626 4.22216 250.188 4.25336 250.748 4.28457C250.145 4.04968 251.627 4.20189 252.398 4.18212C257.334 4.05564 254.026 3.94918 254.873 3.85347C256.232 3.69978 255.198 4.13457 257.215 3.97674C257.403 3.96196 254.933 3.82386 259.755 3.84706C259.045 3.86532 258.334 3.88359 257.621 3.90188C258.038 4.13169 260.189 3.84466 260.353 3.83871C262.234 3.77613 260.969 3.88166 263.746 3.71533C263.994 3.70042 264.534 3.75009 265.062 3.7125C267.268 3.55708 262.163 3.68635 262.02 3.59286C261.952 3.54713 267.454 3.47044 267.657 3.48936C268.469 3.575 265.141 3.57343 265.776 3.68574C266.046 3.72505 273.825 3.50978 275.458 3.53064C277.288 3.55627 278.105 3.86341 278.112 3.50312C278.629 3.8482 279.076 3.59965 279.307 3.59829C282.072 3.58559 282.144 3.58795 284.55 3.51432C285.083 3.49814 285.533 3.59795 285.721 3.57672C285.83 3.56397 285.624 3.45259 286.158 3.40831C286.879 3.34796 291.397 3.39063 291.731 3.44841C292.069 3.50623 289.827 3.50782 290.23 3.60541C291.857 3.58875 293.401 3.53701 295.002 3.52098C295.667 3.51464 295.326 3.59341 295.613 3.59002C295.727 3.58902 298.096 3.48455 297.99 3.45939C297.72 3.40156 290.586 3.56382 292.464 3.40438C292.829 3.37355 294.114 3.52022 293.906 3.31907C300.358 3.25678 306.724 3.19399 313.19 3.12611C309.444 3.3454 305.352 3.27957 301.466 3.36044C300.945 3.37115 299.159 3.38188 299.377 3.48159C302.606 3.4534 306.794 3.32727 309.877 3.34065C309.981 3.34107 309.603 3.44061 309.99 3.44856C310.719 3.46333 313.035 3.27267 313.416 3.30465C313.483 3.31249 312.174 3.45811 312.575 3.5289C313.602 3.71056 313.851 3.26363 314.719 3.25346C314.911 3.25127 315.416 3.26063 316.058 3.27159C317.761 3.29731 320.317 3.33268 321.107 3.22172C322.304 3.05596 317.768 3.19854 318.087 3.07486C321.166 2.90114 324.355 2.96922 327.226 2.90095C327.277 2.89963 326.838 2.8155 327.475 2.79069C328.592 2.74738 328.933 2.87189 329.486 2.88244C330.098 2.89329 332.193 2.83478 332.464 2.8773C332.5 2.88289 332.083 3.02073 332.019 3.0256C331.114 3.09635 330.781 2.93404 330.698 2.93345C330.384 2.933 330.075 3.0034 329.785 3.00501C329.308 3.00758 329.044 2.95282 328.406 2.95949C327.965 2.96388 328.393 3.07059 327.967 3.07331C327.818 3.07374 326.21 2.84173 326.059 3.11189C325.947 3.19996 339.396 3.052 340.763 2.95503C339.617 2.94567 338.403 2.93744 337.302 2.92679C339.603 2.96023 342.462 2.68925 342.633 3.00187C351.317 2.85258 359.951 2.69381 368.591 2.50311C370.106 2.49159 369.345 2.71472 371.818 2.59108C371.182 2.5431 370.535 2.49517 369.865 2.4476C371.148 2.46203 376.908 2.39376 377.868 2.32135C378.002 2.31179 378.1 2.12565 379.589 2.06465C380.832 2.01257 381.085 2.14201 381.754 2.14693C382.297 2.15124 382.978 2.09243 383.141 2.09453C383.271 2.09624 383.327 2.17865 383.632 2.18292C384.612 2.19453 383.82 1.98491 384.811 2.22245C384.575 2.24123 384.333 2.26012 384.084 2.27911C385.29 2.27698 386.932 2.3391 385.161 2.46521C384.868 2.48628 385.118 2.39578 384.897 2.40382C376.043 2.71226 383.13 2.64625 386.214 2.40268C387.021 2.49863 391.435 2.23283 391.587 2.24285C391.796 2.26687 391.036 2.40166 392.04 2.43456C392.151 2.43919 393.747 2.33913 395.035 2.27688C395.049 2.27582 395.091 2.27477 395.105 2.27402C396.31 2.2437 397.195 2.24146 396.146 2.351C395.997 2.36618 395.612 2.38135 395.109 2.39674C395.095 2.39746 395.055 2.39847 395.042 2.39949C393.993 2.45515 392.549 2.5201 392.08 2.54622C392.803 2.62367 393.94 2.55081 395.044 2.44821C395.057 2.44721 395.097 2.44622 395.11 2.4455C396.49 2.34809 397.767 2.19906 398.012 2.19702C399.741 2.18557 394.692 2.5175 398.593 2.43138C401.587 2.36582 398.776 2.27784 399.922 2.17109C400.573 2.11113 403.969 2.1988 403.866 1.9576C405.027 1.89631 404.353 2.04587 404.496 2.05082C404.637 2.0551 406.921 1.91068 407.657 1.93525C407.748 1.93847 407.467 2.07502 407.561 2.08212C407.745 2.09539 409.926 1.98629 410.009 1.96889C410.062 1.95925 409.545 1.87062 409.756 1.83461C409.966 1.80097 411.48 1.74329 411.974 1.69011C411.992 1.68841 412.046 1.68624 412.064 1.68505C412.17 1.67803 412.237 1.67193 412.254 1.6663C412.287 1.65557 412.212 1.65201 412.063 1.65318C412.044 1.65438 411.99 1.65657 411.972 1.65828C411.456 1.67851 409.871 1.75311 410.21 1.63717C410.716 1.62727 411.366 1.58686 411.962 1.52363C411.981 1.52185 412.038 1.51956 412.057 1.51831C412.971 1.46068 413.471 1.36092 413.753 1.25288C413.652 1.31051 412.85 1.39191 412.422 1.39019C412.522 1.29523 413.103 1.22793 413.445 1.17878C413.798 1.13124 414.042 1.11114 413.796 1.23243C414.114 1.0933 413.88 1.09718 414.045 0.987301C414.088 0.963426 414.526 0.835556 414.6 0.770525C414.606 0.766676 414.141 0.83586 414.221 0.772236C414.293 0.71861 414.644 0.603682 415.012 0.433085C415.378 0.268284 415.766 0.0466344 415.829 0.018559C416.179 -0.122181 415.059 0.580486 415.003 0.655983C414.983 0.698895 416.043 0.316162 416.076 0.291218C416.205 0.402872 415.028 0.903615 415.213 0.938505C415.501 0.839867 415.797 0.716197 416.1 0.567686C415.005 1.46443 413.202 1.66495 412.155 1.79615C413.47 1.73946 414.14 1.61206 414.808 1.41884C415.448 1.23505 415.932 1.04745 416.011 1.19731C416.079 1.33115 415.354 1.76727 415.396 1.7778C415.56 1.8717 416.571 1.18154 416.61 1.14443C416.646 1.13104 416.666 1.12805 416.669 1.13431C416.669 1.13432 416.669 1.13432 416.669 1.13432C416.711 1.23806 415.198 2.06331 415.129 2.07558C415.014 2.18814 415.81 2.14123 415.838 2.17929C415.823 2.22445 414.672 2.69463 415.097 2.64743C415.536 2.63107 416.58 2.11946 416.617 2.0944C416.853 2.07815 415.037 2.96237 414.976 2.95198C414.95 2.9953 416.003 2.72088 416.046 2.71648C416.086 2.73985 415.335 3.1237 415.038 3.29761C414.818 3.43988 415.534 3.27711 415.415 3.32384C415.345 3.4207 413.387 3.79753 413.258 3.76627C413.107 3.79749 413.602 3.84272 413.533 3.8693C413.44 3.91449 412.747 3.92532 412.836 3.95061C412.874 3.95881 413.566 4.01646 414.229 3.98992C414.893 3.9714 415.551 3.84535 415.555 3.88531C415.59 4.08098 412.69 4.38708 415.443 4.29663C415.464 4.30011 416.084 4.04402 416.098 4.03556C416.524 3.96398 414.558 4.94075 417.01 3.87473C414.771 4.97146 414.516 4.80432 414.926 4.83374C415.313 4.81837 416.223 4.57364 415.898 4.8044C415.662 5.03943 413.651 5.44446 413.643 5.41445C413.848 5.51142 414.487 5.33669 414.714 5.34179C414.846 5.38126 413.03 5.71141 413.447 5.73583C413.656 5.80579 415.638 5.42568 415.709 5.36083C416.492 5.18877 415.581 5.55999 415.761 5.55537C415.893 5.57195 417.051 5.13506 417.074 5.11371C417.145 5.12513 415.605 5.85102 415.246 5.94562C414.988 6.0516 416.001 5.8487 415.82 5.91029C414.714 6.38203 412.26 6.30658 414.637 6.3862C414.787 6.39342 415.681 6.17887 415.706 6.16684C416.287 6.11951 414.635 6.55427 414.342 6.64072C413.839 6.87113 416.269 6.37719 414.254 6.81466C415.787 6.67964 416.713 6.40178 418.271 5.57616C416.114 6.78083 414.26 7.01578 413.94 7.15843C413.554 7.22764 414.599 7.54317 417.349 6.48257C415.627 7.13468 415.827 7.19029 415.286 7.33814C414.895 7.48532 412.353 7.46486 413.537 7.83654C413.668 7.90903 415.321 7.5975 414.819 7.78844C410.984 8.14455 414.688 7.93061 414.752 7.8902C414.784 7.98759 413.485 8.19369 412.34 8.22169L412.433 8.21642C409.951 8.40035 406.371 8.39967 405.502 8.45189C403.999 8.53434 402.665 8.78543 402.342 8.79536C401.269 8.8272 402.156 8.69329 401.915 8.66083C401.669 8.62893 398.625 8.92483 398.47 8.91822C397.88 8.89018 398.474 8.745 398.412 8.74039C398.018 8.71016 396.66 8.75969 395.303 8.81387L395.376 8.81089C394.226 8.88301 393.052 8.96248 392.506 8.97594C392.564 9.05701 394.858 8.9398 393.43 9.1499C391.747 9.39421 391.633 9.03143 391.591 9.0181C383.85 9.38492 376.158 9.5783 368.496 9.78041C368.54 9.97446 373.641 9.69569 373.734 9.71746C374.419 9.85314 365.889 10.0697 364.883 10.0222C365.675 10.0451 366.427 10.0688 367.254 10.0903C365.884 10.3475 362.902 10.1289 360.965 10.2718C360.327 10.3184 361.554 10.3763 361.526 10.3828C360.823 10.4858 359.647 10.4458 360.518 10.3096C358.748 10.4615 359.061 10.3313 357.721 10.3521C357.651 10.3533 358.23 10.4304 357.169 10.4914C356.632 10.521 354.076 10.5772 353.705 10.6639C353.563 10.7001 354.903 11.0202 355.054 10.7163C357.878 10.8007 355.955 10.5596 357.073 10.5418C357.233 10.5397 356.896 10.7155 359.628 10.5747C359.165 10.888 355.835 10.7361 355.344 10.7833C354.188 10.8841 358.946 10.9353 359.735 10.6809C359.341 10.9259 360.082 10.7049 361.144 10.6902C362.29 10.6742 361.792 10.756 362.403 10.7421C364.047 10.7053 363.403 10.5539 364.798 10.6708C363.431 10.2386 367.168 10.5526 368.28 10.6461C366.473 10.7148 364.751 10.78 362.927 10.8465C363.027 10.8685 363.121 10.8907 363.227 10.9127C362.769 10.92 362.315 10.9272 361.849 10.9345C361.923 10.9094 361.997 10.8843 362.071 10.8592C359.65 11.0675 359.052 10.9095 358.865 10.9119C356.329 10.9494 353.38 11.0151 350.843 11.0682C350.453 11.0763 350.762 11.2224 347.891 11.1631C347.022 11.1432 347.843 11.0078 346.851 11.046C345.607 11.3934 345.617 11.1365 345.24 11.1438C344.152 11.166 343.459 11.2597 343.366 11.2624C342.076 11.3009 340.12 11.3266 338.604 11.3682C338.577 11.3699 339.347 11.4537 338.395 11.4431C338.096 11.4386 335.055 11.0761 332.446 11.2633C333.112 11.2791 333.788 11.2946 334.493 11.3095C333.648 11.2864 328.093 11.4977 329.451 11.5849C330.315 11.6378 332.351 11.3271 332.573 11.5844C330.743 11.5423 320.313 11.8518 319.577 11.8034C319.466 11.7968 320.146 11.6996 319.993 11.6915C319.881 11.6853 317.501 11.7483 317.173 11.7215C316.983 11.7056 318.045 11.6345 317.958 11.6055C317.917 11.5946 317.049 11.5945 316.207 11.6134C315.507 11.6293 314.829 11.6599 314.752 11.711C315.1 11.684 315.754 11.6705 316.208 11.6764C316.713 11.6821 316.989 11.7093 316.427 11.7654C316.389 11.769 316.31 11.7677 316.21 11.7642C315.949 11.7544 315.54 11.7275 315.42 11.74C314.718 11.8125 315.31 11.8277 316.211 11.8221C317.327 11.8144 318.866 11.7778 319.251 11.7715C318.373 11.8282 317.337 11.8608 316.212 11.8829C313.768 11.9313 310.743 11.9253 308.438 12.0271C307.092 11.962 310.425 11.857 308.906 11.8102C305.739 11.7133 308.067 11.9472 307.97 11.9602C307.191 12.0631 304.459 11.6316 304.459 11.9959C303.29 11.9612 303.629 11.9095 302.028 11.9846C302.241 12.0062 302.453 12.0278 302.665 12.0494C300.896 12.2909 297.009 11.8245 297.295 11.779C298.082 11.657 300.091 11.7923 300.259 11.7853C300.521 11.7748 301.173 11.3941 303.97 11.6765C305.088 11.4094 299.592 11.5843 302.084 11.3726C300.43 11.4289 293.38 11.3757 292.402 11.5007C292.281 11.517 292.849 11.7545 291.112 11.6579C290.287 11.6118 292.274 11.5757 291.896 11.5257C290.656 11.3746 275.068 11.7425 272.037 11.8C271.845 11.8034 271.914 11.7256 271.726 11.7294C271.147 11.7409 269.025 11.8896 267.972 11.8713C270.153 11.978 265.915 12.0575 264.846 12.059C263.235 12.0612 263.33 11.9247 262.631 11.9072C259.933 11.8399 255.718 12.2275 253.63 11.9611C253.755 12.2564 249.979 11.8733 248.272 11.8976C246.945 11.9164 245.012 12.1435 246.813 12.235C244.517 12.2575 242.073 12.3514 239.906 12.4033C239.55 12.412 240.039 12.3164 239.432 12.3339C239.377 12.3361 239.302 12.4234 238.78 12.4405C234.465 12.583 236.561 12.3672 235.752 12.3261C235.298 12.303 234.963 12.2933 234.717 12.2921C237.247 12.2359 240.13 12.1569 240.916 12.1421C240.244 11.9625 235.346 12.2658 233.89 12.2373C233.84 12.2362 234.013 12.1287 233.962 12.1287C233.961 12.1287 233.96 12.1287 233.959 12.1288C233.413 12.1293 229.97 12.2215 230.682 12.3354C230.87 12.3659 232.455 12.3412 234.343 12.3004C233.833 12.3318 234.216 12.4433 234.126 12.4497C233.031 12.5248 230.364 12.4517 229.422 12.4508C229.206 12.4508 229.222 12.5258 229.187 12.5265C228.328 12.5228 228.677 12.3025 227.798 12.5377C226.237 12.2941 230.715 12.4527 230.395 12.2837C230.162 12.1536 220.196 12.3797 220.239 12.5898C220.204 12.5678 220.067 12.5419 219.787 12.5144C219.165 12.4532 216.394 12.5179 215.915 12.5642C215.834 12.5731 215.869 12.7772 215.769 12.7807C215.515 12.7893 212.134 12.6807 210.872 12.821C211.555 12.8392 212.237 12.8575 212.919 12.8757C208.801 12.9406 209.437 12.9917 210.811 13.0319C210.88 13.0314 210.947 13.0381 211.013 13.038C212.077 13.0669 213.44 13.0896 213.461 13.1054C213.543 13.1659 206.55 13.3072 207.892 13.0967C208.079 13.0679 211.317 13.1029 209.713 12.9919C209.432 12.9725 207.353 13.043 207.243 13.0297C206.511 12.9416 211.05 12.7402 210.492 12.6076C209.393 12.7588 207.978 12.7097 206.713 12.7637C206.138 12.7882 205.998 12.8929 205.927 12.8959C204.867 12.9389 205.461 12.8222 205.107 12.8303C204.918 12.8351 202.834 13.0959 203.224 12.7742C196.347 13.1111 201.327 13.0352 205.543 12.9531C204.213 13.0884 201.598 13.0726 200.425 13.1171C200.004 13.1332 200.255 13.2347 199.544 13.2666C198.079 13.3323 191.089 13.3172 189.269 13.3161C190.386 13.262 190.058 13.1522 189.195 13.1731C188.333 13.1941 189.06 13.3364 188.892 13.3554C188.713 13.3751 184.658 13.364 183.986 13.3939C187.034 13.2925 186.344 13.1885 183.756 13.2155C184.13 13.1769 184.503 13.1383 184.877 13.0997C183.36 13.1689 180.172 13.0423 179.298 13.1073C179.161 13.1178 179.655 13.2066 179.578 13.2124C178.811 13.2648 176.188 13.2061 176.067 13.2407C175.964 13.2696 177.082 13.3335 176.668 13.3794C176.582 13.3891 175.503 13.2752 174.444 13.323C174.052 13.3407 174.29 13.4281 174.191 13.4349C173.367 13.491 173.851 13.3305 172.345 13.3777C171.241 13.4124 170.425 13.5744 168.891 13.5477C173.913 13.6636 169.695 13.647 167.593 13.7362C167.257 13.7505 167.547 13.9114 165.538 13.8609C169.808 13.4984 164.315 13.7213 163.198 13.7347C163.137 13.7346 163.114 13.6259 162.565 13.6324C162.518 13.6332 162.586 13.7058 162.076 13.719C157.208 13.8447 160.32 13.7152 159.394 13.6564C158.999 13.6313 156.638 13.7706 156.004 13.7825C155.858 13.7849 155.924 13.7074 155.36 13.7188C154.36 13.7391 153.473 13.8337 152.81 13.85C152.733 13.8516 152.727 13.7309 151.47 13.7887C151.116 13.8049 150.72 13.8536 151.223 13.8809C152.902 13.9702 156.018 13.7264 157.9 13.8123C159.611 13.8906 154.222 13.9805 153.948 13.9852C153.845 13.9871 154.893 13.9116 153.827 13.9155C152.926 13.919 151.238 14.1526 149.877 14.1273C149.773 14.1255 148.682 13.9649 148.732 13.9538C148.777 13.9456 150.449 13.8825 150.205 13.8349C150.176 13.8295 149.113 13.8465 148.974 13.8104C148.804 13.7666 148.34 13.3185 148.113 13.3104C147.532 13.2909 147.911 13.389 147.536 13.3873C146.727 13.3841 143.948 13.2906 143.848 13.4498C144.314 13.4523 144.777 13.4548 145.236 13.4574C142.665 13.5116 143.757 13.5626 143.394 13.5975C143 13.6354 143.108 13.4951 142.238 13.495C142.045 13.495 138.419 13.5774 138.488 13.6346C140.488 13.5125 139.749 13.6947 139.841 13.6964C140.193 13.7024 140.64 13.5997 141.112 13.5946C144.439 13.5605 141.086 13.7617 141.872 13.7891C142.143 13.7983 142.68 13.7083 142.795 13.7108C143.169 13.7188 143.177 13.8262 143.426 13.8138C144.008 13.785 143.326 13.6431 143.372 13.6345C143.896 13.5316 145.916 13.6201 144.663 13.804C145.416 13.8525 145.502 13.6502 146.1 13.7217C147.292 13.8632 145.51 13.8487 145.029 13.8823C143.295 14.0032 142.763 13.9339 140.304 13.9966C139.418 14.019 138.373 14.1321 137.964 14.1435C137.708 14.1506 135.269 13.8468 135.196 14.3796C134.238 14.3423 132.737 14.014 131.759 14.0444C130.881 14.0719 131.163 14.2559 131.081 14.2643C130.956 14.2776 129.896 14.2784 129.539 14.3102C129.121 14.3478 129.331 14.4165 128.668 14.4555C127.021 14.5523 127.041 14.36 126.873 14.35C124.872 14.2351 125.752 14.4953 125.31 14.5237C124.878 14.5502 119.199 14.5283 117.948 14.6157C118.443 14.57 118.939 14.5243 119.436 14.4786C118.543 14.3719 117.607 14.5809 117.587 14.3664C117.412 14.7157 115.586 14.5107 115.043 14.5276C114.828 14.5344 114.846 14.5932 114.577 14.5997C113.528 14.6254 111.181 14.6127 110.591 14.6512C108.115 14.8164 114.442 14.9385 114.926 14.9444C113.948 14.9549 108.304 15.115 110.907 15.2436C111.312 15.2634 112.028 15.0978 112.245 15.0886C113.748 15.0267 112.567 15.183 112.685 15.1945C112.886 15.2129 113.876 15.064 114.139 15.0762C114.227 15.08 113.663 15.2142 115.108 15.1957C114.399 15.3281 110.345 15.2879 109.791 15.3246C109.603 15.3376 110.794 15.5811 107.303 15.3787C107.343 15.4023 107.384 15.4259 107.425 15.4495C105.491 15.4877 103.57 15.5257 101.602 15.5643C101.813 15.5054 102.909 15.3774 101.528 15.4213C100.734 15.4466 101.323 15.5623 101.251 15.567C100.531 15.6117 88.0458 15.7518 85.5505 15.8018C84.7169 15.8183 82.461 15.9509 82.2726 15.9555C81.1854 15.9812 77.4576 15.9702 76.7399 15.9947C76.2843 16.0103 76.7188 16.1079 76.3122 16.1089C75.9348 16.1097 76.3242 16.0037 76.2121 16.0011C75.217 15.9791 68.0801 16.2139 66.3209 16.1446C67.3831 16.1577 72.5826 15.882 72.4737 15.8128C72.4494 15.8034 71.1887 15.7453 70.9334 15.7862C70.5082 15.7054 69.0535 15.9911 68.2149 15.9513C68.1236 15.9467 68.4798 15.7931 67.0276 15.7871C66.5281 15.7851 65.2307 15.9196 63.9557 15.8083C63.834 15.8141 63.6784 15.8194 63.4942 15.8241C60.6949 15.8938 52.1056 15.8596 51.4207 16.0184C51.3978 16.0271 52.8365 16.0613 51.866 16.1408C50.5853 16.2462 51.7253 15.9367 50.2466 15.9328C50.0195 15.9322 45.978 16.0201 45.8175 16.0405C44.5561 16.2232 48.2241 16.237 48.1215 16.2576C48.0538 16.3067 44.9851 16.3801 44.8934 16.37C44.7783 16.3599 47.1848 16.1073 44.2955 16.2315C44.6236 16.2528 44.9542 16.2741 45.2872 16.2954C43.9268 16.3657 43.8082 16.2166 43.4836 16.2121C42.4918 16.1972 41.294 16.4434 39.6831 16.1837C39.2548 16.1148 39.9631 16.0212 39.9099 16.0107C39.3834 15.9173 38.7787 16.1963 37.9438 16.0067C37.8901 15.9924 39.7362 15.8451 36.4973 15.8913C36.7173 15.9075 36.9388 15.9236 37.1616 15.9398C36.695 15.9896 33.5019 16.0611 33.035 16.0576C31.7631 16.0461 32.8619 15.8915 31.6026 15.9262C32.4421 16.1043 28.5111 16.1855 28.7462 16.0184C28.2383 16.2313 24.9164 16.1202 23.3483 16.1378C22.3583 16.149 20.3796 16.2669 20.0541 16.2611C19.6763 16.2536 19.7843 16.1118 19.1163 16.0901C18.9464 16.0836 16.9044 16.2155 15.0776 16.0962C14.7291 16.0732 14.0237 15.8453 14.648 15.7769C15.7515 15.6596 17.8296 15.8217 17.8083 15.6814C17.7771 15.5315 14.9408 15.6612 14.2248 15.6517C10.7017 15.6108 12.7467 15.422 12.6391 15.375C12.4463 15.2602 10.47 15.2917 10.4285 15.2817C10.1056 15.2392 11.4207 15.1277 11.454 15.0554C11.4629 14.9618 9.65831 14.8186 10.0628 14.7814C10.6372 14.7286 12.3885 14.8444 12.4575 14.8367C13.8146 14.7269 11.9848 14.5369 11.3999 14.439C11.2355 14.4087 11.8877 14.3459 11.7521 14.3382C9.70684 14.2218 11.34 14.6475 9.98281 14.6366C8.7579 14.6271 10.3285 14.4631 10.2926 14.4558C10.2077 14.4484 8.78529 14.4607 8.56447 14.4135C8.43981 14.3902 12.1498 14.062 12.03 13.9399C10.7939 13.9847 9.62486 14.0284 8.44776 14.0721C8.39017 13.9116 10.031 14.0073 10.2544 13.9875C10.6207 13.949 9.58832 13.8819 9.63618 13.8302C9.65188 13.7975 10.8689 13.6646 9.77146 13.6323C9.40407 13.621 8.63789 13.7449 7.34301 13.6474C11.8985 13.4361 8.72838 13.3897 8.615 13.3342C8.47756 13.279 10.6521 13.114 7.99284 13.175C7.8715 12.8627 8.05144 13.0749 8.8184 13.009C9.72649 12.9284 7.58753 12.8551 10.9733 12.886C10.8069 12.7413 8.07331 12.7901 7.91388 12.7805C7.78725 12.7717 8.39895 12.6908 8.17963 12.6694C5.63642 12.4208 7.37847 12.5262 6.63559 12.3552C6.59219 12.3396 4.13513 12.3062 6.01235 12.2539C9.31463 12.1601 10.7525 12.3479 11.2913 11.895C8.80087 11.7367 5.86205 12.065 5.08088 12.0806C3.90896 12.1036 5.14508 11.9959 4.9842 11.9726C4.93216 11.9651 3.93406 11.9862 3.93125 11.979C3.19182 11.6497 8.33203 11.913 9.95001 11.8309C9.50072 11.7863 9.07232 11.7415 8.66383 11.6963C9.21036 11.6866 9.82914 11.6759 10.4158 11.6656C7.57237 11.6033 10.3672 11.6276 10.9943 11.3437C11.1455 11.2798 9.34262 11.4112 11.4095 11.2103C9.8822 11.1921 10.3473 11.1294 8.96496 11.2263C8.96967 11.1161 12.1795 10.9466 13.3789 10.873C8.98634 10.8111 11.4969 11.1802 7.70617 11.0193C7.00879 11.1655 8.82279 11.1136 8.68465 11.1381C8.11937 11.227 6.9013 11.1154 5.40308 11.4199C5.16193 11.4698 6.18691 11.5992 4.67293 11.6131C4.49144 11.6146 3.53363 11.505 3.5396 11.496C3.68181 11.3981 4.61962 11.4213 4.67306 11.3805C4.69544 11.3423 3.65052 11.3793 3.62951 11.369C3.60493 11.2491 4.52044 11.311 4.38747 11.2751C4.0988 11.1972 0.242502 10.9905 5.27114 10.9981C1.07789 11.1911 4.77514 11.138 6.36664 11.0635C6.76638 11.0449 6.91488 10.971 7.48336 10.9382C7.84854 10.9169 8.26993 10.9116 8.658 10.9091C9.00461 10.9072 9.32379 10.908 9.5225 10.8986C9.94536 10.8782 7.5349 10.7422 11.0191 10.7439C9.23046 10.6002 6.15533 10.8234 4.37368 10.729C0.873083 10.5367 6.82054 10.4046 7.44788 10.3722C7.60595 10.3637 7.07509 10.274 7.17645 10.2667C7.3035 10.2559 10.7753 10.2521 11.0555 10.1678C11.3767 10.083 9.84855 10.1885 9.7138 10.1067C9.67508 10.0509 13.7437 9.89365 11.5148 9.88659C10.0324 9.88116 7.18552 10.1473 6.70624 9.91061C8.96113 9.85915 11.2054 9.80738 13.43 9.75577C12.2024 9.68055 10.9755 9.60528 9.74654 9.52996C12.2729 9.46511 14.4196 9.5392 16.824 9.3725C11.0821 9.15733 18.6562 9.10975 18.7838 9.07175C18.8254 9.04957 16.5044 8.84179 16.1903 8.8022C18.1626 8.68161 24.2646 8.54923 20.6931 8.30286C21.3934 8.36001 22.8695 8.17321 22.8713 8.16067C22.6774 8.03209 19.2575 8.16606 19.8142 8.03947C20.4522 7.8927 21.4021 8.06593 22.3569 8.03738C27.4572 7.88673 26.0263 7.22145 31.1676 7.25627C31.0687 7.23327 30.9701 7.21027 30.8719 7.18726C36.3996 7.14685 41.9533 7.10584 47.5304 7.06437C49.6247 6.82481 55.4286 6.61362 58.3038 6.5953C58.8493 6.59194 61.6535 6.66138 61.8794 6.67739C62.2743 6.70862 60.1003 6.75408 61.0827 6.80914C61.178 6.81432 62.2457 6.81225 63.3638 6.79712C64.5914 6.78058 65.8841 6.74622 65.7007 6.68571C65.2111 6.68029 63.79 6.74956 63.363 6.74224C63.3229 6.74164 63.2908 6.74043 63.2681 6.73853C62.9896 6.71477 63.0499 6.69317 63.362 6.67331C65.1045 6.55469 76.1079 6.50221 76.7098 6.42525C76.3899 6.39183 76.0712 6.35839 75.7536 6.32494C76.6572 6.33058 77.57 6.3361 78.4917 6.34148ZM36.1467 16.3621C35.5986 16.4876 34.2394 16.4188 33.3841 16.4641C32.2236 16.5269 30.3779 17.0061 31.1724 16.541C32.7646 16.4823 34.5547 16.4208 36.1467 16.3621ZM60.5059 16.1865C59.3932 16.1394 60.247 15.8737 61.1698 15.9657C61.2734 15.9762 62.0235 16.2496 60.5059 16.1865ZM48.7975 16.235C48.8422 16.231 49.799 16.224 49.8342 16.2274C50.6938 16.3168 47.8117 16.3375 48.7975 16.235ZM105.427 15.2851C104.209 15.3138 105.093 15.5313 105.852 15.4254C105.9 15.4187 105.507 15.2834 105.427 15.2851ZM104.561 15.2917C103.61 15.0992 101.653 15.5458 103.204 15.4811C103.356 15.4747 104.612 15.301 104.561 15.2917ZM56.5322 16.1431C56.6478 16.0623 57.8696 16.0829 58.3211 16.0953C58.3258 16.1674 57.0249 16.1271 56.5322 16.1431ZM85.7657 15.6985C85.795 15.6359 81.8713 15.6962 81.5512 15.7828C82.2398 15.7381 85.6989 15.7554 85.7657 15.6985ZM96.0692 15.4616C95.9647 15.4524 94.565 15.4891 94.6075 15.5433C95.2888 15.6054 96.5344 15.5035 96.0692 15.4616ZM116.485 15.1676C116.562 15.1527 115.512 14.8191 117.986 15.0126C118.349 15.0409 117.054 15.151 117.184 15.1617C117.454 15.1821 117.667 15.1904 117.839 15.1899C116.687 15.2357 115.5 15.2667 115.385 15.2472C114.843 15.1551 116.451 15.1739 116.485 15.1676ZM127.225 14.7501C127.47 14.6896 128.963 14.6981 129.304 14.7166C129.363 14.7201 129.11 14.8734 129.784 14.8523C130.326 14.8351 129.513 14.6938 130.57 14.7028C131.639 14.7117 130.213 14.8419 130.307 14.8483C130.431 14.8567 132.085 14.7636 132.036 14.8534C131.997 14.92 130.224 14.9014 129.788 14.9219C129.229 14.9481 129.908 15.0481 128.974 15.0382C128.388 15.0321 128.71 14.8339 128.586 14.826C128.491 14.8195 126.413 14.9613 127.228 14.7507C127.227 14.7505 127.226 14.7503 127.225 14.7501ZM118.15 15.1768C118.064 15.1846 117.962 15.1896 117.839 15.1899C117.943 15.1858 118.047 15.1812 118.15 15.1768ZM39.3883 16.2307C39.9565 16.2822 38.2794 16.3828 37.5863 16.3146C37.5779 16.2517 39.3161 16.2224 39.3883 16.2307ZM119.219 15.0037C120.927 15.0271 119.677 15.1121 118.15 15.1768C118.633 15.1333 118.642 14.9959 119.219 15.0037ZM70.9334 15.7862C71.0042 15.7996 71.0495 15.8215 71.0557 15.8583C70.8691 15.8206 70.8523 15.7991 70.9334 15.7862ZM74.9094 15.7947C76.2927 15.6621 73.4808 15.7073 73.506 15.7875C73.5131 15.8178 74.8523 15.8 74.9094 15.7947ZM106.997 15.2732C106.874 15.264 108.792 14.8962 106.004 15.1919C107.492 15.2102 105.922 15.2701 105.947 15.2995C106.006 15.3842 108.512 15.2654 109.075 15.2942C109.509 15.1348 107.404 15.3036 107 15.2732C106.999 15.2732 106.998 15.2732 106.997 15.2732ZM146.553 14.5477C146.214 14.6424 145.14 14.6294 144.412 14.6349C144.753 14.5402 145.825 14.5532 146.553 14.5477ZM337.49 11.4895C332.503 11.6693 331.784 11.3175 336.426 11.3723C336.517 11.3736 337.789 11.4467 337.49 11.4895ZM294.575 12.1656C294.115 12.0142 295.621 11.9632 296.677 12.011C296.913 12.0218 297.784 12.1683 296.792 12.2166C296.815 12.0233 295.297 11.9753 294.575 12.1656ZM120.18 14.8877C120.668 14.7744 122.182 14.8277 122.984 14.8319C122.496 14.9265 120.882 14.9106 120.18 14.8877ZM321.059 11.6081C320.54 11.6055 320.189 11.7503 320.279 11.7602C320.685 11.8057 321.65 11.6762 321.059 11.6081ZM115.241 14.9435C115.17 14.8811 117.189 14.7905 117.334 14.9452C116.899 14.9402 115.291 14.9825 115.241 14.9435ZM145.183 14.5203C144.871 14.4927 146.484 14.4111 146.975 14.4358C146.936 14.5039 145.387 14.5383 145.183 14.5203ZM312.586 11.8067C312.114 11.803 310.92 11.8203 310.787 11.8786C310.626 11.9514 312.375 11.8968 312.586 11.8067ZM400.354 9.45184C400.409 9.47539 398.595 9.71014 397.782 9.68851C396.244 9.64637 400.288 9.43581 400.354 9.45184ZM326.055 11.445C327.529 11.5494 325.894 11.4522 325.96 11.5896C326.951 11.5763 329.405 11.5372 327.708 11.4326C327.383 11.4123 326.519 11.4454 326.055 11.445ZM324.684 11.424C324.525 11.4718 323.443 11.6334 324.38 11.606C324.812 11.5931 325.501 11.423 324.684 11.424ZM389.111 9.97318C387.753 9.91478 393.943 9.69404 394.109 9.6945C394.202 9.70078 394.263 9.70823 394.297 9.71543C394.447 9.68076 395.03 9.63709 395.419 9.64328L395.328 9.64701C395.518 9.65359 395.665 9.66983 395.709 9.69992C395.617 9.70054 395.482 9.70364 395.33 9.70776L395.422 9.70398C395.019 9.72359 394.494 9.75492 394.409 9.75153C394.361 9.74947 394.327 9.74694 394.303 9.74382C393.909 9.85738 389.376 9.99212 389.111 9.97318ZM378.928 10.202C380.503 9.97349 380.726 10.2739 380.609 10.2876C378.974 10.464 380.036 10.2041 379.988 10.195C379.88 10.1807 378.664 10.3228 378.933 10.2019C378.932 10.2019 378.93 10.202 378.928 10.202ZM387.016 10.0068C387.105 9.99971 388.35 9.95996 388.43 9.96121C389.499 10.0224 385.829 10.1408 387.016 10.0068ZM135.306 14.4158C136.231 14.4328 135.325 14.5594 134.711 14.5277C134.661 14.5245 134.491 14.4008 135.306 14.4158ZM323.945 11.4681C323.679 11.4518 318.322 11.4683 318.627 11.6337C319.097 11.6054 325.254 11.5811 323.945 11.4681ZM283.277 12.1294C284.242 12.1148 283.194 12.2935 282.676 12.2419C282.484 12.2227 283.034 12.1332 283.277 12.1294ZM112.535 14.8365C111.551 14.9395 111.75 14.6392 112.606 14.7286C112.639 14.7321 112.573 14.8325 112.535 14.8365ZM290.946 12.0947C287.597 12.2484 288.408 11.7234 292.723 11.8238C292.589 11.8488 292.455 11.8739 292.321 11.8989C297.258 11.8926 292.671 11.9291 291.443 11.9783C290.979 11.997 291.37 12.0758 290.949 12.0953C290.948 12.0951 290.947 12.0949 290.946 12.0947ZM278.234 12.2026C275.065 11.8913 281.07 12.0295 282.867 11.9524C281.151 12.1307 278.961 12.144 281.964 12.2481C277.592 12.3497 279.418 12.175 279.24 12.1659C279.034 12.1558 278.369 12.2159 278.234 12.2026ZM286.636 12.0616C286.82 12.0479 288.193 12.099 288.686 12.0787C288.002 12.2142 285.423 12.1537 286.636 12.0616ZM368.319 10.5743C368.441 10.474 368.675 10.3967 369.804 10.4043C369.442 10.4624 368.771 10.5214 368.319 10.5743ZM35.1053 15.8655C34.3873 15.8689 32.8136 15.8548 33.2943 15.9501C33.3402 15.9582 35.1312 15.9225 35.1053 15.8655ZM308.135 11.6716C307.99 11.6623 303.824 11.7263 305.266 11.8086C305.714 11.8333 309.456 11.7545 308.135 11.6716ZM329.625 11.2959C329.28 11.3014 327.816 11.3472 327.813 11.3702C327.694 11.4519 329.48 11.3748 329.625 11.2959ZM31.3013 15.8206C31.2502 15.8113 28.8556 15.8635 29.1321 15.9067C29.6094 15.989 31.6605 15.8502 31.3013 15.8206ZM138.632 14.1391C138.824 14.1327 139.08 14.2345 139.146 14.2347C139.3 14.2339 142.83 14.1412 141.483 14.2967C141.249 14.3228 136.205 14.3452 135.537 14.3416C135.284 14.2004 137.445 14.3064 137.968 14.2838C138.061 14.2796 138.118 14.1575 138.631 14.1397C138.631 14.1395 138.632 14.1393 138.632 14.1391ZM374.02 10.3234C374.15 10.2287 378.341 10.0491 378.281 10.1614C376.848 10.2175 375.447 10.2707 374.02 10.3234ZM371.899 10.3648C371.015 10.3228 373.115 10.2461 373.715 10.2583C373.737 10.3199 372.029 10.371 371.899 10.3648ZM321.739 11.0976C321.334 11.1275 322.585 11.2392 322.306 11.2704C322.129 11.2899 321.218 11.2561 320.926 11.3034C320.844 11.3183 321.778 11.4277 322.044 11.4174C322.427 11.4031 322.044 11.3106 322.477 11.3021C323.928 11.2734 325.19 11.3211 326.498 11.2952C326.616 11.2926 325.699 11.2394 326.706 11.2217C326.876 11.2186 327.748 11.307 329.026 11.2675C331.76 10.8921 333.691 11.1736 337.129 10.9899C337.011 10.9617 334.44 10.9297 334.276 10.9297C331.441 10.9312 326.328 11.0212 323.301 11.0757C322.517 11.0898 322.899 11.1514 322.56 11.1601C322.295 11.1668 322.591 11.0344 321.739 11.0976ZM35.4951 15.7897C35.1577 15.6677 33.8759 15.7664 33.0598 15.7716C33.3353 15.882 34.7566 15.7722 35.4951 15.7897ZM353.301 10.705C352.887 10.7188 351.618 10.7077 351.531 10.7477C351.385 10.8008 353.212 10.7932 353.301 10.705ZM158.511 13.8807C158.55 13.8767 159.524 13.869 159.561 13.8725C160.432 13.9613 157.513 13.9838 158.511 13.8807ZM181.751 13.5576C182.486 13.5309 183.229 13.4801 183.478 13.5792C183.008 13.5705 181.665 13.6306 181.751 13.5576ZM213.805 13.0678C213.648 12.9355 215.871 12.9886 216.291 12.9942C216.137 13.0565 213.914 13.1633 213.805 13.0678ZM368.15 10.1554C369.483 10.13 369.19 9.93311 370.074 10.003C370.216 10.0149 370.693 10.4281 369.167 10.3075C368.903 10.2855 369.932 10.1587 368.15 10.1554ZM293.421 11.8163C293.763 11.7214 294.832 11.7299 295.548 11.7249C295.39 11.7938 293.938 11.8013 293.421 11.8163ZM27.142 15.7783C26.4505 15.6623 23.5975 15.7965 24.308 15.8695C24.3907 15.8792 26.696 15.7799 27.142 15.7783ZM123.602 14.4309C124.809 14.3141 122.305 14.3202 121.524 14.4284C121.878 14.4169 123.52 14.4387 123.602 14.4309ZM206.105 13.1124C206.163 13.1074 207.446 13.0974 207.503 13.1014C208.556 13.1888 204.925 13.2178 206.105 13.1124ZM174.106 13.5088C174.565 13.4203 177.603 13.4406 178.287 13.512C177.631 13.6411 173.534 13.6192 174.106 13.5088ZM362.562 10.3483C363.482 10.3225 364.483 10.3239 365.345 10.3383C365.186 10.4111 362.625 10.3983 362.562 10.3483ZM210.811 13.0319C210.88 13.0314 210.947 13.0381 211.013 13.038C210.944 13.0361 210.877 13.0338 210.811 13.0319ZM340.932 10.7636C340.118 10.7526 340.288 10.8751 340.339 10.8779C340.956 10.9064 341.849 10.7759 340.932 10.7636ZM34.5917 15.6159C34.2945 15.5066 32.9014 15.6147 32.1325 15.5987C32.3525 15.6852 33.9287 15.6373 34.5917 15.6159ZM274.809 12.0259C273.784 11.9196 277.948 11.7086 278.808 11.7738C278.88 11.8487 274.966 12.0403 274.809 12.0259ZM119.868 14.3154C119.789 14.2275 118.032 14.3606 118.406 14.3972C118.641 14.4205 119.923 14.3698 119.868 14.3154ZM280.872 11.7918C281.254 11.7583 282.183 11.8308 281.858 11.8897C281.443 11.9651 280.77 11.8012 280.872 11.7918ZM315.79 11.1254C315.629 11.1147 313.367 11.2461 314.304 11.3203C314.954 11.3718 315.054 11.2414 315.205 11.2383C315.265 11.2374 315.743 11.2482 316.201 11.2539C317.036 11.2632 317.817 11.2575 316.199 11.1525C316.077 11.1441 315.942 11.135 315.79 11.1254ZM251.613 12.3209C252.478 12.273 253.523 12.2961 254.423 12.2794C254.058 12.3402 251.983 12.3881 251.613 12.3209ZM126.563 14.1934C126.342 14.1607 120.634 14.2227 123.878 14.2859C124.064 14.2894 127.205 14.2929 126.563 14.1934ZM368.15 10.1554C367.981 10.1586 367.784 10.1593 367.553 10.1562C367.782 10.154 367.979 10.1551 368.15 10.1554ZM352.739 10.4966C353.048 10.4253 351.469 10.4418 351.025 10.4856C350.888 10.5677 352.671 10.5072 352.739 10.4966ZM254.49 12.1879C255.009 12.1426 255.949 12.1672 256.589 12.1527C256.482 12.2146 254.717 12.2455 254.49 12.1879ZM217.926 12.6913C218.961 12.7112 220.232 12.6752 220.25 12.6012C220.272 12.6124 220.322 12.6239 220.406 12.6349C220.49 12.6457 221.595 12.5944 222.075 12.6122C224.96 12.7171 210.953 12.8711 219.07 12.5382C218.689 12.5893 218.308 12.6403 217.926 12.6913ZM170.001 13.3969C169.411 13.316 167.766 13.4529 168.194 13.4819C168.491 13.5016 170.592 13.4783 170.001 13.3969ZM192.577 13.0042C192.401 12.9909 190.798 13.0779 190.757 13.1257C191.68 13.1615 193.377 13.0664 192.577 13.0042ZM165.483 13.3593C165.114 13.3513 164.647 13.5029 164.691 13.5085C165.065 13.5557 166.102 13.4306 165.483 13.3593ZM365.33 9.835C364.81 9.80626 362.976 9.95441 362.648 10.0575C362.578 10.0406 362.392 10.0209 362.046 10.0001C362.047 10.0001 362.048 10.0001 362.049 10C361.501 9.9781 347.492 10.2425 356.924 10.2197C357.224 10.2189 356.819 10.1423 358.031 10.1303C358.11 10.1296 358.152 10.1986 358.396 10.1965C358.923 10.1924 362.009 10.1657 362.577 10.0958C362.582 10.1086 362.621 10.1201 362.702 10.1295C363.43 10.2136 365.77 9.8564 365.33 9.835ZM195.757 12.9432C195.434 12.9222 194.412 12.9623 194.307 13.0256C194.815 13.0482 196.508 12.9923 195.757 12.9432ZM126.381 13.9427C125.717 13.9017 124.048 14.0211 124.554 14.0642C124.862 14.0907 127.146 13.9898 126.381 13.9427ZM185.52 13.1309C189.296 13.147 186.42 13.1114 186.997 13.0122C186.505 13.0518 186.012 13.0914 185.52 13.1309ZM382.801 9.58588C382.169 9.58579 382.918 9.38267 383.576 9.45736C383.784 9.48115 383.154 9.58559 382.801 9.58588ZM409.965 8.52516C409.431 8.39266 412.009 8.36299 411.008 8.52051C410.961 8.52743 410.002 8.53032 409.965 8.52516ZM391.012 9.14665C390.622 9.27268 390.353 9.29906 389.178 9.32279C390.909 9.21673 389.298 9.19336 391.012 9.14665ZM220.239 12.5898C220.246 12.5941 220.251 12.5972 220.25 12.6012C220.243 12.5974 220.24 12.5937 220.239 12.5898ZM161.945 13.4402C161.473 13.3558 160.142 13.3824 160.539 13.4684C160.577 13.4764 161.756 13.5105 161.945 13.4402ZM362.648 10.0575C362.709 10.0724 362.678 10.0837 362.577 10.0958C362.572 10.0837 362.598 10.0715 362.648 10.0575ZM169.045 13.2598C168.999 13.3286 171.019 13.3249 171.096 13.3158C172.248 13.1803 169.882 13.2431 169.045 13.2598ZM113.064 14.0419C112.961 14.0505 113.627 14.2168 114.035 14.1419C114.351 14.0838 113.449 14.0092 113.064 14.0419ZM394.932 8.89919C395.074 8.8916 395.226 8.88352 395.379 8.87652L395.305 8.87956C395.859 8.86604 396.423 8.86352 396.557 8.92453C396.293 8.92464 395.724 8.9352 395.307 8.9301L395.382 8.92701C395.124 8.92896 394.928 8.92349 394.932 8.89919ZM408.964 8.45051C408.201 8.57878 406.468 8.63641 405.37 8.65386C405.342 8.52617 408.247 8.51084 408.964 8.45051ZM367.057 9.84115C366.99 9.83765 365.402 9.83769 365.624 9.91886C365.918 10.0389 367.52 9.8769 367.057 9.84115ZM116.159 14.0901C116.875 14.02 115.223 13.8609 114.475 14.0134C114.089 14.0915 116.037 14.1018 116.159 14.0901ZM157.801 13.3822C156.857 13.4463 159.199 13.5008 159.526 13.4054C159.09 13.4046 158.136 13.3595 157.801 13.3822ZM189.921 12.8093C186.943 12.5932 188.57 13.045 189.097 12.9951C189.171 12.988 189.993 12.8144 189.921 12.8093ZM19.7377 15.3621C19.3166 15.4044 20.8883 15.5135 21.1092 15.4238C21.2341 15.3678 19.9968 15.3353 19.7377 15.3621ZM234.717 12.2921C234.591 12.2949 234.466 12.2978 234.343 12.3004C234.435 12.2947 234.557 12.2914 234.717 12.2921ZM149.227 13.1596C151.328 13.4972 151.106 13.2163 151.288 13.2152C151.682 13.2133 152.606 13.2993 153.344 13.272C152.498 13.326 151.641 13.3803 150.792 13.4344C151.476 13.4509 157.283 13.5004 157.407 13.4387C157.581 13.351 155.75 13.4049 155.697 13.3982C155.62 13.3886 155.331 13.1562 155.162 13.1498C154.891 13.1394 150.008 13.2069 149.227 13.1596ZM183.7 12.9441C184.178 12.965 184.316 13.0567 184.538 13.031C184.613 13.0222 184.624 12.9325 184.882 12.9055C184.488 12.9184 184.094 12.9312 183.7 12.9441ZM145.491 13.5464C144.899 13.4459 147.546 13.4482 147.632 13.4592C148.087 13.5265 145.973 13.6286 145.491 13.5464ZM168.036 13.1955C167.938 13.1906 165.896 13.1869 165.914 13.2473C166.453 13.2855 169.186 13.2581 168.036 13.1955ZM185.201 12.8946C185.919 12.8942 187.277 12.9638 187.119 12.8315C187.118 12.8315 187.117 12.8315 187.116 12.8315C186.478 12.8526 185.839 12.8736 185.201 12.8946ZM118.616 13.7696C117.274 13.5748 117.911 13.8365 119.099 13.8883C119.458 13.7868 118.836 13.8013 118.616 13.7696ZM114.352 13.6721C113.987 13.6388 110.192 13.7366 110.766 13.8417C110.985 13.8789 113.163 13.7451 113.26 13.7515C113.413 13.7609 112.72 13.8966 113.88 13.8548C113.811 13.8132 114.478 13.6831 114.352 13.6721ZM117.506 13.6485C116.178 13.5048 115.886 13.81 116.882 13.7963C117.271 13.7911 117.696 13.6693 117.506 13.6485ZM122.898 13.5952C122.423 13.5736 121.163 13.5505 120.301 13.6632C121.457 13.6548 122.619 13.6463 123.787 13.6377C123.92 13.5791 123.313 13.6142 122.895 13.5952C122.896 13.5952 122.897 13.5952 122.898 13.5952ZM417.722 6.40041C416.502 6.86584 419.202 5.56858 419.258 5.47307C419.611 5.34656 418.297 6.21065 417.722 6.40041ZM11.5143 12.7453C11.218 12.7154 11.0172 12.6064 10.4025 12.6736C11.0085 12.7477 11.7099 12.8205 12.336 12.8942C12.8174 12.6981 11.8629 12.7779 11.5143 12.7453ZM9.0435 12.0884C9.13825 12.0825 8.62313 11.7986 9.81201 11.9763C10.5998 12.0965 6.28325 12.2848 5.50129 12.1663C6.37051 12.0944 8.25899 12.1368 9.0435 12.0884ZM1.4633 10.9317C1.39857 10.9095 3.03769 10.8541 3.24207 10.8676C4.22324 10.9407 1.73121 11.0531 1.4633 10.9317ZM6.68952 10.9168C5.91472 10.8711 7.63306 10.8108 8.13449 10.8363C8.17303 10.8899 6.82954 10.9231 6.68952 10.9168ZM406.095 3.56052C405.258 3.38932 404.526 3.83795 405.805 3.71205C405.867 3.70606 406.131 3.56908 406.095 3.56052ZM3.06235 10.6173C3.83737 10.6634 2.11407 10.723 1.61294 10.6967C1.58139 10.6431 2.92095 10.611 3.06235 10.6173ZM405.495 3.1081C404.385 3.00027 404.791 3.46544 404.928 3.48054C405.497 3.53965 407.446 3.28878 407.84 3.22731C404.928 3.39754 406.016 3.15787 405.495 3.1081ZM400.4 3.54803C399.375 3.62922 402.003 3.64937 402.499 3.5013C401.985 3.52299 400.692 3.5247 400.4 3.54803ZM394.112 3.60601C393.553 3.62004 391.934 3.66452 391.656 3.7526C392.243 3.71088 393.891 3.69577 394.112 3.60601ZM392.854 3.4484C391.997 3.39104 391.791 3.69949 392.787 3.55888C392.824 3.55347 392.884 3.45246 392.854 3.4484ZM388.029 3.56513C387.465 3.46958 386.847 3.78213 387.743 3.75443C387.998 3.74599 388.096 3.57597 388.029 3.56513ZM404.096 2.63701C403.285 2.61071 402.246 2.84827 403.977 2.81895C403.374 2.86874 402.759 2.91861 402.156 2.968C404.429 3.01622 404.249 2.73467 404.902 2.72657C405.811 2.71519 405.746 2.95325 405.565 3.03324C406.305 2.86442 409.477 2.76625 411.25 2.63686C409.687 2.66553 407.078 2.64491 405.49 2.65635C405.039 2.65936 404.597 2.73775 404.214 2.74212C403.591 2.74905 404.142 2.63904 404.1 2.63691C404.099 2.63695 404.097 2.63698 404.096 2.63701ZM381.681 3.78838C379.988 3.70804 381.09 3.96303 382.007 3.88168C382.047 3.87643 381.723 3.79032 381.681 3.78838ZM0.844222 9.76597C3.07764 9.85907 1.43121 10.0414 6.1024 9.73402C4.13065 9.9336 5.98859 9.85958 5.60675 9.93437C5.44752 9.96408 5.09257 9.97132 4.86427 9.98379C4.60746 9.99664 4.48343 10.0146 4.835 10.0652C3.94073 9.95678 0.132099 10.0429 0.01421 10.0176C0.0157284 10.0176 0.0172442 10.0176 0.0187582 10.0176C-0.069099 10.0057 0.135078 9.73616 0.844222 9.76597ZM394.062 2.85071C393.498 2.52953 393.297 3.09978 392.203 2.86506C391.27 3.19622 393.345 2.99315 395.069 2.91197C395.08 2.91112 395.113 2.91028 395.124 2.90967C395.98 2.88994 396.724 2.9004 396.948 3.01212C395.923 3.03557 395.37 3.05822 395.129 3.07736C395.119 3.07793 395.088 3.07871 395.077 3.07951C394.873 3.10045 394.907 3.11343 395.079 3.1191C395.09 3.11832 395.12 3.11755 395.13 3.11699C395.914 3.15948 399.544 3.1165 396.721 2.83818C400.143 2.9304 397.838 2.73873 398.363 2.65496C398.929 2.56559 400.859 2.58761 400.759 2.45969C400.758 2.45972 400.757 2.45975 400.756 2.45979C399.57 2.50388 398.395 2.54763 397.212 2.59207C398.375 2.83973 395.956 2.82707 395.13 2.62224C395.125 2.62318 395.12 2.62412 395.116 2.62506C395.103 2.62573 395.066 2.62667 395.054 2.62761C394.723 2.70149 394.396 2.77591 394.062 2.85071ZM400.825 2.89008C400.709 2.88701 398.139 3.00238 398.305 3.0542C398.65 3.08003 402.298 2.92925 400.825 2.89008ZM412.097 2.41129C412.096 2.41131 412.095 2.41134 412.095 2.41137C412.081 2.41229 412.039 2.41397 412.025 2.41528C411.158 2.47736 409.75 2.48212 409.254 2.6081C410.168 2.57404 411.563 2.55783 412.025 2.41566C412.039 2.41435 412.081 2.41267 412.095 2.41175C412.095 2.4116 412.096 2.41144 412.097 2.41129ZM364.664 4.01537C363.505 4.13063 367.067 4.0705 366.036 3.99197C365.991 3.98826 364.726 4.00985 364.664 4.01537ZM391.41 3.04299C390.212 2.99312 390.809 3.30721 391.671 3.17553C391.724 3.16768 391.458 3.04557 391.41 3.04299ZM2.63906 9.70177C2.73467 9.61708 5.94271 9.63213 6.5101 9.62338C6.19708 9.70572 2.56936 9.79899 2.63906 9.70177ZM413.501 2.01162C413.112 1.97337 412.665 1.95828 412.076 1.9764C412.06 1.97748 412.011 1.97946 411.995 1.981C410.658 2.05996 409.311 2.28475 409.12 2.28847C408.852 2.29129 409.266 2.14328 409.204 2.14217C409.073 2.14331 406.192 2.25417 406.053 2.26597C405.953 2.27632 406.481 2.4444 405.89 2.52158C406.852 2.40414 410.712 2.30871 412.01 2.20642C412.026 2.205 412.071 2.20318 412.086 2.20218C412.375 2.19049 412.537 2.18309 412.579 2.17774C412.679 2.16536 412.351 2.12652 412.285 2.09223C412.199 2.05211 412.547 2.04795 413.499 2.01189C413.5 2.0118 413.501 2.01171 413.501 2.01162ZM408.441 2.27416C409.163 2.32529 407.154 2.40842 406.661 2.39465C405.576 2.36663 408.351 2.27044 408.441 2.27416ZM403.586 2.36053C403.352 2.35034 401.267 2.39635 401.091 2.48777C402.077 2.57084 404.114 2.38527 403.586 2.36053ZM380.351 3.2393C379.844 3.26638 378.295 3.24656 378.242 3.32338C378.747 3.2977 380.297 3.31662 380.351 3.2393ZM13.6412 8.89084C13.178 8.86585 13.4771 8.83941 13.9863 8.82165C14.4456 8.8046 15.1152 8.79623 15.4272 8.80693C15.4358 8.8571 13.763 8.89454 13.6412 8.89084ZM391.179 2.33256C390.852 2.33762 384.365 2.65326 383.445 2.71145C384.353 2.74585 390.771 2.49512 391.08 2.44062C391.165 2.42818 391.219 2.33422 391.179 2.33256ZM405.398 1.78475C405.995 1.655 406.389 1.77529 406.463 1.77455C407.202 1.76829 408.73 1.68776 408.397 1.8067C407.103 1.81294 404.212 2.042 405.398 1.78475ZM379.881 2.75125C377.66 2.86052 381.92 2.84651 381.366 2.74687C381.328 2.74122 380.097 2.74044 379.881 2.75125ZM391.901 2.26441C392.102 2.21614 393.449 2.13604 395.024 2.05571C395.039 2.05458 395.083 2.05346 395.098 2.05265C397.123 1.99663 399.468 1.95238 400.062 1.93493C399.124 2.1281 398.361 2.02483 397.094 2.07104C396.75 2.08378 396.843 2.14987 396.806 2.15108C396.219 2.17184 396.657 2.07919 396.292 2.08891C396.22 2.09093 395.737 2.11421 395.101 2.14231C395.087 2.14309 395.043 2.14419 395.029 2.14529C393.568 2.2446 391.431 2.37769 391.901 2.26441ZM405.738 1.6971C406.103 1.62587 410.158 1.45361 410.304 1.4544C411.53 1.53454 406.069 1.71835 405.738 1.6971ZM391.297 2.14714C391.966 1.92487 395.224 1.87554 393.012 2.09158C392.794 2.11212 391.913 2.07502 391.297 2.14714ZM380.109 2.56103C380.013 2.55883 377.681 2.59028 377.651 2.65195C377.966 2.66752 381.346 2.58528 380.109 2.56103ZM381.305 2.31648C381.245 2.31979 381.81 2.41991 380.695 2.44019C380.582 2.4422 380.466 2.31377 379.079 2.40438C378.787 2.4232 378.372 2.52328 378.404 2.52779C379.867 2.69435 384.059 2.15894 381.305 2.31648ZM405.809 1.58735C405.587 1.53839 406.114 1.35563 406.59 1.42412C406.797 1.45361 406.419 1.56602 405.809 1.58735ZM372.772 2.71719C374.114 2.5809 369.901 2.67328 369.666 2.70423C369.83 2.76316 372.609 2.73179 372.772 2.71719ZM15.7388 8.08341C15.7377 8.08343 15.7366 8.08344 15.7355 8.08346C16.8959 8.08981 16.1737 8.18387 16.2363 8.18561C18.596 8.27518 18.0094 8.09368 18.3831 8.06596C19.2011 8.00587 19.033 8.2391 20.4149 8.1237C18.1589 8.29718 20.2044 8.20878 20.2763 8.28988C20.5383 8.62129 17.2343 8.1763 16.1664 8.26169C16.0145 8.27358 17.1374 8.36458 16.7479 8.40054C15.4187 8.51805 11.4223 8.0573 15.7388 8.08341ZM406.959 1.39725C407.491 1.28847 411.402 1.2189 410.369 1.34314C410.221 1.37258 406.199 1.56903 406.959 1.39725ZM220.487 5.18614C221.444 5.08619 219.221 5.02031 218.809 5.09295C218.605 5.12913 220.067 5.23001 220.487 5.18614ZM204.879 5.061C203.739 5.09566 202.543 5.46916 203.96 5.39243C204.111 5.38411 205.01 5.10827 204.879 5.061ZM279.784 4.06417C278.601 3.95662 278.675 4.19131 279.542 4.17374C279.848 4.16758 279.821 4.06757 279.784 4.06417ZM234.33 4.82018C234.211 4.81381 232.829 4.85039 232.881 4.90381C233.393 4.92837 235.104 4.86465 234.33 4.82018ZM280.158 4.02445C279.465 4.07835 280.649 4.22953 281.529 4.04829C281.077 4.06942 280.231 4.01891 280.158 4.02445ZM388.834 1.73748C388.28 1.85862 386.588 1.89676 385.647 1.9473C385.552 1.82623 388.166 1.79051 388.834 1.73748ZM209.726 5.12979C208.648 5.23474 210.962 5.27174 210.748 5.1581C210.719 5.15221 209.769 5.12537 209.726 5.12979ZM318.226 3.36111C317.438 3.45015 319.942 3.50573 319.251 3.38659C319.218 3.38182 318.27 3.35616 318.226 3.36111ZM329.092 3.20486C328.454 3.19167 325.976 3.24556 326.945 3.30056C327.08 3.3093 329.04 3.27444 329.092 3.20486ZM18.4515 7.97464C18.1555 7.84995 19.9487 7.8551 20.2365 7.87352C20.3312 7.88154 18.8681 8.13644 18.4515 7.97464ZM272.048 4.17035C271.438 4.19639 269.846 4.19154 269.565 4.26371C270.32 4.23751 272.252 4.30177 272.048 4.17035ZM214.645 5.0538C213.702 4.92821 212.1 4.96658 212.499 5.14349C214.271 5.10406 212.276 4.98241 214.645 5.0538ZM284.142 3.80798C283.646 3.80549 283.268 3.98752 283.324 3.99487C283.865 4.06473 284.635 3.86821 284.142 3.80798ZM247.048 4.5506C247.019 4.47594 245.44 4.53491 245.652 4.57993C245.721 4.59506 247.072 4.611 247.048 4.5506ZM368.188 2.33431C367.472 2.2837 369.65 2.16209 370.332 2.22433C370.66 2.33145 368.257 2.34071 368.188 2.33431ZM297.844 3.62244C297.92 3.50969 295.408 3.61526 296.4 3.69086C296.65 3.70977 297.819 3.66013 297.844 3.62244ZM321.526 3.07368C319.848 3.23742 326.883 3.20278 325.032 3.07106C324.923 3.06137 321.619 3.06086 321.526 3.07368ZM332.909 2.94452C332.639 2.93501 332.727 2.55878 333.949 2.67978C334.109 2.69544 333.364 2.80877 333.495 2.82891C333.582 2.84023 336.193 2.84245 336.301 2.83152C336.428 2.81913 336.276 2.70201 336.405 2.68605C336.562 2.66795 338.087 2.74368 338.945 2.7279C340.545 2.6983 340.699 2.59519 340.83 2.59227C341.205 2.58415 341.832 2.64259 342.574 2.6276C346.443 2.54949 352.215 2.34357 355.27 2.4879C352.588 2.4616 350.04 2.60601 347.319 2.69014C348.102 2.46552 343.409 2.9312 346.159 2.63408C344.818 2.71569 333.92 2.97241 332.912 2.94446C332.911 2.94448 332.91 2.9445 332.909 2.94452ZM200.377 5.02455C201.076 4.88604 197.48 4.96946 197.176 5.12201C197.652 5.13534 200.29 5.04037 200.377 5.02455ZM216.962 4.45903C217.296 4.43182 217.611 4.177 219.363 4.2768C219.365 4.27678 219.366 4.27675 219.368 4.27673C219.88 4.30586 219.298 4.37575 219.392 4.396C219.426 4.40434 221.023 4.50409 219.699 4.5445C217.678 4.60631 219.506 4.36149 218.428 4.37545C218.296 4.37727 216.255 4.54398 216.374 4.57185C216.387 4.57512 217.001 4.53705 217.103 4.54783C217.487 4.58833 217.302 4.66925 217.356 4.67214C217.534 4.67893 220.758 4.49628 221.227 4.60519C221.382 4.64028 216.087 4.80822 215.877 4.79193C215.746 4.78167 215.798 4.56417 215.662 4.54495C215.591 4.53542 213.459 4.64936 213.185 4.63364C213.104 4.62911 213.043 4.62384 212.998 4.61941C213.321 4.6815 211.394 4.70621 211.452 4.62968C211.485 4.59944 212.812 4.59631 212.859 4.60078C212.88 4.60266 212.898 4.60542 212.915 4.60725C212.635 4.52986 217.138 4.4644 216.165 4.35775C217.469 4.27109 215.982 4.53894 216.962 4.45903ZM223.22 4.22891C223.084 4.25379 222.951 4.27864 222.817 4.3035C225.105 4.21238 227.747 4.28119 230.366 4.23969C231.03 4.22932 230.264 4.10185 231.135 4.12639C231.829 4.14613 232.617 4.26315 232.233 4.29795C232.136 4.30665 230.715 4.24455 230.003 4.26424C227.902 4.32245 228.434 4.43371 228.311 4.43884C228.175 4.44435 226.848 4.38086 226.123 4.39583C224.301 4.4337 223.458 4.52014 220.979 4.4625C222.411 4.36163 221.622 4.20268 223.22 4.22891ZM308.289 3.10466C308.377 3.0279 309.83 3.06929 310.403 3.04818C310.307 3.1253 308.818 3.0844 308.289 3.10466ZM85.7271 6.43262C85.264 6.56279 88.7265 6.54314 87.8128 6.45365C87.6082 6.43381 86.1571 6.42726 85.7271 6.43262ZM101.178 6.28323C101.638 6.24239 99.7813 6.18054 99.7879 6.276C99.7901 6.3066 101.118 6.28855 101.178 6.28323ZM252.732 3.88869C252.82 3.88344 254.084 3.89087 254.123 3.89653C254.964 4.01428 250.799 4.00459 252.732 3.88869ZM119.973 5.85677C118.385 5.96096 123.172 5.9259 121.708 5.84418C121.634 5.84025 120.049 5.85174 119.973 5.85677ZM126.673 5.73595C126.284 5.74599 124.57 5.73097 124.549 5.76895C124.514 5.83023 126.477 5.84295 126.673 5.73595ZM284.469 3.33619C284.283 3.20017 286.531 3.26827 287.301 3.23792C287.489 3.37401 285.254 3.30564 284.469 3.33619ZM270.261 3.46618C279.746 3.20228 277.636 3.53398 269.698 3.54305C269.685 3.45402 269.664 3.48275 270.261 3.46618ZM282.401 3.28428C282.058 3.37905 280.95 3.37087 280.244 3.37535C280.364 3.31142 281.869 3.30908 282.401 3.28428ZM81.6526 6.30059C82.2877 6.17883 84.8495 6.28048 84.3985 6.33345C84.2885 6.34508 81.456 6.36535 81.6526 6.30059ZM253.525 3.75707C253.304 3.62531 256.142 3.63537 256.357 3.66198C257.233 3.76889 253.758 3.72354 253.525 3.75707ZM297.926 2.99165C298.432 2.87709 299.865 2.9072 300.775 2.89304C300.364 2.9907 298.714 2.98018 297.926 2.99165ZM291.295 3.02047C291.354 3.01542 292.636 3.00347 292.693 3.00739C293.745 3.09324 290.116 3.12761 291.295 3.02047ZM14.1586 7.08822C14.1943 7.0843 15.1486 7.07753 15.1879 7.08096C16.0418 7.17058 13.1855 7.19029 14.1586 7.08822Z" fill="#282607"/>
</svg>
